<svg width="20" height="21" viewBox="0 0 20 21" fill="none" xmlns="http://www.w3.org/2000/svg">
<path fill-rule="evenodd" clip-rule="evenodd" d="M10 0.5C7.3 0.5 6.9 0.5 5.9 0.6C2.2 0.7 0.2 2.7 0.1 6.4C0 7.4 0 7.8 0 10.5C0 13.2 0 13.6 0.1 14.6C0.3 18.2 2.3 20.2 5.9 20.4C6.9 20.5 7.3 20.5 10 20.5C12.7 20.5 13.1 20.5 14.1 20.4C17.7 20.2 19.7 18.2 19.9 14.6C19.9 14.1714 19.9152 13.8643 19.9337 13.4894C19.9627 12.9019 20 12.1481 20 10.5C20 7.8 20 7.4 19.9 6.4C19.7 2.8 17.7 0.7 14.1 0.6C13.1 0.5 12.7 0.5 10 0.5ZM10 2.3C12.7 2.3 13 2.3 14 2.4C16.8 2.5 18 3.8 18.1 6.5C18.1 6.88278 18.1147 7.17765 18.1327 7.54165C18.1619 8.12857 18.2 8.89523 18.2 10.5C18.2 13.1 18.2 13.5 18.1 14.5C18 17.2 16.7 18.5 14 18.6C13.5665 18.6 13.2572 18.6155 12.8825 18.6344L12.8824 18.6344H12.8824H12.8824C12.3062 18.6633 11.5752 18.7 10 18.7C7.3 18.7 7 18.7 6 18.6C3.2 18.5 2 17.2 1.9 14.5C1.9 14.0665 1.88447 13.7572 1.86565 13.3825C1.83671 12.8063 1.8 12.0753 1.8 10.5C1.8 7.8 1.8 7.5 1.9 6.5C2 3.8 3.2 2.5 6 2.4C7 2.3 7.3 2.3 10 2.3ZM4.9 10.5C4.9 7.7 7.2 5.4 10 5.4C12.8 5.4 15.1 7.7 15.1 10.5C15.1 13.3 12.8 15.6 10 15.6C7.2 15.6 4.9 13.3 4.9 10.5ZM10 13.8C8.2 13.8 6.7 12.3 6.7 10.5C6.7 8.7 8.2 7.2 10 7.2C11.8 7.2 13.3 8.7 13.3 10.5C13.3 12.3 11.8 13.8 10 13.8ZM14.1 5.2C14.1 4.5 14.6 4 15.3 4C16 4 16.5 4.5 16.5 5.2C16.5 5.9 16 6.4 15.3 6.4C14.6 6.4 14.1 5.9 14.1 5.2Z" fill="black"/>
</svg>
