<svg width="20" height="21" viewBox="0 0 20 21" fill="none" xmlns="http://www.w3.org/2000/svg">
<path fill-rule="evenodd" clip-rule="evenodd" d="M1.5 0.5H18.5C18.9 0.5 19.3 0.6 19.4 0.9C19.6 1.1 19.8 1.5 19.8 1.9V19C19.8 19.4 19.7 19.7 19.4 20C19.2 20.3 18.8 20.4 18.4 20.4H1.4C1 20.4 0.7 20.3 0.4 20C0.2 19.8 0 19.4 0 19V1.9C0 1.6 0.2 1.2 0.5 0.9C0.7 0.6 1.1 0.5 1.5 0.5ZM3.4 6.4C3.7 6.6 4.1 6.7 4.4 6.7C4.56515 6.7 4.7 6.66969 4.82122 6.64245C4.9202 6.6202 5.0101 6.6 5.1 6.6C5.2 6.55 5.3 6.475 5.4 6.4L5.4 6.4C5.5 6.325 5.6 6.25 5.7 6.2C5.8 6 6 5.8 6.1 5.7C6.2 5.4 6.2 5.2 6.2 5C6.2 4.6 6.1 4.3 5.9 4C5.7 3.7 5.4 3.5 5.1 3.4C4.8 3.3 4.4 3.2 4.1 3.3C3.8 3.4 3.5 3.5 3.2 3.8C3 4 2.8 4.3 2.8 4.6C2.7 4.9 2.8 5.3 2.9 5.6C3 5.9 3.2 6.2 3.4 6.4ZM14 17.5H17L16.9 12.2C16.9 9.7 16.3 7.7 13.3 7.7C12.8 7.7 12.2 7.8 11.7 8.1C11.2 8.4 10.8 8.8 10.5 9.3V8H7.7V17.5H10.7V12.9C10.7 11.6 11 10.4 12.5 10.4C14 10.4 14 11.8 14 12.9V17.5ZM5.9 17.5H3V8H6V17.5H5.9Z" fill="black"/>
</svg>
