<svg width="22" height="18" viewBox="0 0 22 18" fill="none" xmlns="http://www.w3.org/2000/svg">
<path d="M21.3 2C20.5 2.3 19.7 2.6 18.9 2.7C19.8 2.2 20.4 1.3 20.8 0.3C20 0.8 19.1 1.1 18.1 1.3C17.3 0.5 16.2 0 15 0C12.3 0 10.2 2.6 10.9 5.3C7.29995 5.1 4.19995 3.4 2.09995 0.8C0.999951 2.7 1.49995 5.2 3.39995 6.5C2.69995 6.5 2.09995 6.3 1.49995 6C1.49995 8 2.89995 9.8 4.89995 10.3C4.29995 10.5 3.59995 10.5 2.99995 10.4C3.49995 12.1 5.09995 13.3 6.99995 13.4C5.19995 14.8 2.99995 15.4 0.699951 15.2C2.59995 16.4 4.79995 17.1 7.19995 17.1C15.1 17.1 19.5 10.4 19.3 4.3C20 3.6 20.8 2.9 21.3 2Z" fill="black"/>
</svg>
