<svg width="69" height="52" viewBox="0 0 69 52" fill="none" xmlns="http://www.w3.org/2000/svg">
<path fill-rule="evenodd" clip-rule="evenodd" d="M66.3818 17.074H50.6512C49.7576 17.074 49.033 17.8027 49.033 18.7015V24.9695C49.033 25.8688 49.7576 26.5976 50.6512 26.5976H66.3818C67.2754 26.5976 68 25.8688 68 24.9695V18.7015C68 17.8027 67.2754 17.074 66.3818 17.074Z" stroke="#344154" stroke-width="1.50468" stroke-linecap="round" stroke-linejoin="round"/>
<path d="M25.5704 42.6716H60.7014C63.3869 42.6716 65.5637 40.4823 65.5637 37.7814V26.5977" stroke="#101D2C" stroke-width="1.50468" stroke-linecap="round" stroke-linejoin="round"/>
<path d="M55.4537 42.6716C58.1392 42.6716 60.3161 40.4823 60.3161 37.7814V26.5977" stroke="#101D2C" stroke-width="1.50468" stroke-linecap="round" stroke-linejoin="round"/>
<path d="M60.3158 17.074V5.88971C60.3158 3.18931 58.139 1 55.4535 1" stroke="#101D2C" stroke-width="1.50468" stroke-linecap="round" stroke-linejoin="round"/>
<path fill-rule="evenodd" clip-rule="evenodd" d="M56.2295 21.8357C56.2295 20.6636 55.285 19.7141 54.12 19.7141C52.9545 19.7141 52.01 20.6636 52.01 21.8357C52.01 23.0074 52.9545 23.9573 54.12 23.9573C55.285 23.9573 56.2295 23.0074 56.2295 21.8357Z" fill="#FF6666"/>
<path d="M35.7494 24.7259C35.7494 26.5581 37.2265 28.0437 39.0483 28.0437C40.87 28.0437 42.3472 26.5581 42.3472 24.7259C42.3472 22.8932 40.9947 22.0471 39.0483 21.4081C37.3163 20.8398 35.7494 19.9225 35.7494 18.0903C35.7494 16.2581 37.2265 14.7725 39.0483 14.7725C40.87 14.7725 42.3472 16.2581 42.3472 18.0903" stroke="#101D2C" stroke-width="1.50468" stroke-linecap="round" stroke-linejoin="round"/>
<path d="M39.0483 12.9231V14.7949" stroke="#101D2C" stroke-width="1.50468" stroke-linecap="round" stroke-linejoin="round"/>
<path d="M39.0483 28.0437V29.9155" stroke="#101D2C" stroke-width="1.50468" stroke-linecap="round" stroke-linejoin="round"/>
<path d="M15.6284 17L14.23 17.7834C8.61516 20.9292 4.10441 29.524 2.68062 35.8266C1.56004 40.7895 1 44.0035 1 51.2034" stroke="#101D2C" stroke-width="1.50468" stroke-linecap="round" stroke-linejoin="round"/>
<path d="M65.5637 17.074V5.88971C65.5637 3.18931 63.3869 1 60.7014 1H20.525C17.8395 1 15.6627 3.18931 15.6627 5.88971V30.4205C15.6627 30.89 15.7634 31.3624 16.0103 31.7602C16.5768 32.673 17.6445 33.0482 18.5776 32.3545C22.26 29.6285 24.3356 26.7691 25.8766 24.7343C26.8151 23.4844 28.594 23.2647 29.7904 24.2623C29.8173 24.2889 29.8433 24.3085 29.8772 24.3351C31.2845 25.5789 31.1399 26.7822 29.8707 28.7242C28.7327 30.4596 27.245 32.3746 26.3194 33.8441C25.3739 35.3338 24.6343 36.9297 23.9795 38.5718C21.8965 43.7851 18.5572 46.0195 16.2237 46.9705C14.6035 47.635 13.5662 49.238 13.5662 50.993V51" stroke="#101D2C" stroke-width="1.50468" stroke-linecap="round" stroke-linejoin="round"/>
<path d="M20.2524 25.9999V9.03711" stroke="#101D2C" stroke-width="1.50468" stroke-linecap="round" stroke-linejoin="round" stroke-dasharray="0.01 4.01"/>
</svg>
