<svg width="128" height="31" viewBox="0 0 128 31" fill="none" xmlns="http://www.w3.org/2000/svg">
<path d="M0 25.516V20.9509H0.592811C5.97793 20.9509 11.362 20.9509 16.7472 20.9509C16.9668 20.9509 17.1895 20.957 17.4061 20.9305C18.2683 20.8257 18.7737 20.2788 18.7432 19.4988C18.7096 18.6566 18.1453 18.119 17.2464 18.1169C14.5539 18.1088 11.8613 18.1353 9.16975 18.1047C7.5591 18.0864 6.02267 17.6994 4.8157 16.5793C2.95694 14.8532 2.54614 12.6547 3.17555 10.2973C3.78057 8.03046 5.43088 6.79728 7.69027 6.36449C8.31765 6.24433 8.9674 6.19648 9.60597 6.19444C14.3474 6.1812 19.0889 6.1873 23.8304 6.1873C24.05 6.1873 24.2686 6.1873 24.5472 6.1873V0H29.1006V6.16999H35.2422V10.728H29.1433C29.1291 10.9612 29.1097 11.1221 29.1097 11.283C29.1077 13.9561 29.1067 16.6292 29.1097 19.3023C29.1108 20.6108 29.5744 21.068 30.8811 21.069C32.3372 21.069 33.7922 21.069 35.292 21.069V25.5303C35.2788 25.5405 35.2524 25.5782 35.226 25.5782C33.3814 25.572 31.5267 25.6861 29.6954 25.5232C26.9164 25.2757 25.0048 23.2869 24.6835 20.5079C24.5788 19.6047 24.5798 18.6872 24.5737 17.7758C24.5584 15.6444 24.5686 13.5121 24.5686 11.3807V10.7932C24.3449 10.783 24.1649 10.7677 23.9839 10.7677C19.0564 10.7667 14.1288 10.7667 9.20127 10.7677C9.03248 10.7677 8.86267 10.7687 8.69387 10.782C7.83771 10.8482 7.35776 11.3685 7.3781 12.2025C7.39844 13.0192 7.92515 13.563 8.76404 13.565C11.4902 13.5722 14.2173 13.5121 16.9424 13.5813C17.885 13.6048 18.8642 13.8105 19.7488 14.1414C21.7998 14.9113 23.1145 16.9723 23.145 19.1607C23.1593 20.1515 23.0789 21.1128 22.6793 22.0364C21.7825 24.1057 20.1159 25.1016 17.9694 25.4142C17.4193 25.4947 16.857 25.513 16.2998 25.514C11.0844 25.5211 5.86913 25.5181 0.652804 25.5181H0V25.516Z" fill="white"/>
<path fill-rule="evenodd" clip-rule="evenodd" d="M90.915 17.92H106.073C106.272 16.9078 106.3 15.9252 106.168 14.9282C105.439 9.4181 100.518 5.53932 95.0352 6.16355C89.5921 6.78269 85.6641 11.6004 86.1268 17.0871C86.5599 22.2123 90.9018 26.2183 96.0439 26.2306C97.3421 26.2333 98.6399 26.2324 99.9377 26.2315C100.587 26.231 101.236 26.2306 101.885 26.2306H102.385V21.8793H101.808H96.17C93.7835 21.8793 91.8383 20.5269 90.9933 18.2765C90.9685 18.2112 90.9561 18.1411 90.9414 18.0584C90.9339 18.0159 90.9257 17.9701 90.915 17.92ZM95.6859 10.6055C98.2026 10.4568 100.739 12.0036 101.3 14.0667H91.0543C91.2932 12.4873 93.6635 10.7246 95.6859 10.6055Z" fill="white"/>
<path d="M86.7878 6.26091C85.9479 7.27109 85.1944 8.17841 84.4399 9.08369C83.1933 10.5776 81.9518 12.0755 80.6929 13.5602C80.4652 13.8291 80.4316 14.0246 80.6177 14.3504C82.8018 18.1814 84.9656 22.0235 87.1345 25.8636C87.1915 25.9634 87.2423 26.0672 87.3257 26.2271C87.1183 26.2393 86.9606 26.2577 86.802 26.2577C85.4303 26.2597 84.0586 26.2444 82.6869 26.2678C82.3015 26.2739 82.088 26.165 81.8928 25.8167C80.4255 23.1915 78.9328 20.5805 77.4472 17.9655C77.3577 17.8076 77.2611 17.6539 77.1371 17.4461C76.3104 18.496 75.5091 19.498 74.7302 20.5184C74.6316 20.6477 74.6214 20.8667 74.6204 21.0439C74.6123 22.55 74.6153 24.055 74.6153 25.5611C74.6153 25.7434 74.6153 25.9257 74.6153 26.1436H70.0996V0.160156H74.6001V13.7333C74.7994 13.5236 74.9021 13.4258 74.9926 13.3179C76.8839 11.0613 78.7701 8.80162 80.6695 6.55113C80.7844 6.41468 80.9909 6.27619 81.1566 6.27415C82.9828 6.2548 84.8101 6.26193 86.7868 6.26193L86.7878 6.26091Z" fill="white"/>
<path d="M51.1172 30.6016V26.0416C51.3104 26.0416 51.4883 26.0416 51.6663 26.0416C53.2576 26.0416 54.85 26.0426 56.4413 26.0416C57.2893 26.0416 57.5659 25.6546 57.327 24.8491C55.5302 18.785 53.7386 12.7189 51.9459 6.65377C51.9317 6.60693 51.9286 6.55602 51.9103 6.45113C52.0598 6.43484 52.1991 6.40734 52.3394 6.40632C53.5078 6.40327 54.6761 6.4216 55.8444 6.3941C56.2288 6.38494 56.364 6.53463 56.4606 6.87577C57.6676 11.1089 58.8868 15.339 60.1049 19.5701C60.1456 19.7127 60.1954 19.8532 60.2758 20.1017C60.8228 18.1822 61.3404 16.3726 61.8549 14.561C62.5779 12.0132 63.3059 9.46739 64.0116 6.91548C64.1204 6.52343 64.2861 6.3829 64.7061 6.39309C65.972 6.42363 67.239 6.40429 68.5721 6.40429C68.5232 6.63443 68.4968 6.80958 68.448 6.97658C66.6899 13 64.9481 19.0284 63.1534 25.0406C62.8575 26.0324 62.4365 27.0212 61.8864 27.8939C60.7516 29.6933 59.0383 30.5812 56.9009 30.5996C55.1743 30.6138 53.4468 30.6016 51.7192 30.6016C51.5361 30.6016 51.3531 30.6016 51.1182 30.6016H51.1172Z" fill="white"/>
<path d="M122.835 15.037H118.323C118.323 14.6765 118.323 14.3292 118.323 13.982C118.323 13.5085 118.339 13.0339 118.318 12.5614C118.269 11.4891 117.675 10.9097 116.613 10.9005C115.345 10.8904 114.077 10.8985 112.739 10.8985V25.6407H108.16V6.35985C108.289 6.3517 108.45 6.33337 108.612 6.33337C111.271 6.33134 113.93 6.30079 116.587 6.35068C117.401 6.36596 118.24 6.51565 119.019 6.76107C121.399 7.50953 122.861 9.60829 122.836 12.094C122.827 13.0573 122.834 14.0197 122.834 15.037H122.835Z" fill="white"/>
<path d="M41.7364 25.7065H37.1973V6.37469C37.3315 6.36858 37.5094 6.35432 37.6864 6.35432C40.2935 6.35331 42.9017 6.31665 45.5078 6.37367C46.3731 6.392 47.2649 6.55086 48.0885 6.81868C50.3347 7.54678 51.7755 9.52539 51.8579 11.8889C51.8945 12.9327 51.864 13.9775 51.864 15.0498H47.3259C47.3259 14.2371 47.3361 13.4164 47.3239 12.5956C47.3086 11.5457 46.6873 10.9246 45.6491 10.9001C45.4458 10.895 45.2424 10.8981 45.0401 10.8981C43.9592 10.8981 42.8783 10.8981 41.7364 10.8981V25.7065Z" fill="white"/>
<path fill-rule="evenodd" clip-rule="evenodd" d="M122.313 4.85336C122.318 6.42565 123.584 7.69244 125.142 7.68327C126.726 7.67411 128.003 6.38186 127.988 4.80448C127.972 3.28311 126.7 2.03873 125.145 2.02549C123.583 2.01225 122.309 3.28413 122.313 4.85336ZM125.127 2.3819C126.506 2.37884 127.617 3.48372 127.612 4.85438C127.606 6.22606 126.495 7.34315 125.132 7.34621C123.777 7.34824 122.682 6.22402 122.686 4.83299C122.69 3.46234 123.764 2.38495 125.127 2.3819Z" fill="white"/>
<path fill-rule="evenodd" clip-rule="evenodd" d="M125.039 3.22046C124.759 3.22046 124.465 3.24388 124.26 3.28564V3.28665V6.39151H124.666V5.02798H125.048C125.416 5.04224 125.584 5.20619 125.678 5.63999C125.766 6.03204 125.836 6.30292 125.887 6.39151H126.307C126.242 6.27033 126.168 5.96687 126.065 5.52798C125.991 5.20109 125.845 4.97706 125.603 4.89254V4.87829C125.934 4.76627 126.195 4.49031 126.195 4.07483C126.195 3.83146 126.107 3.61761 125.948 3.47708C125.752 3.29989 125.472 3.22046 125.039 3.22046ZM125.081 4.71943H124.666V3.57077C124.731 3.55142 124.87 3.53309 125.066 3.53309C125.496 3.53818 125.789 3.71537 125.789 4.12168C125.789 4.48114 125.514 4.71943 125.081 4.71943Z" fill="white"/>
</svg>
