<svg width="151" height="35" viewBox="0 0 151 35" fill="none" xmlns="http://www.w3.org/2000/svg">
<path fill-rule="evenodd" clip-rule="evenodd" d="M55.8042 3.49329H54.478V5.34009C53.8641 4.59131 53.2255 4.04237 52.5625 3.71783C51.8994 3.39344 51.1628 3.21875 50.4014 3.21875C49.4682 3.21875 48.5841 3.46829 47.7491 3.96738C46.9142 4.44162 46.251 5.11554 45.7844 5.96402C45.3179 6.81265 45.0723 7.73598 45.0723 8.70945C45.0723 9.68274 45.3179 10.5812 45.7599 11.4048C46.2264 12.2035 46.865 12.8773 47.7 13.3515C48.5349 13.8257 49.419 14.0753 50.3769 14.0753C51.1872 14.0753 51.9486 13.9006 52.6608 13.5512C53.373 13.2018 53.9869 12.7026 54.478 12.0536V12.6027C54.478 13.7757 54.3553 14.6244 54.0852 15.1485C53.815 15.6725 53.373 16.0968 52.759 16.4463C52.1451 16.7957 51.3837 16.9704 50.475 16.9704C49.5419 16.9704 48.7806 16.8206 48.1667 16.4712C47.5281 16.1468 47.0369 15.6227 46.644 14.9239H45.195C45.5634 15.7474 45.9809 16.3963 46.4229 16.8206C46.865 17.2698 47.4299 17.6193 48.1421 17.8689C48.8543 18.1184 49.6401 18.2433 50.5242 18.2433C51.7275 18.2433 52.759 17.9687 53.6185 17.4445C54.478 16.9204 55.092 16.1718 55.4358 15.1983C55.6815 14.4995 55.8042 13.4263 55.8042 11.9289V3.49329ZM48.4859 5.06555C49.1244 4.71616 49.812 4.51646 50.5733 4.51646C51.2855 4.51646 51.973 4.71616 52.5871 5.06555C53.2011 5.41494 53.6922 5.91418 54.036 6.53811C54.3798 7.16205 54.5517 7.88583 54.5517 8.68446C54.5517 9.90734 54.1833 10.9056 53.4466 11.6544C52.6852 12.4032 51.7275 12.7774 50.4996 12.7774C49.2963 12.7774 48.314 12.3782 47.5526 11.6294C46.7913 10.8806 46.4229 9.93234 46.4229 8.7593C46.4229 7.98567 46.5948 7.26189 46.9632 6.61296C47.3316 5.96403 47.8473 5.43994 48.4859 5.06555Z" fill="white"/>
<path d="M57.9512 3.48951H59.3433V5.01548C59.7482 4.42479 60.2038 3.95707 60.6594 3.6618C61.115 3.36638 61.5959 3.21875 62.1021 3.21875C62.4818 3.21875 62.8868 3.34173 63.3171 3.56333L62.6084 4.69555C62.33 4.57242 62.0769 4.52326 61.8744 4.52326C61.4188 4.52326 60.9885 4.69555 60.5581 5.06479C60.1279 5.43403 59.8241 6.00006 59.5964 6.7877C59.4192 7.37854 59.3433 8.58459 59.3433 10.4061V13.9505H57.9512" fill="white"/>
<path fill-rule="evenodd" clip-rule="evenodd" d="M73.7272 10.8946L72.6094 10.3171C72.1871 10.9908 71.8145 11.4722 71.4169 11.7369C71.0692 12.0496 70.6469 12.2902 70.15 12.4586C69.6532 12.6271 69.1315 12.7233 68.6099 12.7233C67.5168 12.7233 66.5976 12.3625 65.8522 11.5924C65.1071 10.8465 64.7095 9.85994 64.6847 8.68093H74.0503C74.0503 7.28529 73.6527 6.13025 72.9074 5.19184C71.8392 3.86851 70.4232 3.21875 68.6595 3.21875C66.9453 3.21875 65.5542 3.8685 64.5357 5.14377C63.7158 6.15435 63.3184 7.30939 63.3184 8.60877C63.3184 9.98034 63.7903 11.2316 64.7593 12.3143C65.7032 13.3972 67.0447 13.9505 68.734 13.9505C69.5042 13.9505 70.1997 13.8543 70.7959 13.6137C71.4169 13.3972 71.9386 13.0602 72.4355 12.6271C72.9323 12.1939 73.3546 11.6165 73.7272 10.8946ZM71.8392 5.88965C72.1622 6.32277 72.4355 6.87627 72.6094 7.57409H64.8587C65.1318 6.63568 65.5294 5.91376 66.0759 5.45653C66.8212 4.80692 67.6906 4.49401 68.7091 4.49401C69.3303 4.49401 69.9016 4.61438 70.473 4.87908C71.0443 5.11967 71.4914 5.48063 71.8392 5.88965Z" fill="white"/>
<path fill-rule="evenodd" clip-rule="evenodd" d="M85.532 10.8946L84.414 10.3171C83.9917 10.9908 83.6191 11.4722 83.2217 11.7369C82.8739 12.0496 82.4515 12.2902 81.9547 12.4586C81.4578 12.6271 80.9361 12.7233 80.4144 12.7233C79.3213 12.7233 78.4023 12.3625 77.657 11.5924C76.9117 10.8465 76.5143 9.85994 76.4894 8.68093H85.8549C85.8549 7.28529 85.4575 6.13025 84.7121 5.19184C83.6688 3.86851 82.228 3.21875 80.4642 3.21875C78.7501 3.21875 77.3588 3.8685 76.3404 5.14377C75.5206 6.15435 75.123 7.30939 75.123 8.60877C75.123 9.98034 75.5951 11.2316 76.5639 12.3143C77.508 13.3972 78.8495 13.9505 80.5387 13.9505C81.3088 13.9505 82.0043 13.8543 82.6006 13.6137C83.2217 13.3972 83.7433 13.0602 84.2401 12.6271C84.737 12.1939 85.1593 11.6165 85.532 10.8946ZM83.6439 5.88965C83.9668 6.32277 84.2401 6.87627 84.414 7.57409H76.6633C76.9366 6.63568 77.3341 5.91376 77.8805 5.45653C78.6258 4.80692 79.4952 4.49401 80.5138 4.49401C81.1349 4.49401 81.7063 4.61438 82.2776 4.87908C82.849 5.11967 83.2962 5.48063 83.6439 5.88965Z" fill="white"/>
<path d="M88.0254 3.48889H89.2921V5.35533C89.8082 4.64313 90.3478 4.10284 90.9811 3.75904C91.591 3.41524 92.2713 3.21875 92.975 3.21875C93.7022 3.21875 94.359 3.41524 94.922 3.80809C95.485 4.20109 95.9072 4.74139 96.1888 5.40438C96.4701 6.06753 96.5875 7.12352 96.5875 8.54776V13.9015H95.3208V8.94076C95.3208 7.73747 95.2739 6.92702 95.1801 6.53402C95.0392 5.84643 94.7578 5.33073 94.3356 4.98693C93.9134 4.64313 93.3738 4.47124 92.717 4.47124C91.9429 4.47124 91.2626 4.74138 90.6527 5.28153C90.0429 5.82183 89.644 6.48497 89.4563 7.27082C89.3391 7.78651 89.2687 8.74426 89.2687 10.1196V13.9505H88.002" fill="white"/>
<path d="M101.119 2.88401V3.50023H103.025V4.65874H101.119V13.9513H99.9374V4.65874H98.7324V3.50023H99.9374V2.66209C99.9374 1.92272 100.002 1.38043 100.112 1.0599C100.243 0.739522 100.44 0.493062 100.725 0.295837C101.01 0.098612 101.36 0 101.776 0H103.025V1.28181H101.798C101.798 1.28181 101.119 1.40497 101.119 2.09525C101.097 2.7607 101.119 2.88401 101.119 2.88401Z" fill="white"/>
<path fill-rule="evenodd" clip-rule="evenodd" d="M114.508 10.8946L113.39 10.3171C112.968 10.9908 112.595 11.4722 112.198 11.7369C111.85 12.0496 111.428 12.2902 110.931 12.4586C110.434 12.6271 109.912 12.7233 109.391 12.7233C108.298 12.7233 107.378 12.3625 106.633 11.5924C105.888 10.8465 105.49 9.85994 105.466 8.68093H114.831C114.831 7.28529 114.434 6.13025 113.688 5.19184C112.62 3.86851 111.204 3.21875 109.44 3.21875C107.726 3.21875 106.335 3.8685 105.317 5.14377C104.497 6.15435 104.099 7.30939 104.099 8.60877C104.099 9.98034 104.571 11.2316 105.54 12.3143C106.484 13.3972 107.826 13.9505 109.515 13.9505C110.285 13.9505 110.98 13.8543 111.577 13.6137C112.173 13.3972 112.719 13.0602 113.216 12.6271C113.713 12.1939 114.135 11.6165 114.508 10.8946ZM112.62 5.88965C112.943 6.32277 113.216 6.87627 113.39 7.57409H105.639C105.913 6.63568 106.31 5.91376 106.857 5.45653C107.602 4.80692 108.472 4.49401 109.49 4.49401C110.111 4.49401 110.682 4.61438 111.254 4.87908C111.825 5.11967 112.272 5.48063 112.62 5.88965Z" fill="white"/>
<path d="M116.978 3.48889H118.248V5.35533C118.766 4.64313 119.307 4.10284 119.942 3.75904C120.553 3.41524 121.236 3.21875 121.941 3.21875C122.67 3.21875 123.329 3.41524 123.894 3.80809C124.458 4.20109 124.881 4.74139 125.164 5.40438C125.446 6.06753 125.564 7.12352 125.564 8.54776V13.9015H124.293V8.94076C124.293 7.73747 124.246 6.92702 124.152 6.53402C124.011 5.84643 123.729 5.33073 123.306 4.98693C122.882 4.64313 122.341 4.47124 121.683 4.47124C120.906 4.47124 120.224 4.74138 119.613 5.28153C119.001 5.82183 118.601 6.48497 118.413 7.27082C118.295 7.78651 118.225 8.74426 118.225 10.1196V13.9505H116.978" fill="white"/>
<path d="M138.44 5.64362L137.357 6.29192C136.425 5.09137 135.165 4.49116 133.553 4.49116C132.268 4.49116 131.21 4.89941 130.354 5.69171C129.497 6.48387 129.069 7.46828 129.069 8.59668C129.069 9.34089 129.27 10.0371 129.648 10.6854C130.026 11.3336 130.58 11.8377 131.261 12.1979C131.941 12.558 132.697 12.7501 133.553 12.7501C135.115 12.7501 136.375 12.1499 137.357 10.9495L138.44 11.6458C137.937 12.3659 137.256 12.9422 136.4 13.3503C135.543 13.7584 134.586 13.9505 133.503 13.9505C131.84 13.9505 130.454 13.4464 129.346 12.414C128.238 11.3817 127.709 10.1572 127.709 8.66869C127.709 7.68429 127.96 6.77202 128.489 5.90772C128.993 5.06746 129.699 4.39526 130.606 3.93905C131.513 3.4588 132.52 3.21875 133.629 3.21875C134.334 3.21875 134.989 3.3148 135.644 3.53095C136.299 3.74695 136.853 4.01106 137.307 4.34716C137.735 4.70731 138.113 5.11542 138.44 5.64362Z" fill="white"/>
<path fill-rule="evenodd" clip-rule="evenodd" d="M149.922 10.8946L148.804 10.3171C148.407 10.9908 148.034 11.4722 147.612 11.7369C147.264 12.0496 146.842 12.2902 146.345 12.4586C145.848 12.6271 145.326 12.7233 144.805 12.7233C143.712 12.7233 142.792 12.3625 142.047 11.5924C141.302 10.8465 140.904 9.85994 140.88 8.68093H150.245C150.245 7.28529 149.848 6.13025 149.102 5.19184C148.034 3.86851 146.618 3.21875 144.854 3.21875C143.14 3.21875 141.749 3.8685 140.73 5.14377C139.911 6.15435 139.513 7.30939 139.513 8.60877C139.513 9.98034 139.985 11.2316 140.954 12.3143C141.898 13.3972 143.24 13.9505 144.929 13.9505C145.699 13.9505 146.395 13.8543 146.991 13.6137C147.587 13.3972 148.134 13.0602 148.63 12.6271C149.127 12.1939 149.55 11.6165 149.922 10.8946ZM148.034 5.88965C148.357 6.32277 148.63 6.87627 148.804 7.57409H141.053C141.327 6.63568 141.724 5.91376 142.271 5.45653C143.016 4.80692 143.885 4.49401 144.904 4.49401C145.525 4.49401 146.096 4.61438 146.668 4.87908C147.239 5.11967 147.686 5.48063 148.034 5.88965Z" fill="white"/>
<path d="M10.8668 22.5352L7.51367 18.1941V6.4375H26.8309L23.9152 10.029H10.8668" fill="white"/>
<path d="M16.6343 34.3418C7.44633 34.3418 0 26.7896 0 17.5281V0H21.5312L18.5021 3.52083H3.48337V17.5281C3.48337 24.8505 9.38992 30.8208 16.6343 30.8208C23.8787 30.8208 29.7852 24.8505 29.7852 17.5281V17.1964H17.6693L14.2111 13.6755H33.2687V17.5281C33.2687 26.7896 25.8223 34.3418 16.6343 34.3418Z" fill="white"/>
</svg>
