<svg width="143" height="31" viewBox="0 0 143 31" fill="none" xmlns="http://www.w3.org/2000/svg">
<path fill-rule="evenodd" clip-rule="evenodd" d="M138.461 12.0586C137.777 12.0586 137.221 12.5972 137.221 13.2567C137.221 13.9292 137.777 14.4678 138.461 14.4678C139.14 14.4678 139.694 13.9292 139.694 13.2567C139.694 12.5972 139.143 12.0586 138.461 12.0586ZM138.461 14.234C137.903 14.234 137.457 13.8058 137.457 13.2567C137.457 12.7233 137.903 12.2924 138.461 12.2951C139.014 12.2951 139.46 12.7233 139.46 13.2567C139.46 13.8084 139.014 14.234 138.461 14.234ZM139.077 13.9345H138.841L138.445 13.3118H138.204V13.9345H138V12.5867H138.603C138.718 12.5867 138.834 12.5946 138.941 12.6524C139.043 12.7102 139.093 12.831 139.093 12.9414C139.093 13.2067 138.902 13.3066 138.658 13.3145L139.077 13.9345ZM138.495 13.1471C138.473 13.1467 138.451 13.1463 138.43 13.1463L138.202 13.1489V12.7417H138.561C138.734 12.7417 138.889 12.7654 138.889 12.9388C138.889 13.1543 138.678 13.1505 138.495 13.1471Z" fill="white"/>
<path fill-rule="evenodd" clip-rule="evenodd" d="M140.623 5.81849C139.418 5.87085 138.475 6.81332 138.528 8.01758V8.1223C138.58 9.32658 139.523 10.2691 140.728 10.2167C141.933 10.1643 142.876 9.22188 142.824 8.01758V7.91286C142.771 6.7086 141.828 5.76613 140.623 5.81849ZM140.676 6.13265C141.724 6.13265 142.509 6.9704 142.509 8.01758C142.562 9.06477 141.724 9.90248 140.676 9.90248C139.628 9.90248 138.79 9.06477 138.79 8.01758C138.79 6.9704 139.628 6.13265 140.676 6.13265ZM139.785 6.86568H140.78C141.252 6.86568 141.619 7.07511 141.619 7.54635C141.619 7.8605 141.409 8.1223 141.095 8.22702L141.671 9.06477H141.147L140.623 8.33174H140.152V9.06477H139.733L139.785 6.86568ZM141.147 7.54635C141.147 7.75579 140.99 7.91286 140.728 7.91286H140.204V7.17983H140.728C140.99 7.17983 141.147 7.33691 141.147 7.54635Z" fill="white"/>
<path d="M17.0802 5.71282C16.5038 4.92744 15.7179 4.35148 14.7749 3.98497C12.8887 3.25194 10.793 3.25194 8.90685 4.03733C8.01617 4.4562 7.17788 5.03216 6.49677 5.76519C5.81565 6.49822 5.29172 7.38832 4.92497 8.33079C4.55822 9.32557 4.40104 10.4252 4.40104 11.4724C4.40104 12.6243 4.55822 13.7762 4.92497 14.8234C5.23933 15.7658 5.76326 16.6559 6.44437 17.389C7.12549 18.122 7.91138 18.698 8.80207 19.0645C9.79754 19.4833 10.8454 19.6928 11.9456 19.6404C13.0459 19.6404 14.0937 19.431 15.0892 18.9598C15.9799 18.5409 16.7134 17.8602 17.2897 17.0748L20.4333 19.2739C19.4379 20.4782 18.2328 21.4206 16.8182 22.1013C15.2464 22.8343 13.5698 23.1485 11.8408 23.1485C10.2166 23.1485 8.59249 22.8867 7.07309 22.3108C4.24386 21.2112 1.99094 19.0121 0.890688 16.2371C0.314358 14.7187 0 13.1479 0 11.5247C0 9.90157 0.314362 8.27843 0.943078 6.76001C1.51941 5.39867 2.41009 4.14205 3.45796 3.09486C4.55821 2.04768 5.86805 1.26229 7.28266 0.791054C8.80207 0.267464 10.4262 -0.0466905 12.0504 0.00566848C12.7839 0.00566848 13.5174 0.0580265 14.2509 0.215104C15.0368 0.372184 15.7703 0.581625 16.4514 0.843414C17.1325 1.10521 17.8137 1.47172 18.4424 1.8906C19.0187 2.30947 19.5426 2.7807 20.0142 3.35666L17.0802 5.71282Z" fill="white"/>
<path fill-rule="evenodd" clip-rule="evenodd" d="M21.9022 11.8389C21.4831 12.8861 21.2735 13.9856 21.2735 15.0852C21.2211 16.1847 21.4307 17.2319 21.8498 18.2267C22.6881 20.164 24.2599 21.6824 26.1985 22.4155C28.2942 23.2009 30.5471 23.2009 32.5904 22.4155C33.5859 22.049 34.4766 21.5254 35.2101 20.7923C35.9436 20.0593 36.5199 19.2216 36.9391 18.2791C37.8298 16.1847 37.8298 13.8809 36.9391 11.7865C36.5199 10.8964 35.9436 10.0063 35.2101 9.32567C34.4242 8.64495 33.5335 8.12136 32.5904 7.75485C30.4947 7.02182 28.2418 7.02182 26.1985 7.75485C24.2599 8.48788 22.7405 9.95397 21.9022 11.8389ZM25.3078 16.813C25.1506 16.2894 25.0458 15.6611 25.0458 15.0852C25.0458 14.4569 25.1506 13.8286 25.3078 13.305C25.465 12.7814 25.7269 12.2578 26.0937 11.7865C26.4604 11.3153 26.932 10.9488 27.4559 10.687C28.6609 10.111 30.128 10.111 31.333 10.687C31.9093 10.9488 32.3809 11.3677 32.7476 11.8389C33.1144 12.2578 33.3763 12.7814 33.5335 13.3573C33.6907 13.9333 33.7955 14.5092 33.7955 15.0852C33.7955 15.6611 33.6907 16.2371 33.5335 16.813C33.3763 17.389 33.062 17.9126 32.6952 18.3838C32.3285 18.8027 31.8569 19.2216 31.333 19.4834C30.128 20.0593 28.6609 20.0593 27.4559 19.4834C26.932 19.2216 26.4604 18.855 26.0937 18.3838C25.7269 17.9126 25.465 17.389 25.3078 16.813Z" fill="white"/>
<path d="M39.6094 7.64922H43.2246V10.1101H43.277C43.6961 9.27238 44.2724 8.53932 45.0059 8.01573C45.7918 7.49214 46.6825 7.17798 47.6256 7.17798H48.0971C48.2543 7.17798 48.4115 7.23034 48.5163 7.23034V10.6861C48.3067 10.6337 48.0971 10.5814 47.8876 10.5814C47.7304 10.5814 47.5208 10.5814 47.3636 10.5814C46.6301 10.529 45.8966 10.6861 45.2679 11.0526C44.7964 11.3144 44.3772 11.7333 44.0629 12.2045C43.8009 12.6234 43.5913 13.0422 43.4865 13.5658C43.3817 13.9324 43.3294 14.2465 43.3294 14.613V22.624H39.6094V7.64922Z" fill="white"/>
<path fill-rule="evenodd" clip-rule="evenodd" d="M64.2354 15.7659V15.2947C64.2354 14.0904 64.0782 12.8861 63.7639 11.6295C63.4496 10.687 62.9255 9.84928 62.2444 9.11624C61.6157 8.43556 60.8299 7.91197 59.9391 7.59782C59.0484 7.2313 58.0531 7.07422 57.0575 7.07422C55.9573 7.07422 54.9095 7.28366 53.9139 7.65018C51.9753 8.38321 50.456 9.90158 49.7225 11.8389C49.3034 12.8861 49.0938 14.038 49.0938 15.1376C49.0938 16.2895 49.3034 17.389 49.7225 18.4362C50.0893 19.3787 50.6655 20.2164 51.399 20.8971C52.1326 21.5778 52.9708 22.1014 53.9139 22.4679C54.9095 22.8344 56.0097 22.9915 57.11 22.9915C59.6249 23.1485 62.0349 21.9966 63.5543 20.007L61.0394 18.0173C60.6726 18.5933 60.0964 19.0645 59.4677 19.431C58.7341 19.7976 57.9482 19.9546 57.11 19.9546C56.5859 19.9546 56.062 19.9023 55.5381 19.6928C55.0142 19.4834 54.595 19.2216 54.176 18.9074C53.8092 18.5933 53.4948 18.1744 53.2329 17.7555C52.9708 17.3367 52.8661 16.8131 52.8136 16.2895H64.2354V15.7659ZM60.2535 12.2578C60.4108 12.6767 60.463 13.1479 60.463 13.6192L52.7613 13.6715C52.8137 12.6243 53.2853 11.6819 54.0711 11.0535C54.857 10.3729 55.9049 10.0064 56.9528 10.0064C57.4767 10.0064 58.0531 10.1111 58.5245 10.3205C59.3629 10.6347 59.9916 11.3677 60.2535 12.2578Z" fill="white"/>
<path d="M66.9062 0.529297H70.8358V19.1692H80.2666V22.6773H66.9062V0.529297Z" fill="white"/>
<path fill-rule="evenodd" clip-rule="evenodd" d="M81.5232 11.8393C81.1041 12.8865 80.8945 13.986 80.8945 15.0856C80.8945 16.1851 81.1041 17.337 81.5232 18.4365C81.9424 19.379 82.5187 20.2168 83.2522 20.9498C83.9857 21.6305 84.8764 22.2064 85.8195 22.5729C87.8628 23.3583 90.1681 23.3583 92.2114 22.5729C94.2024 21.8399 95.7742 20.3215 96.5601 18.3842C97.3984 16.2898 97.3984 13.986 96.5601 11.8916C95.7218 10.0067 94.15 8.48826 92.2114 7.80759C90.1157 7.07455 87.8628 7.07455 85.8195 7.80759C84.8764 8.12174 83.9857 8.6977 83.2522 9.37838C82.5187 10.0591 81.9424 10.8968 81.5232 11.8393ZM84.9812 16.8134C84.824 16.2898 84.7192 15.6615 84.7192 15.0856C84.7192 14.4572 84.7716 13.8813 84.9812 13.3053C85.1384 12.7817 85.4003 12.2582 85.7671 11.7869C86.1338 11.3157 86.6054 10.9492 87.1293 10.6874C88.3343 10.1114 89.8014 10.1114 91.0064 10.6874C91.5827 10.9492 92.0019 11.368 92.3686 11.8393C92.7354 12.2582 92.9973 12.7817 93.1545 13.3577C93.3117 13.9336 93.4165 14.5096 93.4165 15.0856C93.4165 15.6615 93.3117 16.2375 93.1545 16.8134C92.9973 17.3894 92.7354 17.913 92.3686 18.3842C92.0019 18.8031 91.5303 19.2219 91.0064 19.4837C89.8014 20.0597 88.3343 20.0597 87.1293 19.4837C86.6054 19.2219 86.1338 18.8554 85.7671 18.3842C85.4003 17.913 85.1384 17.3894 84.9812 16.8134Z" fill="white"/>
<path fill-rule="evenodd" clip-rule="evenodd" d="M115.162 21.2624V7.64896L111.494 7.5966V9.84807H111.442C110.918 8.95794 110.185 8.22491 109.241 7.80604C108.298 7.38717 107.303 7.17773 106.255 7.17773C105.207 7.17773 104.159 7.38717 103.216 7.80604C102.326 8.17255 101.54 8.74851 100.911 9.48157C100.282 10.2146 99.7579 11.0523 99.4438 11.9948C99.0771 12.9373 98.9199 13.9845 98.9199 15.0317C98.9199 16.0788 99.0771 17.126 99.4438 18.0685C99.8109 18.9586 100.335 19.7963 100.963 20.5294C101.644 21.2624 102.43 21.8384 103.321 22.2049C104.264 22.6237 105.312 22.8332 106.36 22.8332C107.355 22.8332 108.298 22.6761 109.189 22.2572C110.027 21.8907 110.761 21.3148 111.285 20.5817H111.337V21.7336C111.39 22.4143 111.285 23.1473 111.128 23.828C110.97 24.404 110.708 24.9799 110.342 25.4512C109.975 25.9224 109.451 26.2889 108.875 26.4983C108.141 26.7601 107.408 26.8649 106.622 26.8649C105.679 26.8649 104.736 26.7078 103.845 26.3413C102.954 25.9747 102.116 25.4512 101.382 24.7705L99.2342 27.7026C99.7579 28.1215 100.282 28.4356 100.859 28.7498C101.487 29.0639 102.116 29.3257 102.745 29.5352C103.373 29.7446 104.055 29.9017 104.736 30.0064C105.364 30.1111 106.045 30.1635 106.674 30.1635C107.932 30.2158 109.241 30.0064 110.446 29.5352C111.442 29.1687 112.385 28.5403 113.119 27.755C113.852 26.9172 114.376 25.9747 114.638 24.9276C115.005 23.7233 115.162 22.519 115.162 21.2624ZM105.364 10.6335C105.941 10.3717 106.569 10.267 107.198 10.267C107.774 10.267 108.403 10.3717 108.979 10.6858C109.503 10.9476 109.975 11.3141 110.394 11.733C110.813 12.1519 111.075 12.6755 111.285 13.2514C111.494 13.8274 111.599 14.4557 111.599 15.084C111.599 15.66 111.494 16.2883 111.285 16.8642C111.075 17.4402 110.813 17.9638 110.394 18.3826C109.556 19.2728 108.403 19.7963 107.146 19.7963C106.517 19.7963 105.941 19.6393 105.364 19.3775C104.84 19.1157 104.369 18.7492 104.002 18.3303C103.635 17.8591 103.373 17.3355 103.164 16.8119C102.954 16.2883 102.849 15.66 102.849 15.084C102.849 14.4033 102.954 13.775 103.164 13.1991C103.321 12.6231 103.635 12.0995 104.002 11.6807C104.369 11.2618 104.84 10.8953 105.364 10.6335Z" fill="white"/>
<path fill-rule="evenodd" clip-rule="evenodd" d="M117.519 0.946295C117.1 1.36518 116.838 1.94113 116.838 2.51708C116.838 3.14539 117.048 3.72134 117.519 4.08786C117.991 4.55908 118.619 4.76853 119.248 4.76853C119.877 4.82089 120.505 4.55908 120.977 4.14021L121.082 4.0355L121.134 3.98313C121.972 3.09302 121.868 1.73169 120.977 0.893935C120.505 0.475065 119.877 0.265625 119.248 0.265625C118.567 0.265625 117.991 0.475065 117.519 0.946295ZM121.134 22.6231V7.64828H117.362V22.6231H121.134Z" fill="white"/>
<path d="M134.387 11.8921C134.072 11.4208 133.601 11.0543 133.077 10.8449C132.501 10.5831 131.924 10.426 131.296 10.426C130.667 10.426 130.038 10.5307 129.462 10.8449C128.938 11.1067 128.519 11.4732 128.152 11.9444C127.785 12.4157 127.523 12.9393 127.366 13.4629C127.209 14.0388 127.104 14.6148 127.104 15.1907C127.104 15.7667 127.209 16.3426 127.366 16.9186C127.523 17.4945 127.785 18.0181 128.152 18.4894C128.886 19.4842 130.038 20.0601 131.296 20.0078C131.872 20.0078 132.501 19.9031 133.025 19.6413C133.601 19.4318 134.072 19.0653 134.439 18.5941L136.849 21.055C136.168 21.7356 135.382 22.2592 134.439 22.6257C133.444 22.9923 132.343 23.2017 131.296 23.1493C130.248 23.1493 129.148 22.9923 128.152 22.6257C126.213 21.9451 124.642 20.479 123.803 18.5941C123.384 17.5469 123.122 16.395 123.175 15.2431C123.175 14.1435 123.384 12.9916 123.803 11.9444C124.223 11.002 124.799 10.1642 125.532 9.43117C126.266 8.75049 127.157 8.17454 128.1 7.86039C130.143 7.075 132.396 7.12736 134.387 7.91275C135.33 8.27926 136.168 8.85521 136.849 9.64057L134.387 11.8921Z" fill="white"/>
</svg>
