<svg width="31" height="31" viewBox="0 0 31 31" fill="none" xmlns="http://www.w3.org/2000/svg">
<path fill-rule="evenodd" clip-rule="evenodd" d="M15.5 31C13.3817 31 11.3796 30.5931 9.49375 29.7794C7.60792 28.9656 5.96104 27.8548 4.55312 26.4469C3.14521 25.039 2.03438 23.3921 1.22063 21.5063C0.406875 19.6204 0 17.6183 0 15.5C0 13.3558 0.406875 11.3408 1.22063 9.455C2.03438 7.56917 3.14521 5.92875 4.55312 4.53375C5.96104 3.13875 7.60792 2.03438 9.49375 1.22063C11.3796 0.406875 13.3817 0 15.5 0C17.6442 0 19.6592 0.406875 21.545 1.22063C23.4308 2.03438 25.0712 3.13875 26.4662 4.53375C27.8612 5.92875 28.9656 7.56917 29.7794 9.455C30.5931 11.3408 31 13.3558 31 15.5C31 17.6183 30.5931 19.6204 29.7794 21.5063C28.9656 23.3921 27.8612 25.039 26.4662 26.4469C25.0712 27.8548 23.4308 28.9656 21.545 29.7794C19.6592 30.5931 17.6442 31 15.5 31ZM15.5 21.1575L21.1575 15.5L15.5 9.8425L13.8725 11.47L16.74 14.3375H9.6875V16.6625H16.74L13.8725 19.53L15.5 21.1575ZM24.8388 24.8194C22.2812 27.3898 19.1683 28.675 15.5 28.675C11.8575 28.675 8.75104 27.3898 6.18062 24.8194C3.61021 22.249 2.325 19.1425 2.325 15.5C2.325 11.8317 3.61021 8.71875 6.18062 6.16125C8.75104 3.60375 11.8575 2.325 15.5 2.325C19.1683 2.325 22.2812 3.60375 24.8388 6.16125C27.3962 8.71875 28.675 11.8317 28.675 15.5C28.675 19.1425 27.3962 22.249 24.8388 24.8194Z" fill="white"/>
</svg>
