<svg width="137" height="178" viewBox="0 0 137 178" fill="none" xmlns="http://www.w3.org/2000/svg">
<path opacity="0.0985006" fill-rule="evenodd" clip-rule="evenodd" d="M-126.615 5.18834C-126.615 8.05378 -128.94 10.3767 -131.808 10.3767C-134.675 10.3767 -137 8.05378 -137 5.18834C-137 2.3229 -134.675 0 -131.808 0C-128.94 0 -126.615 2.3229 -126.615 5.18834ZM-131.808 34.3229C-128.94 34.3229 -126.615 32 -126.615 29.1345C-126.615 26.2691 -128.94 23.9462 -131.808 23.9462C-134.675 23.9462 -137 26.2691 -137 29.1345C-137 32 -134.675 34.3229 -131.808 34.3229ZM-107.843 34.3229C-104.975 34.3229 -102.65 32 -102.65 29.1345C-102.65 26.2691 -104.975 23.9462 -107.843 23.9462C-110.71 23.9462 -113.035 26.2691 -113.035 29.1345C-113.035 32 -110.71 34.3229 -107.843 34.3229ZM-78.6851 29.1345C-78.6851 32 -81.0099 34.3229 -83.8775 34.3229C-86.7452 34.3229 -89.07 32 -89.07 29.1345C-89.07 26.2691 -86.7452 23.9462 -83.8775 23.9462C-81.0099 23.9462 -78.6851 26.2691 -78.6851 29.1345ZM-59.9125 34.3229C-57.0448 34.3229 -54.7201 32 -54.7201 29.1345C-54.7201 26.2691 -57.0448 23.9462 -59.9125 23.9462C-62.7802 23.9462 -65.105 26.2691 -65.105 29.1345C-65.105 32 -62.7802 34.3229 -59.9125 34.3229ZM-30.7551 29.1345C-30.7551 32 -33.0798 34.3229 -35.9475 34.3229C-38.8152 34.3229 -41.1399 32 -41.1399 29.1345C-41.1399 26.2691 -38.8152 23.9462 -35.9475 23.9462C-33.0798 23.9462 -30.7551 26.2691 -30.7551 29.1345ZM-11.9825 34.3229C-9.11481 34.3229 -6.79008 32 -6.79008 29.1345C-6.79008 26.2691 -9.11481 23.9462 -11.9825 23.9462C-14.8502 23.9462 -17.1749 26.2691 -17.1749 29.1345C-17.1749 32 -14.8502 34.3229 -11.9825 34.3229ZM17.1749 29.1345C17.1749 32 14.8502 34.3229 11.9825 34.3229C9.11481 34.3229 6.79008 32 6.79008 29.1345C6.79008 26.2691 9.11481 23.9462 11.9825 23.9462C14.8502 23.9462 17.1749 26.2691 17.1749 29.1345ZM35.9475 34.3229C38.8152 34.3229 41.1399 32 41.1399 29.1345C41.1399 26.2691 38.8152 23.9462 35.9475 23.9462C33.0798 23.9462 30.7551 26.2691 30.7551 29.1345C30.7551 32 33.0798 34.3229 35.9475 34.3229ZM65.105 29.1345C65.105 32 62.7802 34.3229 59.9125 34.3229C57.0448 34.3229 54.7201 32 54.7201 29.1345C54.7201 26.2691 57.0448 23.9462 59.9125 23.9462C62.7802 23.9462 65.105 26.2691 65.105 29.1345ZM83.8775 34.3229C86.7453 34.3229 89.07 32 89.07 29.1345C89.07 26.2691 86.7453 23.9462 83.8775 23.9462C81.0099 23.9462 78.6851 26.2691 78.6851 29.1345C78.6851 32 81.0099 34.3229 83.8775 34.3229ZM113.035 29.1345C113.035 32 110.71 34.3229 107.843 34.3229C104.975 34.3229 102.65 32 102.65 29.1345C102.65 26.2691 104.975 23.9462 107.843 23.9462C110.71 23.9462 113.035 26.2691 113.035 29.1345ZM131.808 34.3229C134.675 34.3229 137 32 137 29.1345C137 26.2691 134.675 23.9462 131.808 23.9462C128.94 23.9462 126.615 26.2691 126.615 29.1345C126.615 32 128.94 34.3229 131.808 34.3229ZM-126.615 53.0807C-126.615 55.9462 -128.94 58.2691 -131.808 58.2691C-134.675 58.2691 -137 55.9462 -137 53.0807C-137 50.2153 -134.675 47.8924 -131.808 47.8924C-128.94 47.8924 -126.615 50.2153 -126.615 53.0807ZM-102.65 53.0807C-102.65 55.9462 -104.975 58.2691 -107.843 58.2691C-110.71 58.2691 -113.035 55.9462 -113.035 53.0807C-113.035 50.2153 -110.71 47.8924 -107.843 47.8924C-104.975 47.8924 -102.65 50.2153 -102.65 53.0807ZM-83.8775 58.2691C-81.0099 58.2691 -78.6851 55.9462 -78.6851 53.0807C-78.6851 50.2153 -81.0099 47.8924 -83.8775 47.8924C-86.7452 47.8924 -89.07 50.2153 -89.07 53.0807C-89.07 55.9462 -86.7452 58.2691 -83.8775 58.2691ZM-54.7201 53.0807C-54.7201 55.9462 -57.0448 58.2691 -59.9125 58.2691C-62.7802 58.2691 -65.105 55.9462 -65.105 53.0807C-65.105 50.2153 -62.7802 47.8924 -59.9125 47.8924C-57.0448 47.8924 -54.7201 50.2153 -54.7201 53.0807ZM-35.9475 58.2691C-33.0798 58.2691 -30.7551 55.9462 -30.7551 53.0807C-30.7551 50.2153 -33.0798 47.8924 -35.9475 47.8924C-38.8152 47.8924 -41.1399 50.2153 -41.1399 53.0807C-41.1399 55.9462 -38.8152 58.2691 -35.9475 58.2691ZM-6.79008 53.0807C-6.79008 55.9462 -9.11481 58.2691 -11.9825 58.2691C-14.8502 58.2691 -17.1749 55.9462 -17.1749 53.0807C-17.1749 50.2153 -14.8502 47.8924 -11.9825 47.8924C-9.11481 47.8924 -6.79008 50.2153 -6.79008 53.0807ZM11.9825 58.2691C14.8502 58.2691 17.1749 55.9462 17.1749 53.0807C17.1749 50.2153 14.8502 47.8924 11.9825 47.8924C9.11481 47.8924 6.79008 50.2153 6.79008 53.0807C6.79008 55.9462 9.11481 58.2691 11.9825 58.2691ZM41.1399 53.0807C41.1399 55.9462 38.8152 58.2691 35.9475 58.2691C33.0798 58.2691 30.7551 55.9462 30.7551 53.0807C30.7551 50.2153 33.0798 47.8924 35.9475 47.8924C38.8152 47.8924 41.1399 50.2153 41.1399 53.0807ZM59.9125 58.2691C62.7802 58.2691 65.105 55.9462 65.105 53.0807C65.105 50.2153 62.7802 47.8924 59.9125 47.8924C57.0448 47.8924 54.7201 50.2153 54.7201 53.0807C54.7201 55.9462 57.0448 58.2691 59.9125 58.2691ZM89.07 53.0807C89.07 55.9462 86.7453 58.2691 83.8775 58.2691C81.0099 58.2691 78.6851 55.9462 78.6851 53.0807C78.6851 50.2153 81.0099 47.8924 83.8775 47.8924C86.7453 47.8924 89.07 50.2153 89.07 53.0807ZM107.843 58.2691C110.71 58.2691 113.035 55.9462 113.035 53.0807C113.035 50.2153 110.71 47.8924 107.843 47.8924C104.975 47.8924 102.65 50.2153 102.65 53.0807C102.65 55.9462 104.975 58.2691 107.843 58.2691ZM137 53.0807C137 55.9462 134.675 58.2691 131.808 58.2691C128.94 58.2691 126.615 55.9462 126.615 53.0807C126.615 50.2153 128.94 47.8924 131.808 47.8924C134.675 47.8924 137 50.2153 137 53.0807ZM-102.65 5.18834C-102.65 8.05378 -104.975 10.3767 -107.843 10.3767C-110.71 10.3767 -113.035 8.05378 -113.035 5.18834C-113.035 2.3229 -110.71 0 -107.843 0C-104.975 0 -102.65 2.3229 -102.65 5.18834ZM-126.615 77.0269C-126.615 79.8923 -128.94 82.2152 -131.808 82.2152C-134.675 82.2152 -137 79.8923 -137 77.0269C-137 74.1615 -134.675 71.8386 -131.808 71.8386C-128.94 71.8386 -126.615 74.1615 -126.615 77.0269ZM-102.65 77.0269C-102.65 79.8923 -104.975 82.2152 -107.843 82.2152C-110.71 82.2152 -113.035 79.8923 -113.035 77.0269C-113.035 74.1615 -110.71 71.8386 -107.843 71.8386C-104.975 71.8386 -102.65 74.1615 -102.65 77.0269ZM-83.8775 82.2152C-81.0099 82.2152 -78.6851 79.8923 -78.6851 77.0269C-78.6851 74.1615 -81.0099 71.8386 -83.8775 71.8386C-86.7452 71.8386 -89.07 74.1615 -89.07 77.0269C-89.07 79.8923 -86.7452 82.2152 -83.8775 82.2152ZM-54.7201 77.0269C-54.7201 79.8923 -57.0448 82.2152 -59.9125 82.2152C-62.7802 82.2152 -65.105 79.8923 -65.105 77.0269C-65.105 74.1615 -62.7802 71.8386 -59.9125 71.8386C-57.0448 71.8386 -54.7201 74.1615 -54.7201 77.0269ZM-35.9475 82.2152C-33.0798 82.2152 -30.7551 79.8923 -30.7551 77.0269C-30.7551 74.1615 -33.0798 71.8386 -35.9475 71.8386C-38.8152 71.8386 -41.1399 74.1615 -41.1399 77.0269C-41.1399 79.8923 -38.8152 82.2152 -35.9475 82.2152ZM-6.79008 77.0269C-6.79008 79.8923 -9.11481 82.2152 -11.9825 82.2152C-14.8502 82.2152 -17.1749 79.8923 -17.1749 77.0269C-17.1749 74.1615 -14.8502 71.8386 -11.9825 71.8386C-9.11481 71.8386 -6.79008 74.1615 -6.79008 77.0269ZM11.9825 82.2152C14.8502 82.2152 17.1749 79.8923 17.1749 77.0269C17.1749 74.1615 14.8502 71.8386 11.9825 71.8386C9.11481 71.8386 6.79008 74.1615 6.79008 77.0269C6.79008 79.8923 9.11481 82.2152 11.9825 82.2152ZM41.1399 77.0269C41.1399 79.8923 38.8152 82.2152 35.9475 82.2152C33.0798 82.2152 30.7551 79.8923 30.7551 77.0269C30.7551 74.1615 33.0798 71.8386 35.9475 71.8386C38.8152 71.8386 41.1399 74.1615 41.1399 77.0269ZM59.9125 82.2152C62.7802 82.2152 65.105 79.8923 65.105 77.0269C65.105 74.1615 62.7802 71.8386 59.9125 71.8386C57.0448 71.8386 54.7201 74.1615 54.7201 77.0269C54.7201 79.8923 57.0448 82.2152 59.9125 82.2152ZM89.07 77.0269C89.07 79.8923 86.7453 82.2152 83.8775 82.2152C81.0099 82.2152 78.6851 79.8923 78.6851 77.0269C78.6851 74.1615 81.0099 71.8386 83.8775 71.8386C86.7453 71.8386 89.07 74.1615 89.07 77.0269ZM107.843 82.2152C110.71 82.2152 113.035 79.8923 113.035 77.0269C113.035 74.1615 110.71 71.8386 107.843 71.8386C104.975 71.8386 102.65 74.1615 102.65 77.0269C102.65 79.8923 104.975 82.2152 107.843 82.2152ZM137 77.0269C137 79.8923 134.675 82.2152 131.808 82.2152C128.94 82.2152 126.615 79.8923 126.615 77.0269C126.615 74.1615 128.94 71.8386 131.808 71.8386C134.675 71.8386 137 74.1615 137 77.0269ZM-78.6851 5.18834C-78.6851 8.05378 -81.0099 10.3767 -83.8775 10.3767C-86.7452 10.3767 -89.07 8.05378 -89.07 5.18834C-89.07 2.3229 -86.7452 0 -83.8775 0C-81.0099 0 -78.6851 2.3229 -78.6851 5.18834ZM-126.615 100.973C-126.615 103.839 -128.94 106.161 -131.808 106.161C-134.675 106.161 -137 103.839 -137 100.973C-137 98.1077 -134.675 95.7848 -131.808 95.7848C-128.94 95.7848 -126.615 98.1077 -126.615 100.973ZM-102.65 100.973C-102.65 103.839 -104.975 106.161 -107.843 106.161C-110.71 106.161 -113.035 103.839 -113.035 100.973C-113.035 98.1077 -110.71 95.7848 -107.843 95.7848C-104.975 95.7848 -102.65 98.1077 -102.65 100.973ZM-83.8775 106.161C-81.0099 106.161 -78.6851 103.839 -78.6851 100.973C-78.6851 98.1077 -81.0099 95.7848 -83.8775 95.7848C-86.7452 95.7848 -89.07 98.1077 -89.07 100.973C-89.07 103.839 -86.7452 106.161 -83.8775 106.161ZM-54.7201 100.973C-54.7201 103.839 -57.0448 106.161 -59.9125 106.161C-62.7802 106.161 -65.105 103.839 -65.105 100.973C-65.105 98.1077 -62.7802 95.7848 -59.9125 95.7848C-57.0448 95.7848 -54.7201 98.1077 -54.7201 100.973ZM-35.9475 106.161C-33.0798 106.161 -30.7551 103.839 -30.7551 100.973C-30.7551 98.1077 -33.0798 95.7848 -35.9475 95.7848C-38.8152 95.7848 -41.1399 98.1077 -41.1399 100.973C-41.1399 103.839 -38.8152 106.161 -35.9475 106.161ZM-6.79008 100.973C-6.79008 103.839 -9.11481 106.161 -11.9825 106.161C-14.8502 106.161 -17.1749 103.839 -17.1749 100.973C-17.1749 98.1077 -14.8502 95.7848 -11.9825 95.7848C-9.11481 95.7848 -6.79008 98.1077 -6.79008 100.973ZM11.9825 106.161C14.8502 106.161 17.1749 103.839 17.1749 100.973C17.1749 98.1077 14.8502 95.7848 11.9825 95.7848C9.11481 95.7848 6.79008 98.1077 6.79008 100.973C6.79008 103.839 9.11481 106.161 11.9825 106.161ZM41.1399 100.973C41.1399 103.839 38.8152 106.161 35.9475 106.161C33.0798 106.161 30.7551 103.839 30.7551 100.973C30.7551 98.1077 33.0798 95.7848 35.9475 95.7848C38.8152 95.7848 41.1399 98.1077 41.1399 100.973ZM59.9125 106.161C62.7802 106.161 65.105 103.839 65.105 100.973C65.105 98.1077 62.7802 95.7848 59.9125 95.7848C57.0448 95.7848 54.7201 98.1077 54.7201 100.973C54.7201 103.839 57.0448 106.161 59.9125 106.161ZM89.07 100.973C89.07 103.839 86.7453 106.161 83.8775 106.161C81.0099 106.161 78.6851 103.839 78.6851 100.973C78.6851 98.1077 81.0099 95.7848 83.8775 95.7848C86.7453 95.7848 89.07 98.1077 89.07 100.973ZM107.843 106.161C110.71 106.161 113.035 103.839 113.035 100.973C113.035 98.1077 110.71 95.7848 107.843 95.7848C104.975 95.7848 102.65 98.1077 102.65 100.973C102.65 103.839 104.975 106.161 107.843 106.161ZM137 100.973C137 103.839 134.675 106.161 131.808 106.161C128.94 106.161 126.615 103.839 126.615 100.973C126.615 98.1077 128.94 95.7848 131.808 95.7848C134.675 95.7848 137 98.1077 137 100.973ZM-54.7201 5.18834C-54.7201 8.05378 -57.0448 10.3767 -59.9125 10.3767C-62.7802 10.3767 -65.105 8.05378 -65.105 5.18834C-65.105 2.3229 -62.7802 0 -59.9125 0C-57.0448 0 -54.7201 2.3229 -54.7201 5.18834ZM-126.615 124.919C-126.615 127.785 -128.94 130.108 -131.808 130.108C-134.675 130.108 -137 127.785 -137 124.919C-137 122.054 -134.675 119.731 -131.808 119.731C-128.94 119.731 -126.615 122.054 -126.615 124.919ZM-102.65 124.919C-102.65 127.785 -104.975 130.108 -107.843 130.108C-110.71 130.108 -113.035 127.785 -113.035 124.919C-113.035 122.054 -110.71 119.731 -107.843 119.731C-104.975 119.731 -102.65 122.054 -102.65 124.919ZM-83.8775 130.108C-81.0099 130.108 -78.6851 127.785 -78.6851 124.919C-78.6851 122.054 -81.0099 119.731 -83.8775 119.731C-86.7452 119.731 -89.07 122.054 -89.07 124.919C-89.07 127.785 -86.7452 130.108 -83.8775 130.108ZM-54.7201 124.919C-54.7201 127.785 -57.0448 130.108 -59.9125 130.108C-62.7802 130.108 -65.105 127.785 -65.105 124.919C-65.105 122.054 -62.7802 119.731 -59.9125 119.731C-57.0448 119.731 -54.7201 122.054 -54.7201 124.919ZM-35.9475 130.108C-33.0798 130.108 -30.7551 127.785 -30.7551 124.919C-30.7551 122.054 -33.0798 119.731 -35.9475 119.731C-38.8152 119.731 -41.1399 122.054 -41.1399 124.919C-41.1399 127.785 -38.8152 130.108 -35.9475 130.108ZM-6.79008 124.919C-6.79008 127.785 -9.11481 130.108 -11.9825 130.108C-14.8502 130.108 -17.1749 127.785 -17.1749 124.919C-17.1749 122.054 -14.8502 119.731 -11.9825 119.731C-9.11481 119.731 -6.79008 122.054 -6.79008 124.919ZM11.9825 130.108C14.8502 130.108 17.1749 127.785 17.1749 124.919C17.1749 122.054 14.8502 119.731 11.9825 119.731C9.11481 119.731 6.79008 122.054 6.79008 124.919C6.79008 127.785 9.11481 130.108 11.9825 130.108ZM41.1399 124.919C41.1399 127.785 38.8152 130.108 35.9475 130.108C33.0798 130.108 30.7551 127.785 30.7551 124.919C30.7551 122.054 33.0798 119.731 35.9475 119.731C38.8152 119.731 41.1399 122.054 41.1399 124.919ZM59.9125 130.108C62.7802 130.108 65.105 127.785 65.105 124.919C65.105 122.054 62.7802 119.731 59.9125 119.731C57.0448 119.731 54.7201 122.054 54.7201 124.919C54.7201 127.785 57.0448 130.108 59.9125 130.108ZM89.07 124.919C89.07 127.785 86.7453 130.108 83.8775 130.108C81.0099 130.108 78.6851 127.785 78.6851 124.919C78.6851 122.054 81.0099 119.731 83.8775 119.731C86.7453 119.731 89.07 122.054 89.07 124.919ZM107.843 130.108C110.71 130.108 113.035 127.785 113.035 124.919C113.035 122.054 110.71 119.731 107.843 119.731C104.975 119.731 102.65 122.054 102.65 124.919C102.65 127.785 104.975 130.108 107.843 130.108ZM137 124.919C137 127.785 134.675 130.108 131.808 130.108C128.94 130.108 126.615 127.785 126.615 124.919C126.615 122.054 128.94 119.731 131.808 119.731C134.675 119.731 137 122.054 137 124.919ZM-30.7551 5.18834C-30.7551 8.05378 -33.0798 10.3767 -35.9475 10.3767C-38.8152 10.3767 -41.1399 8.05378 -41.1399 5.18834C-41.1399 2.3229 -38.8152 0 -35.9475 0C-33.0798 0 -30.7551 2.3229 -30.7551 5.18834ZM-126.615 148.865C-126.615 151.731 -128.94 154.054 -131.808 154.054C-134.675 154.054 -137 151.731 -137 148.865C-137 146 -134.675 143.677 -131.808 143.677C-128.94 143.677 -126.615 146 -126.615 148.865ZM-102.65 148.865C-102.65 151.731 -104.975 154.054 -107.843 154.054C-110.71 154.054 -113.035 151.731 -113.035 148.865C-113.035 146 -110.71 143.677 -107.843 143.677C-104.975 143.677 -102.65 146 -102.65 148.865ZM-83.8775 154.054C-81.0099 154.054 -78.6851 151.731 -78.6851 148.865C-78.6851 146 -81.0099 143.677 -83.8775 143.677C-86.7452 143.677 -89.07 146 -89.07 148.865C-89.07 151.731 -86.7452 154.054 -83.8775 154.054ZM-54.7201 148.865C-54.7201 151.731 -57.0448 154.054 -59.9125 154.054C-62.7802 154.054 -65.105 151.731 -65.105 148.865C-65.105 146 -62.7802 143.677 -59.9125 143.677C-57.0448 143.677 -54.7201 146 -54.7201 148.865ZM-35.9475 154.054C-33.0798 154.054 -30.7551 151.731 -30.7551 148.865C-30.7551 146 -33.0798 143.677 -35.9475 143.677C-38.8152 143.677 -41.1399 146 -41.1399 148.865C-41.1399 151.731 -38.8152 154.054 -35.9475 154.054ZM-6.79008 148.865C-6.79008 151.731 -9.11481 154.054 -11.9825 154.054C-14.8502 154.054 -17.1749 151.731 -17.1749 148.865C-17.1749 146 -14.8502 143.677 -11.9825 143.677C-9.11481 143.677 -6.79008 146 -6.79008 148.865ZM11.9825 154.054C14.8502 154.054 17.1749 151.731 17.1749 148.865C17.1749 146 14.8502 143.677 11.9825 143.677C9.11481 143.677 6.79008 146 6.79008 148.865C6.79008 151.731 9.11481 154.054 11.9825 154.054ZM41.1399 148.865C41.1399 151.731 38.8152 154.054 35.9475 154.054C33.0798 154.054 30.7551 151.731 30.7551 148.865C30.7551 146 33.0798 143.677 35.9475 143.677C38.8152 143.677 41.1399 146 41.1399 148.865ZM59.9125 154.054C62.7802 154.054 65.105 151.731 65.105 148.865C65.105 146 62.7802 143.677 59.9125 143.677C57.0448 143.677 54.7201 146 54.7201 148.865C54.7201 151.731 57.0448 154.054 59.9125 154.054ZM89.07 148.865C89.07 151.731 86.7453 154.054 83.8775 154.054C81.0099 154.054 78.6851 151.731 78.6851 148.865C78.6851 146 81.0099 143.677 83.8775 143.677C86.7453 143.677 89.07 146 89.07 148.865ZM107.843 154.054C110.71 154.054 113.035 151.731 113.035 148.865C113.035 146 110.71 143.677 107.843 143.677C104.975 143.677 102.65 146 102.65 148.865C102.65 151.731 104.975 154.054 107.843 154.054ZM137 148.865C137 151.731 134.675 154.054 131.808 154.054C128.94 154.054 126.615 151.731 126.615 148.865C126.615 146 128.94 143.677 131.808 143.677C134.675 143.677 137 146 137 148.865ZM-6.79008 5.18834C-6.79008 8.05378 -9.11481 10.3767 -11.9825 10.3767C-14.8502 10.3767 -17.1749 8.05378 -17.1749 5.18834C-17.1749 2.3229 -14.8502 0 -11.9825 0C-9.11481 0 -6.79008 2.3229 -6.79008 5.18834ZM-126.615 172.812C-126.615 175.677 -128.94 178 -131.808 178C-134.675 178 -137 175.677 -137 172.812C-137 169.946 -134.675 167.623 -131.808 167.623C-128.94 167.623 -126.615 169.946 -126.615 172.812ZM-102.65 172.812C-102.65 175.677 -104.975 178 -107.843 178C-110.71 178 -113.035 175.677 -113.035 172.812C-113.035 169.946 -110.71 167.623 -107.843 167.623C-104.975 167.623 -102.65 169.946 -102.65 172.812ZM-83.8775 178C-81.0099 178 -78.6851 175.677 -78.6851 172.812C-78.6851 169.946 -81.0099 167.623 -83.8775 167.623C-86.7452 167.623 -89.07 169.946 -89.07 172.812C-89.07 175.677 -86.7452 178 -83.8775 178ZM-54.7201 172.812C-54.7201 175.677 -57.0448 178 -59.9125 178C-62.7802 178 -65.105 175.677 -65.105 172.812C-65.105 169.946 -62.7802 167.623 -59.9125 167.623C-57.0448 167.623 -54.7201 169.946 -54.7201 172.812ZM-35.9475 178C-33.0798 178 -30.7551 175.677 -30.7551 172.812C-30.7551 169.946 -33.0798 167.623 -35.9475 167.623C-38.8152 167.623 -41.1399 169.946 -41.1399 172.812C-41.1399 175.677 -38.8152 178 -35.9475 178ZM-6.79008 172.812C-6.79008 175.677 -9.11481 178 -11.9825 178C-14.8502 178 -17.1749 175.677 -17.1749 172.812C-17.1749 169.946 -14.8502 167.623 -11.9825 167.623C-9.11481 167.623 -6.79008 169.946 -6.79008 172.812ZM11.9825 178C14.8502 178 17.1749 175.677 17.1749 172.812C17.1749 169.946 14.8502 167.623 11.9825 167.623C9.11481 167.623 6.79008 169.946 6.79008 172.812C6.79008 175.677 9.11481 178 11.9825 178ZM41.1399 172.812C41.1399 175.677 38.8152 178 35.9475 178C33.0798 178 30.7551 175.677 30.7551 172.812C30.7551 169.946 33.0798 167.623 35.9475 167.623C38.8152 167.623 41.1399 169.946 41.1399 172.812ZM59.9125 178C62.7802 178 65.105 175.677 65.105 172.812C65.105 169.946 62.7802 167.623 59.9125 167.623C57.0448 167.623 54.7201 169.946 54.7201 172.812C54.7201 175.677 57.0448 178 59.9125 178ZM89.07 172.812C89.07 175.677 86.7453 178 83.8775 178C81.0099 178 78.6851 175.677 78.6851 172.812C78.6851 169.946 81.0099 167.623 83.8775 167.623C86.7453 167.623 89.07 169.946 89.07 172.812ZM107.843 178C110.71 178 113.035 175.677 113.035 172.812C113.035 169.946 110.71 167.623 107.843 167.623C104.975 167.623 102.65 169.946 102.65 172.812C102.65 175.677 104.975 178 107.843 178ZM137 172.812C137 175.677 134.675 178 131.808 178C128.94 178 126.615 175.677 126.615 172.812C126.615 169.946 128.94 167.623 131.808 167.623C134.675 167.623 137 169.946 137 172.812ZM17.1749 5.18834C17.1749 8.05378 14.8502 10.3767 11.9825 10.3767C9.11481 10.3767 6.79008 8.05378 6.79008 5.18834C6.79008 2.3229 9.11481 0 11.9825 0C14.8502 0 17.1749 2.3229 17.1749 5.18834ZM35.9475 10.3767C38.8152 10.3767 41.1399 8.05378 41.1399 5.18834C41.1399 2.3229 38.8152 0 35.9475 0C33.0798 0 30.7551 2.3229 30.7551 5.18834C30.7551 8.05378 33.0798 10.3767 35.9475 10.3767ZM65.105 5.18834C65.105 8.05378 62.7802 10.3767 59.9125 10.3767C57.0448 10.3767 54.7201 8.05378 54.7201 5.18834C54.7201 2.3229 57.0448 0 59.9125 0C62.7802 0 65.105 2.3229 65.105 5.18834ZM83.8775 10.3767C86.7453 10.3767 89.07 8.05378 89.07 5.18834C89.07 2.3229 86.7453 0 83.8775 0C81.0099 0 78.6851 2.3229 78.6851 5.18834C78.6851 8.05378 81.0099 10.3767 83.8775 10.3767ZM113.035 5.18834C113.035 8.05378 110.71 10.3767 107.843 10.3767C104.975 10.3767 102.65 8.05378 102.65 5.18834C102.65 2.3229 104.975 0 107.843 0C110.71 0 113.035 2.3229 113.035 5.18834ZM131.808 10.3767C134.675 10.3767 137 8.05378 137 5.18834C137 2.3229 134.675 0 131.808 0C128.94 0 126.615 2.3229 126.615 5.18834C126.615 8.05378 128.94 10.3767 131.808 10.3767Z" fill="white"/>
</svg>
