<svg width="276" height="180" viewBox="0 0 276 180" fill="none" xmlns="http://www.w3.org/2000/svg">
<g opacity="0.125193">
<mask id="path-1-outside-1_22_4" maskUnits="userSpaceOnUse" x="0" y="0" width="276" height="180" fill="black">
<rect fill="white" width="276" height="180"/>
<path fill-rule="evenodd" clip-rule="evenodd" d="M11.3848 6.18834C11.3848 9.05378 9.06011 11.3767 6.19242 11.3767C3.32473 11.3767 1 9.05378 1 6.18834C1 3.3229 3.32473 1 6.19242 1C9.06011 1 11.3848 3.3229 11.3848 6.18834ZM6.19242 35.3229C9.06011 35.3229 11.3848 33 11.3848 30.1345C11.3848 27.2691 9.06011 24.9462 6.19242 24.9462C3.32473 24.9462 1 27.2691 1 30.1345C1 33 3.32473 35.3229 6.19242 35.3229ZM30.1574 35.3229C33.0251 35.3229 35.3499 33 35.3499 30.1345C35.3499 27.2691 33.0251 24.9462 30.1574 24.9462C27.2897 24.9462 24.965 27.2691 24.965 30.1345C24.965 33 27.2897 35.3229 30.1574 35.3229ZM59.3149 30.1345C59.3149 33 56.9901 35.3229 54.1225 35.3229C51.2548 35.3229 48.93 33 48.93 30.1345C48.93 27.2691 51.2548 24.9462 54.1225 24.9462C56.9901 24.9462 59.3149 27.2691 59.3149 30.1345ZM78.0875 35.3229C80.9552 35.3229 83.2799 33 83.2799 30.1345C83.2799 27.2691 80.9552 24.9462 78.0875 24.9462C75.2198 24.9462 72.895 27.2691 72.895 30.1345C72.895 33 75.2198 35.3229 78.0875 35.3229ZM107.245 30.1345C107.245 33 104.92 35.3229 102.052 35.3229C99.1848 35.3229 96.8601 33 96.8601 30.1345C96.8601 27.2691 99.1848 24.9462 102.052 24.9462C104.92 24.9462 107.245 27.2691 107.245 30.1345ZM126.017 35.3229C128.885 35.3229 131.21 33 131.21 30.1345C131.21 27.2691 128.885 24.9462 126.017 24.9462C123.15 24.9462 120.825 27.2691 120.825 30.1345C120.825 33 123.15 35.3229 126.017 35.3229ZM155.175 30.1345C155.175 33 152.85 35.3229 149.982 35.3229C147.115 35.3229 144.79 33 144.79 30.1345C144.79 27.2691 147.115 24.9462 149.982 24.9462C152.85 24.9462 155.175 27.2691 155.175 30.1345ZM173.948 35.3229C176.815 35.3229 179.14 33 179.14 30.1345C179.14 27.2691 176.815 24.9462 173.948 24.9462C171.08 24.9462 168.755 27.2691 168.755 30.1345C168.755 33 171.08 35.3229 173.948 35.3229ZM203.105 30.1345C203.105 33 200.78 35.3229 197.913 35.3229C195.045 35.3229 192.72 33 192.72 30.1345C192.72 27.2691 195.045 24.9462 197.913 24.9462C200.78 24.9462 203.105 27.2691 203.105 30.1345ZM221.878 35.3229C224.745 35.3229 227.07 33 227.07 30.1345C227.07 27.2691 224.745 24.9462 221.878 24.9462C219.01 24.9462 216.685 27.2691 216.685 30.1345C216.685 33 219.01 35.3229 221.878 35.3229ZM251.035 30.1345C251.035 33 248.71 35.3229 245.843 35.3229C242.975 35.3229 240.65 33 240.65 30.1345C240.65 27.2691 242.975 24.9462 245.843 24.9462C248.71 24.9462 251.035 27.2691 251.035 30.1345ZM269.808 35.3229C272.675 35.3229 275 33 275 30.1345C275 27.2691 272.675 24.9462 269.808 24.9462C266.94 24.9462 264.615 27.2691 264.615 30.1345C264.615 33 266.94 35.3229 269.808 35.3229ZM11.3848 54.0807C11.3848 56.9462 9.06011 59.2691 6.19242 59.2691C3.32473 59.2691 1 56.9462 1 54.0807C1 51.2153 3.32473 48.8924 6.19242 48.8924C9.06011 48.8924 11.3848 51.2153 11.3848 54.0807ZM35.3499 54.0807C35.3499 56.9462 33.0251 59.2691 30.1574 59.2691C27.2897 59.2691 24.965 56.9462 24.965 54.0807C24.965 51.2153 27.2897 48.8924 30.1574 48.8924C33.0251 48.8924 35.3499 51.2153 35.3499 54.0807ZM54.1225 59.2691C56.9901 59.2691 59.3149 56.9462 59.3149 54.0807C59.3149 51.2153 56.9901 48.8924 54.1225 48.8924C51.2548 48.8924 48.93 51.2153 48.93 54.0807C48.93 56.9462 51.2548 59.2691 54.1225 59.2691ZM83.2799 54.0807C83.2799 56.9462 80.9552 59.2691 78.0875 59.2691C75.2198 59.2691 72.895 56.9462 72.895 54.0807C72.895 51.2153 75.2198 48.8924 78.0875 48.8924C80.9552 48.8924 83.2799 51.2153 83.2799 54.0807ZM102.052 59.2691C104.92 59.2691 107.245 56.9462 107.245 54.0807C107.245 51.2153 104.92 48.8924 102.052 48.8924C99.1848 48.8924 96.8601 51.2153 96.8601 54.0807C96.8601 56.9462 99.1848 59.2691 102.052 59.2691ZM131.21 54.0807C131.21 56.9462 128.885 59.2691 126.017 59.2691C123.15 59.2691 120.825 56.9462 120.825 54.0807C120.825 51.2153 123.15 48.8924 126.017 48.8924C128.885 48.8924 131.21 51.2153 131.21 54.0807ZM149.982 59.2691C152.85 59.2691 155.175 56.9462 155.175 54.0807C155.175 51.2153 152.85 48.8924 149.982 48.8924C147.115 48.8924 144.79 51.2153 144.79 54.0807C144.79 56.9462 147.115 59.2691 149.982 59.2691ZM179.14 54.0807C179.14 56.9462 176.815 59.2691 173.948 59.2691C171.08 59.2691 168.755 56.9462 168.755 54.0807C168.755 51.2153 171.08 48.8924 173.948 48.8924C176.815 48.8924 179.14 51.2153 179.14 54.0807ZM197.913 59.2691C200.78 59.2691 203.105 56.9462 203.105 54.0807C203.105 51.2153 200.78 48.8924 197.913 48.8924C195.045 48.8924 192.72 51.2153 192.72 54.0807C192.72 56.9462 195.045 59.2691 197.913 59.2691ZM227.07 54.0807C227.07 56.9462 224.745 59.2691 221.878 59.2691C219.01 59.2691 216.685 56.9462 216.685 54.0807C216.685 51.2153 219.01 48.8924 221.878 48.8924C224.745 48.8924 227.07 51.2153 227.07 54.0807ZM245.843 59.2691C248.71 59.2691 251.035 56.9462 251.035 54.0807C251.035 51.2153 248.71 48.8924 245.843 48.8924C242.975 48.8924 240.65 51.2153 240.65 54.0807C240.65 56.9462 242.975 59.2691 245.843 59.2691ZM275 54.0807C275 56.9462 272.675 59.2691 269.808 59.2691C266.94 59.2691 264.615 56.9462 264.615 54.0807C264.615 51.2153 266.94 48.8924 269.808 48.8924C272.675 48.8924 275 51.2153 275 54.0807ZM35.3499 6.18834C35.3499 9.05378 33.0251 11.3767 30.1574 11.3767C27.2897 11.3767 24.965 9.05378 24.965 6.18834C24.965 3.3229 27.2897 1 30.1574 1C33.0251 1 35.3499 3.3229 35.3499 6.18834ZM11.3848 78.0269C11.3848 80.8923 9.06011 83.2152 6.19242 83.2152C3.32473 83.2152 1 80.8923 1 78.0269C1 75.1615 3.32473 72.8386 6.19242 72.8386C9.06011 72.8386 11.3848 75.1615 11.3848 78.0269ZM35.3499 78.0269C35.3499 80.8923 33.0251 83.2152 30.1574 83.2152C27.2897 83.2152 24.965 80.8923 24.965 78.0269C24.965 75.1615 27.2897 72.8386 30.1574 72.8386C33.0251 72.8386 35.3499 75.1615 35.3499 78.0269ZM54.1225 83.2152C56.9901 83.2152 59.3149 80.8923 59.3149 78.0269C59.3149 75.1615 56.9901 72.8386 54.1225 72.8386C51.2548 72.8386 48.93 75.1615 48.93 78.0269C48.93 80.8923 51.2548 83.2152 54.1225 83.2152ZM83.2799 78.0269C83.2799 80.8923 80.9552 83.2152 78.0875 83.2152C75.2198 83.2152 72.895 80.8923 72.895 78.0269C72.895 75.1615 75.2198 72.8386 78.0875 72.8386C80.9552 72.8386 83.2799 75.1615 83.2799 78.0269ZM102.052 83.2152C104.92 83.2152 107.245 80.8923 107.245 78.0269C107.245 75.1615 104.92 72.8386 102.052 72.8386C99.1848 72.8386 96.8601 75.1615 96.8601 78.0269C96.8601 80.8923 99.1848 83.2152 102.052 83.2152ZM131.21 78.0269C131.21 80.8923 128.885 83.2152 126.017 83.2152C123.15 83.2152 120.825 80.8923 120.825 78.0269C120.825 75.1615 123.15 72.8386 126.017 72.8386C128.885 72.8386 131.21 75.1615 131.21 78.0269ZM149.982 83.2152C152.85 83.2152 155.175 80.8923 155.175 78.0269C155.175 75.1615 152.85 72.8386 149.982 72.8386C147.115 72.8386 144.79 75.1615 144.79 78.0269C144.79 80.8923 147.115 83.2152 149.982 83.2152ZM179.14 78.0269C179.14 80.8923 176.815 83.2152 173.948 83.2152C171.08 83.2152 168.755 80.8923 168.755 78.0269C168.755 75.1615 171.08 72.8386 173.948 72.8386C176.815 72.8386 179.14 75.1615 179.14 78.0269ZM197.913 83.2152C200.78 83.2152 203.105 80.8923 203.105 78.0269C203.105 75.1615 200.78 72.8386 197.913 72.8386C195.045 72.8386 192.72 75.1615 192.72 78.0269C192.72 80.8923 195.045 83.2152 197.913 83.2152ZM227.07 78.0269C227.07 80.8923 224.745 83.2152 221.878 83.2152C219.01 83.2152 216.685 80.8923 216.685 78.0269C216.685 75.1615 219.01 72.8386 221.878 72.8386C224.745 72.8386 227.07 75.1615 227.07 78.0269ZM245.843 83.2152C248.71 83.2152 251.035 80.8923 251.035 78.0269C251.035 75.1615 248.71 72.8386 245.843 72.8386C242.975 72.8386 240.65 75.1615 240.65 78.0269C240.65 80.8923 242.975 83.2152 245.843 83.2152ZM275 78.0269C275 80.8923 272.675 83.2152 269.808 83.2152C266.94 83.2152 264.615 80.8923 264.615 78.0269C264.615 75.1615 266.94 72.8386 269.808 72.8386C272.675 72.8386 275 75.1615 275 78.0269ZM59.3149 6.18834C59.3149 9.05378 56.9901 11.3767 54.1225 11.3767C51.2548 11.3767 48.93 9.05378 48.93 6.18834C48.93 3.3229 51.2548 1 54.1225 1C56.9901 1 59.3149 3.3229 59.3149 6.18834ZM11.3848 101.973C11.3848 104.839 9.06011 107.161 6.19242 107.161C3.32473 107.161 1 104.839 1 101.973C1 99.1077 3.32473 96.7848 6.19242 96.7848C9.06011 96.7848 11.3848 99.1077 11.3848 101.973ZM35.3499 101.973C35.3499 104.839 33.0251 107.161 30.1574 107.161C27.2897 107.161 24.965 104.839 24.965 101.973C24.965 99.1077 27.2897 96.7848 30.1574 96.7848C33.0251 96.7848 35.3499 99.1077 35.3499 101.973ZM54.1225 107.161C56.9901 107.161 59.3149 104.839 59.3149 101.973C59.3149 99.1077 56.9901 96.7848 54.1225 96.7848C51.2548 96.7848 48.93 99.1077 48.93 101.973C48.93 104.839 51.2548 107.161 54.1225 107.161ZM83.2799 101.973C83.2799 104.839 80.9552 107.161 78.0875 107.161C75.2198 107.161 72.895 104.839 72.895 101.973C72.895 99.1077 75.2198 96.7848 78.0875 96.7848C80.9552 96.7848 83.2799 99.1077 83.2799 101.973ZM102.052 107.161C104.92 107.161 107.245 104.839 107.245 101.973C107.245 99.1077 104.92 96.7848 102.052 96.7848C99.1848 96.7848 96.8601 99.1077 96.8601 101.973C96.8601 104.839 99.1848 107.161 102.052 107.161ZM131.21 101.973C131.21 104.839 128.885 107.161 126.017 107.161C123.15 107.161 120.825 104.839 120.825 101.973C120.825 99.1077 123.15 96.7848 126.017 96.7848C128.885 96.7848 131.21 99.1077 131.21 101.973ZM149.982 107.161C152.85 107.161 155.175 104.839 155.175 101.973C155.175 99.1077 152.85 96.7848 149.982 96.7848C147.115 96.7848 144.79 99.1077 144.79 101.973C144.79 104.839 147.115 107.161 149.982 107.161ZM179.14 101.973C179.14 104.839 176.815 107.161 173.948 107.161C171.08 107.161 168.755 104.839 168.755 101.973C168.755 99.1077 171.08 96.7848 173.948 96.7848C176.815 96.7848 179.14 99.1077 179.14 101.973ZM197.913 107.161C200.78 107.161 203.105 104.839 203.105 101.973C203.105 99.1077 200.78 96.7848 197.913 96.7848C195.045 96.7848 192.72 99.1077 192.72 101.973C192.72 104.839 195.045 107.161 197.913 107.161ZM227.07 101.973C227.07 104.839 224.745 107.161 221.878 107.161C219.01 107.161 216.685 104.839 216.685 101.973C216.685 99.1077 219.01 96.7848 221.878 96.7848C224.745 96.7848 227.07 99.1077 227.07 101.973ZM245.843 107.161C248.71 107.161 251.035 104.839 251.035 101.973C251.035 99.1077 248.71 96.7848 245.843 96.7848C242.975 96.7848 240.65 99.1077 240.65 101.973C240.65 104.839 242.975 107.161 245.843 107.161ZM275 101.973C275 104.839 272.675 107.161 269.808 107.161C266.94 107.161 264.615 104.839 264.615 101.973C264.615 99.1077 266.94 96.7848 269.808 96.7848C272.675 96.7848 275 99.1077 275 101.973ZM83.2799 6.18834C83.2799 9.05378 80.9552 11.3767 78.0875 11.3767C75.2198 11.3767 72.895 9.05378 72.895 6.18834C72.895 3.3229 75.2198 1 78.0875 1C80.9552 1 83.2799 3.3229 83.2799 6.18834ZM11.3848 125.919C11.3848 128.785 9.06011 131.108 6.19242 131.108C3.32473 131.108 1 128.785 1 125.919C1 123.054 3.32473 120.731 6.19242 120.731C9.06011 120.731 11.3848 123.054 11.3848 125.919ZM35.3499 125.919C35.3499 128.785 33.0251 131.108 30.1574 131.108C27.2897 131.108 24.965 128.785 24.965 125.919C24.965 123.054 27.2897 120.731 30.1574 120.731C33.0251 120.731 35.3499 123.054 35.3499 125.919ZM54.1225 131.108C56.9901 131.108 59.3149 128.785 59.3149 125.919C59.3149 123.054 56.9901 120.731 54.1225 120.731C51.2548 120.731 48.93 123.054 48.93 125.919C48.93 128.785 51.2548 131.108 54.1225 131.108ZM83.2799 125.919C83.2799 128.785 80.9552 131.108 78.0875 131.108C75.2198 131.108 72.895 128.785 72.895 125.919C72.895 123.054 75.2198 120.731 78.0875 120.731C80.9552 120.731 83.2799 123.054 83.2799 125.919ZM102.052 131.108C104.92 131.108 107.245 128.785 107.245 125.919C107.245 123.054 104.92 120.731 102.052 120.731C99.1848 120.731 96.8601 123.054 96.8601 125.919C96.8601 128.785 99.1848 131.108 102.052 131.108ZM131.21 125.919C131.21 128.785 128.885 131.108 126.017 131.108C123.15 131.108 120.825 128.785 120.825 125.919C120.825 123.054 123.15 120.731 126.017 120.731C128.885 120.731 131.21 123.054 131.21 125.919ZM149.982 131.108C152.85 131.108 155.175 128.785 155.175 125.919C155.175 123.054 152.85 120.731 149.982 120.731C147.115 120.731 144.79 123.054 144.79 125.919C144.79 128.785 147.115 131.108 149.982 131.108ZM179.14 125.919C179.14 128.785 176.815 131.108 173.948 131.108C171.08 131.108 168.755 128.785 168.755 125.919C168.755 123.054 171.08 120.731 173.948 120.731C176.815 120.731 179.14 123.054 179.14 125.919ZM197.913 131.108C200.78 131.108 203.105 128.785 203.105 125.919C203.105 123.054 200.78 120.731 197.913 120.731C195.045 120.731 192.72 123.054 192.72 125.919C192.72 128.785 195.045 131.108 197.913 131.108ZM227.07 125.919C227.07 128.785 224.745 131.108 221.878 131.108C219.01 131.108 216.685 128.785 216.685 125.919C216.685 123.054 219.01 120.731 221.878 120.731C224.745 120.731 227.07 123.054 227.07 125.919ZM245.843 131.108C248.71 131.108 251.035 128.785 251.035 125.919C251.035 123.054 248.71 120.731 245.843 120.731C242.975 120.731 240.65 123.054 240.65 125.919C240.65 128.785 242.975 131.108 245.843 131.108ZM275 125.919C275 128.785 272.675 131.108 269.808 131.108C266.94 131.108 264.615 128.785 264.615 125.919C264.615 123.054 266.94 120.731 269.808 120.731C272.675 120.731 275 123.054 275 125.919ZM107.245 6.18834C107.245 9.05378 104.92 11.3767 102.052 11.3767C99.1848 11.3767 96.8601 9.05378 96.8601 6.18834C96.8601 3.3229 99.1848 1 102.052 1C104.92 1 107.245 3.3229 107.245 6.18834ZM11.3848 149.865C11.3848 152.731 9.06011 155.054 6.19242 155.054C3.32473 155.054 1 152.731 1 149.865C1 147 3.32473 144.677 6.19242 144.677C9.06011 144.677 11.3848 147 11.3848 149.865ZM35.3499 149.865C35.3499 152.731 33.0251 155.054 30.1574 155.054C27.2897 155.054 24.965 152.731 24.965 149.865C24.965 147 27.2897 144.677 30.1574 144.677C33.0251 144.677 35.3499 147 35.3499 149.865ZM54.1225 155.054C56.9901 155.054 59.3149 152.731 59.3149 149.865C59.3149 147 56.9901 144.677 54.1225 144.677C51.2548 144.677 48.93 147 48.93 149.865C48.93 152.731 51.2548 155.054 54.1225 155.054ZM83.2799 149.865C83.2799 152.731 80.9552 155.054 78.0875 155.054C75.2198 155.054 72.895 152.731 72.895 149.865C72.895 147 75.2198 144.677 78.0875 144.677C80.9552 144.677 83.2799 147 83.2799 149.865ZM102.052 155.054C104.92 155.054 107.245 152.731 107.245 149.865C107.245 147 104.92 144.677 102.052 144.677C99.1848 144.677 96.8601 147 96.8601 149.865C96.8601 152.731 99.1848 155.054 102.052 155.054ZM131.21 149.865C131.21 152.731 128.885 155.054 126.017 155.054C123.15 155.054 120.825 152.731 120.825 149.865C120.825 147 123.15 144.677 126.017 144.677C128.885 144.677 131.21 147 131.21 149.865ZM149.982 155.054C152.85 155.054 155.175 152.731 155.175 149.865C155.175 147 152.85 144.677 149.982 144.677C147.115 144.677 144.79 147 144.79 149.865C144.79 152.731 147.115 155.054 149.982 155.054ZM179.14 149.865C179.14 152.731 176.815 155.054 173.948 155.054C171.08 155.054 168.755 152.731 168.755 149.865C168.755 147 171.08 144.677 173.948 144.677C176.815 144.677 179.14 147 179.14 149.865ZM197.913 155.054C200.78 155.054 203.105 152.731 203.105 149.865C203.105 147 200.78 144.677 197.913 144.677C195.045 144.677 192.72 147 192.72 149.865C192.72 152.731 195.045 155.054 197.913 155.054ZM227.07 149.865C227.07 152.731 224.745 155.054 221.878 155.054C219.01 155.054 216.685 152.731 216.685 149.865C216.685 147 219.01 144.677 221.878 144.677C224.745 144.677 227.07 147 227.07 149.865ZM245.843 155.054C248.71 155.054 251.035 152.731 251.035 149.865C251.035 147 248.71 144.677 245.843 144.677C242.975 144.677 240.65 147 240.65 149.865C240.65 152.731 242.975 155.054 245.843 155.054ZM275 149.865C275 152.731 272.675 155.054 269.808 155.054C266.94 155.054 264.615 152.731 264.615 149.865C264.615 147 266.94 144.677 269.808 144.677C272.675 144.677 275 147 275 149.865ZM131.21 6.18834C131.21 9.05378 128.885 11.3767 126.017 11.3767C123.15 11.3767 120.825 9.05378 120.825 6.18834C120.825 3.3229 123.15 1 126.017 1C128.885 1 131.21 3.3229 131.21 6.18834ZM11.3848 173.812C11.3848 176.677 9.06011 179 6.19242 179C3.32473 179 1 176.677 1 173.812C1 170.946 3.32473 168.623 6.19242 168.623C9.06011 168.623 11.3848 170.946 11.3848 173.812ZM35.3499 173.812C35.3499 176.677 33.0251 179 30.1574 179C27.2897 179 24.965 176.677 24.965 173.812C24.965 170.946 27.2897 168.623 30.1574 168.623C33.0251 168.623 35.3499 170.946 35.3499 173.812ZM54.1225 179C56.9901 179 59.3149 176.677 59.3149 173.812C59.3149 170.946 56.9901 168.623 54.1225 168.623C51.2548 168.623 48.93 170.946 48.93 173.812C48.93 176.677 51.2548 179 54.1225 179ZM83.2799 173.812C83.2799 176.677 80.9552 179 78.0875 179C75.2198 179 72.895 176.677 72.895 173.812C72.895 170.946 75.2198 168.623 78.0875 168.623C80.9552 168.623 83.2799 170.946 83.2799 173.812ZM102.052 179C104.92 179 107.245 176.677 107.245 173.812C107.245 170.946 104.92 168.623 102.052 168.623C99.1848 168.623 96.8601 170.946 96.8601 173.812C96.8601 176.677 99.1848 179 102.052 179ZM131.21 173.812C131.21 176.677 128.885 179 126.017 179C123.15 179 120.825 176.677 120.825 173.812C120.825 170.946 123.15 168.623 126.017 168.623C128.885 168.623 131.21 170.946 131.21 173.812ZM149.982 179C152.85 179 155.175 176.677 155.175 173.812C155.175 170.946 152.85 168.623 149.982 168.623C147.115 168.623 144.79 170.946 144.79 173.812C144.79 176.677 147.115 179 149.982 179ZM179.14 173.812C179.14 176.677 176.815 179 173.948 179C171.08 179 168.755 176.677 168.755 173.812C168.755 170.946 171.08 168.623 173.948 168.623C176.815 168.623 179.14 170.946 179.14 173.812ZM197.913 179C200.78 179 203.105 176.677 203.105 173.812C203.105 170.946 200.78 168.623 197.913 168.623C195.045 168.623 192.72 170.946 192.72 173.812C192.72 176.677 195.045 179 197.913 179ZM227.07 173.812C227.07 176.677 224.745 179 221.878 179C219.01 179 216.685 176.677 216.685 173.812C216.685 170.946 219.01 168.623 221.878 168.623C224.745 168.623 227.07 170.946 227.07 173.812ZM245.843 179C248.71 179 251.035 176.677 251.035 173.812C251.035 170.946 248.71 168.623 245.843 168.623C242.975 168.623 240.65 170.946 240.65 173.812C240.65 176.677 242.975 179 245.843 179ZM275 173.812C275 176.677 272.675 179 269.808 179C266.94 179 264.615 176.677 264.615 173.812C264.615 170.946 266.94 168.623 269.808 168.623C272.675 168.623 275 170.946 275 173.812ZM155.175 6.18834C155.175 9.05378 152.85 11.3767 149.982 11.3767C147.115 11.3767 144.79 9.05378 144.79 6.18834C144.79 3.3229 147.115 1 149.982 1C152.85 1 155.175 3.3229 155.175 6.18834ZM173.948 11.3767C176.815 11.3767 179.14 9.05378 179.14 6.18834C179.14 3.3229 176.815 1 173.948 1C171.08 1 168.755 3.3229 168.755 6.18834C168.755 9.05378 171.08 11.3767 173.948 11.3767ZM203.105 6.18834C203.105 9.05378 200.78 11.3767 197.913 11.3767C195.045 11.3767 192.72 9.05378 192.72 6.18834C192.72 3.3229 195.045 1 197.913 1C200.78 1 203.105 3.3229 203.105 6.18834ZM221.878 11.3767C224.745 11.3767 227.07 9.05378 227.07 6.18834C227.07 3.3229 224.745 1 221.878 1C219.01 1 216.685 3.3229 216.685 6.18834C216.685 9.05378 219.01 11.3767 221.878 11.3767ZM251.035 6.18834C251.035 9.05378 248.71 11.3767 245.843 11.3767C242.975 11.3767 240.65 9.05378 240.65 6.18834C240.65 3.3229 242.975 1 245.843 1C248.71 1 251.035 3.3229 251.035 6.18834ZM269.808 11.3767C272.675 11.3767 275 9.05378 275 6.18834C275 3.3229 272.675 1 269.808 1C266.94 1 264.615 3.3229 264.615 6.18834C264.615 9.05378 266.94 11.3767 269.808 11.3767Z"/>
</mask>
<path fill-rule="evenodd" clip-rule="evenodd" d="M11.3848 6.18834C11.3848 9.05378 9.06011 11.3767 6.19242 11.3767C3.32473 11.3767 1 9.05378 1 6.18834C1 3.3229 3.32473 1 6.19242 1C9.06011 1 11.3848 3.3229 11.3848 6.18834ZM6.19242 35.3229C9.06011 35.3229 11.3848 33 11.3848 30.1345C11.3848 27.2691 9.06011 24.9462 6.19242 24.9462C3.32473 24.9462 1 27.2691 1 30.1345C1 33 3.32473 35.3229 6.19242 35.3229ZM30.1574 35.3229C33.0251 35.3229 35.3499 33 35.3499 30.1345C35.3499 27.2691 33.0251 24.9462 30.1574 24.9462C27.2897 24.9462 24.965 27.2691 24.965 30.1345C24.965 33 27.2897 35.3229 30.1574 35.3229ZM59.3149 30.1345C59.3149 33 56.9901 35.3229 54.1225 35.3229C51.2548 35.3229 48.93 33 48.93 30.1345C48.93 27.2691 51.2548 24.9462 54.1225 24.9462C56.9901 24.9462 59.3149 27.2691 59.3149 30.1345ZM78.0875 35.3229C80.9552 35.3229 83.2799 33 83.2799 30.1345C83.2799 27.2691 80.9552 24.9462 78.0875 24.9462C75.2198 24.9462 72.895 27.2691 72.895 30.1345C72.895 33 75.2198 35.3229 78.0875 35.3229ZM107.245 30.1345C107.245 33 104.92 35.3229 102.052 35.3229C99.1848 35.3229 96.8601 33 96.8601 30.1345C96.8601 27.2691 99.1848 24.9462 102.052 24.9462C104.92 24.9462 107.245 27.2691 107.245 30.1345ZM126.017 35.3229C128.885 35.3229 131.21 33 131.21 30.1345C131.21 27.2691 128.885 24.9462 126.017 24.9462C123.15 24.9462 120.825 27.2691 120.825 30.1345C120.825 33 123.15 35.3229 126.017 35.3229ZM155.175 30.1345C155.175 33 152.85 35.3229 149.982 35.3229C147.115 35.3229 144.79 33 144.79 30.1345C144.79 27.2691 147.115 24.9462 149.982 24.9462C152.85 24.9462 155.175 27.2691 155.175 30.1345ZM173.948 35.3229C176.815 35.3229 179.14 33 179.14 30.1345C179.14 27.2691 176.815 24.9462 173.948 24.9462C171.08 24.9462 168.755 27.2691 168.755 30.1345C168.755 33 171.08 35.3229 173.948 35.3229ZM203.105 30.1345C203.105 33 200.78 35.3229 197.913 35.3229C195.045 35.3229 192.72 33 192.72 30.1345C192.72 27.2691 195.045 24.9462 197.913 24.9462C200.78 24.9462 203.105 27.2691 203.105 30.1345ZM221.878 35.3229C224.745 35.3229 227.07 33 227.07 30.1345C227.07 27.2691 224.745 24.9462 221.878 24.9462C219.01 24.9462 216.685 27.2691 216.685 30.1345C216.685 33 219.01 35.3229 221.878 35.3229ZM251.035 30.1345C251.035 33 248.71 35.3229 245.843 35.3229C242.975 35.3229 240.65 33 240.65 30.1345C240.65 27.2691 242.975 24.9462 245.843 24.9462C248.71 24.9462 251.035 27.2691 251.035 30.1345ZM269.808 35.3229C272.675 35.3229 275 33 275 30.1345C275 27.2691 272.675 24.9462 269.808 24.9462C266.94 24.9462 264.615 27.2691 264.615 30.1345C264.615 33 266.94 35.3229 269.808 35.3229ZM11.3848 54.0807C11.3848 56.9462 9.06011 59.2691 6.19242 59.2691C3.32473 59.2691 1 56.9462 1 54.0807C1 51.2153 3.32473 48.8924 6.19242 48.8924C9.06011 48.8924 11.3848 51.2153 11.3848 54.0807ZM35.3499 54.0807C35.3499 56.9462 33.0251 59.2691 30.1574 59.2691C27.2897 59.2691 24.965 56.9462 24.965 54.0807C24.965 51.2153 27.2897 48.8924 30.1574 48.8924C33.0251 48.8924 35.3499 51.2153 35.3499 54.0807ZM54.1225 59.2691C56.9901 59.2691 59.3149 56.9462 59.3149 54.0807C59.3149 51.2153 56.9901 48.8924 54.1225 48.8924C51.2548 48.8924 48.93 51.2153 48.93 54.0807C48.93 56.9462 51.2548 59.2691 54.1225 59.2691ZM83.2799 54.0807C83.2799 56.9462 80.9552 59.2691 78.0875 59.2691C75.2198 59.2691 72.895 56.9462 72.895 54.0807C72.895 51.2153 75.2198 48.8924 78.0875 48.8924C80.9552 48.8924 83.2799 51.2153 83.2799 54.0807ZM102.052 59.2691C104.92 59.2691 107.245 56.9462 107.245 54.0807C107.245 51.2153 104.92 48.8924 102.052 48.8924C99.1848 48.8924 96.8601 51.2153 96.8601 54.0807C96.8601 56.9462 99.1848 59.2691 102.052 59.2691ZM131.21 54.0807C131.21 56.9462 128.885 59.2691 126.017 59.2691C123.15 59.2691 120.825 56.9462 120.825 54.0807C120.825 51.2153 123.15 48.8924 126.017 48.8924C128.885 48.8924 131.21 51.2153 131.21 54.0807ZM149.982 59.2691C152.85 59.2691 155.175 56.9462 155.175 54.0807C155.175 51.2153 152.85 48.8924 149.982 48.8924C147.115 48.8924 144.79 51.2153 144.79 54.0807C144.79 56.9462 147.115 59.2691 149.982 59.2691ZM179.14 54.0807C179.14 56.9462 176.815 59.2691 173.948 59.2691C171.08 59.2691 168.755 56.9462 168.755 54.0807C168.755 51.2153 171.08 48.8924 173.948 48.8924C176.815 48.8924 179.14 51.2153 179.14 54.0807ZM197.913 59.2691C200.78 59.2691 203.105 56.9462 203.105 54.0807C203.105 51.2153 200.78 48.8924 197.913 48.8924C195.045 48.8924 192.72 51.2153 192.72 54.0807C192.72 56.9462 195.045 59.2691 197.913 59.2691ZM227.07 54.0807C227.07 56.9462 224.745 59.2691 221.878 59.2691C219.01 59.2691 216.685 56.9462 216.685 54.0807C216.685 51.2153 219.01 48.8924 221.878 48.8924C224.745 48.8924 227.07 51.2153 227.07 54.0807ZM245.843 59.2691C248.71 59.2691 251.035 56.9462 251.035 54.0807C251.035 51.2153 248.71 48.8924 245.843 48.8924C242.975 48.8924 240.65 51.2153 240.65 54.0807C240.65 56.9462 242.975 59.2691 245.843 59.2691ZM275 54.0807C275 56.9462 272.675 59.2691 269.808 59.2691C266.94 59.2691 264.615 56.9462 264.615 54.0807C264.615 51.2153 266.94 48.8924 269.808 48.8924C272.675 48.8924 275 51.2153 275 54.0807ZM35.3499 6.18834C35.3499 9.05378 33.0251 11.3767 30.1574 11.3767C27.2897 11.3767 24.965 9.05378 24.965 6.18834C24.965 3.3229 27.2897 1 30.1574 1C33.0251 1 35.3499 3.3229 35.3499 6.18834ZM11.3848 78.0269C11.3848 80.8923 9.06011 83.2152 6.19242 83.2152C3.32473 83.2152 1 80.8923 1 78.0269C1 75.1615 3.32473 72.8386 6.19242 72.8386C9.06011 72.8386 11.3848 75.1615 11.3848 78.0269ZM35.3499 78.0269C35.3499 80.8923 33.0251 83.2152 30.1574 83.2152C27.2897 83.2152 24.965 80.8923 24.965 78.0269C24.965 75.1615 27.2897 72.8386 30.1574 72.8386C33.0251 72.8386 35.3499 75.1615 35.3499 78.0269ZM54.1225 83.2152C56.9901 83.2152 59.3149 80.8923 59.3149 78.0269C59.3149 75.1615 56.9901 72.8386 54.1225 72.8386C51.2548 72.8386 48.93 75.1615 48.93 78.0269C48.93 80.8923 51.2548 83.2152 54.1225 83.2152ZM83.2799 78.0269C83.2799 80.8923 80.9552 83.2152 78.0875 83.2152C75.2198 83.2152 72.895 80.8923 72.895 78.0269C72.895 75.1615 75.2198 72.8386 78.0875 72.8386C80.9552 72.8386 83.2799 75.1615 83.2799 78.0269ZM102.052 83.2152C104.92 83.2152 107.245 80.8923 107.245 78.0269C107.245 75.1615 104.92 72.8386 102.052 72.8386C99.1848 72.8386 96.8601 75.1615 96.8601 78.0269C96.8601 80.8923 99.1848 83.2152 102.052 83.2152ZM131.21 78.0269C131.21 80.8923 128.885 83.2152 126.017 83.2152C123.15 83.2152 120.825 80.8923 120.825 78.0269C120.825 75.1615 123.15 72.8386 126.017 72.8386C128.885 72.8386 131.21 75.1615 131.21 78.0269ZM149.982 83.2152C152.85 83.2152 155.175 80.8923 155.175 78.0269C155.175 75.1615 152.85 72.8386 149.982 72.8386C147.115 72.8386 144.79 75.1615 144.79 78.0269C144.79 80.8923 147.115 83.2152 149.982 83.2152ZM179.14 78.0269C179.14 80.8923 176.815 83.2152 173.948 83.2152C171.08 83.2152 168.755 80.8923 168.755 78.0269C168.755 75.1615 171.08 72.8386 173.948 72.8386C176.815 72.8386 179.14 75.1615 179.14 78.0269ZM197.913 83.2152C200.78 83.2152 203.105 80.8923 203.105 78.0269C203.105 75.1615 200.78 72.8386 197.913 72.8386C195.045 72.8386 192.72 75.1615 192.72 78.0269C192.72 80.8923 195.045 83.2152 197.913 83.2152ZM227.07 78.0269C227.07 80.8923 224.745 83.2152 221.878 83.2152C219.01 83.2152 216.685 80.8923 216.685 78.0269C216.685 75.1615 219.01 72.8386 221.878 72.8386C224.745 72.8386 227.07 75.1615 227.07 78.0269ZM245.843 83.2152C248.71 83.2152 251.035 80.8923 251.035 78.0269C251.035 75.1615 248.71 72.8386 245.843 72.8386C242.975 72.8386 240.65 75.1615 240.65 78.0269C240.65 80.8923 242.975 83.2152 245.843 83.2152ZM275 78.0269C275 80.8923 272.675 83.2152 269.808 83.2152C266.94 83.2152 264.615 80.8923 264.615 78.0269C264.615 75.1615 266.94 72.8386 269.808 72.8386C272.675 72.8386 275 75.1615 275 78.0269ZM59.3149 6.18834C59.3149 9.05378 56.9901 11.3767 54.1225 11.3767C51.2548 11.3767 48.93 9.05378 48.93 6.18834C48.93 3.3229 51.2548 1 54.1225 1C56.9901 1 59.3149 3.3229 59.3149 6.18834ZM11.3848 101.973C11.3848 104.839 9.06011 107.161 6.19242 107.161C3.32473 107.161 1 104.839 1 101.973C1 99.1077 3.32473 96.7848 6.19242 96.7848C9.06011 96.7848 11.3848 99.1077 11.3848 101.973ZM35.3499 101.973C35.3499 104.839 33.0251 107.161 30.1574 107.161C27.2897 107.161 24.965 104.839 24.965 101.973C24.965 99.1077 27.2897 96.7848 30.1574 96.7848C33.0251 96.7848 35.3499 99.1077 35.3499 101.973ZM54.1225 107.161C56.9901 107.161 59.3149 104.839 59.3149 101.973C59.3149 99.1077 56.9901 96.7848 54.1225 96.7848C51.2548 96.7848 48.93 99.1077 48.93 101.973C48.93 104.839 51.2548 107.161 54.1225 107.161ZM83.2799 101.973C83.2799 104.839 80.9552 107.161 78.0875 107.161C75.2198 107.161 72.895 104.839 72.895 101.973C72.895 99.1077 75.2198 96.7848 78.0875 96.7848C80.9552 96.7848 83.2799 99.1077 83.2799 101.973ZM102.052 107.161C104.92 107.161 107.245 104.839 107.245 101.973C107.245 99.1077 104.92 96.7848 102.052 96.7848C99.1848 96.7848 96.8601 99.1077 96.8601 101.973C96.8601 104.839 99.1848 107.161 102.052 107.161ZM131.21 101.973C131.21 104.839 128.885 107.161 126.017 107.161C123.15 107.161 120.825 104.839 120.825 101.973C120.825 99.1077 123.15 96.7848 126.017 96.7848C128.885 96.7848 131.21 99.1077 131.21 101.973ZM149.982 107.161C152.85 107.161 155.175 104.839 155.175 101.973C155.175 99.1077 152.85 96.7848 149.982 96.7848C147.115 96.7848 144.79 99.1077 144.79 101.973C144.79 104.839 147.115 107.161 149.982 107.161ZM179.14 101.973C179.14 104.839 176.815 107.161 173.948 107.161C171.08 107.161 168.755 104.839 168.755 101.973C168.755 99.1077 171.08 96.7848 173.948 96.7848C176.815 96.7848 179.14 99.1077 179.14 101.973ZM197.913 107.161C200.78 107.161 203.105 104.839 203.105 101.973C203.105 99.1077 200.78 96.7848 197.913 96.7848C195.045 96.7848 192.72 99.1077 192.72 101.973C192.72 104.839 195.045 107.161 197.913 107.161ZM227.07 101.973C227.07 104.839 224.745 107.161 221.878 107.161C219.01 107.161 216.685 104.839 216.685 101.973C216.685 99.1077 219.01 96.7848 221.878 96.7848C224.745 96.7848 227.07 99.1077 227.07 101.973ZM245.843 107.161C248.71 107.161 251.035 104.839 251.035 101.973C251.035 99.1077 248.71 96.7848 245.843 96.7848C242.975 96.7848 240.65 99.1077 240.65 101.973C240.65 104.839 242.975 107.161 245.843 107.161ZM275 101.973C275 104.839 272.675 107.161 269.808 107.161C266.94 107.161 264.615 104.839 264.615 101.973C264.615 99.1077 266.94 96.7848 269.808 96.7848C272.675 96.7848 275 99.1077 275 101.973ZM83.2799 6.18834C83.2799 9.05378 80.9552 11.3767 78.0875 11.3767C75.2198 11.3767 72.895 9.05378 72.895 6.18834C72.895 3.3229 75.2198 1 78.0875 1C80.9552 1 83.2799 3.3229 83.2799 6.18834ZM11.3848 125.919C11.3848 128.785 9.06011 131.108 6.19242 131.108C3.32473 131.108 1 128.785 1 125.919C1 123.054 3.32473 120.731 6.19242 120.731C9.06011 120.731 11.3848 123.054 11.3848 125.919ZM35.3499 125.919C35.3499 128.785 33.0251 131.108 30.1574 131.108C27.2897 131.108 24.965 128.785 24.965 125.919C24.965 123.054 27.2897 120.731 30.1574 120.731C33.0251 120.731 35.3499 123.054 35.3499 125.919ZM54.1225 131.108C56.9901 131.108 59.3149 128.785 59.3149 125.919C59.3149 123.054 56.9901 120.731 54.1225 120.731C51.2548 120.731 48.93 123.054 48.93 125.919C48.93 128.785 51.2548 131.108 54.1225 131.108ZM83.2799 125.919C83.2799 128.785 80.9552 131.108 78.0875 131.108C75.2198 131.108 72.895 128.785 72.895 125.919C72.895 123.054 75.2198 120.731 78.0875 120.731C80.9552 120.731 83.2799 123.054 83.2799 125.919ZM102.052 131.108C104.92 131.108 107.245 128.785 107.245 125.919C107.245 123.054 104.92 120.731 102.052 120.731C99.1848 120.731 96.8601 123.054 96.8601 125.919C96.8601 128.785 99.1848 131.108 102.052 131.108ZM131.21 125.919C131.21 128.785 128.885 131.108 126.017 131.108C123.15 131.108 120.825 128.785 120.825 125.919C120.825 123.054 123.15 120.731 126.017 120.731C128.885 120.731 131.21 123.054 131.21 125.919ZM149.982 131.108C152.85 131.108 155.175 128.785 155.175 125.919C155.175 123.054 152.85 120.731 149.982 120.731C147.115 120.731 144.79 123.054 144.79 125.919C144.79 128.785 147.115 131.108 149.982 131.108ZM179.14 125.919C179.14 128.785 176.815 131.108 173.948 131.108C171.08 131.108 168.755 128.785 168.755 125.919C168.755 123.054 171.08 120.731 173.948 120.731C176.815 120.731 179.14 123.054 179.14 125.919ZM197.913 131.108C200.78 131.108 203.105 128.785 203.105 125.919C203.105 123.054 200.78 120.731 197.913 120.731C195.045 120.731 192.72 123.054 192.72 125.919C192.72 128.785 195.045 131.108 197.913 131.108ZM227.07 125.919C227.07 128.785 224.745 131.108 221.878 131.108C219.01 131.108 216.685 128.785 216.685 125.919C216.685 123.054 219.01 120.731 221.878 120.731C224.745 120.731 227.07 123.054 227.07 125.919ZM245.843 131.108C248.71 131.108 251.035 128.785 251.035 125.919C251.035 123.054 248.71 120.731 245.843 120.731C242.975 120.731 240.65 123.054 240.65 125.919C240.65 128.785 242.975 131.108 245.843 131.108ZM275 125.919C275 128.785 272.675 131.108 269.808 131.108C266.94 131.108 264.615 128.785 264.615 125.919C264.615 123.054 266.94 120.731 269.808 120.731C272.675 120.731 275 123.054 275 125.919ZM107.245 6.18834C107.245 9.05378 104.92 11.3767 102.052 11.3767C99.1848 11.3767 96.8601 9.05378 96.8601 6.18834C96.8601 3.3229 99.1848 1 102.052 1C104.92 1 107.245 3.3229 107.245 6.18834ZM11.3848 149.865C11.3848 152.731 9.06011 155.054 6.19242 155.054C3.32473 155.054 1 152.731 1 149.865C1 147 3.32473 144.677 6.19242 144.677C9.06011 144.677 11.3848 147 11.3848 149.865ZM35.3499 149.865C35.3499 152.731 33.0251 155.054 30.1574 155.054C27.2897 155.054 24.965 152.731 24.965 149.865C24.965 147 27.2897 144.677 30.1574 144.677C33.0251 144.677 35.3499 147 35.3499 149.865ZM54.1225 155.054C56.9901 155.054 59.3149 152.731 59.3149 149.865C59.3149 147 56.9901 144.677 54.1225 144.677C51.2548 144.677 48.93 147 48.93 149.865C48.93 152.731 51.2548 155.054 54.1225 155.054ZM83.2799 149.865C83.2799 152.731 80.9552 155.054 78.0875 155.054C75.2198 155.054 72.895 152.731 72.895 149.865C72.895 147 75.2198 144.677 78.0875 144.677C80.9552 144.677 83.2799 147 83.2799 149.865ZM102.052 155.054C104.92 155.054 107.245 152.731 107.245 149.865C107.245 147 104.92 144.677 102.052 144.677C99.1848 144.677 96.8601 147 96.8601 149.865C96.8601 152.731 99.1848 155.054 102.052 155.054ZM131.21 149.865C131.21 152.731 128.885 155.054 126.017 155.054C123.15 155.054 120.825 152.731 120.825 149.865C120.825 147 123.15 144.677 126.017 144.677C128.885 144.677 131.21 147 131.21 149.865ZM149.982 155.054C152.85 155.054 155.175 152.731 155.175 149.865C155.175 147 152.85 144.677 149.982 144.677C147.115 144.677 144.79 147 144.79 149.865C144.79 152.731 147.115 155.054 149.982 155.054ZM179.14 149.865C179.14 152.731 176.815 155.054 173.948 155.054C171.08 155.054 168.755 152.731 168.755 149.865C168.755 147 171.08 144.677 173.948 144.677C176.815 144.677 179.14 147 179.14 149.865ZM197.913 155.054C200.78 155.054 203.105 152.731 203.105 149.865C203.105 147 200.78 144.677 197.913 144.677C195.045 144.677 192.72 147 192.72 149.865C192.72 152.731 195.045 155.054 197.913 155.054ZM227.07 149.865C227.07 152.731 224.745 155.054 221.878 155.054C219.01 155.054 216.685 152.731 216.685 149.865C216.685 147 219.01 144.677 221.878 144.677C224.745 144.677 227.07 147 227.07 149.865ZM245.843 155.054C248.71 155.054 251.035 152.731 251.035 149.865C251.035 147 248.71 144.677 245.843 144.677C242.975 144.677 240.65 147 240.65 149.865C240.65 152.731 242.975 155.054 245.843 155.054ZM275 149.865C275 152.731 272.675 155.054 269.808 155.054C266.94 155.054 264.615 152.731 264.615 149.865C264.615 147 266.94 144.677 269.808 144.677C272.675 144.677 275 147 275 149.865ZM131.21 6.18834C131.21 9.05378 128.885 11.3767 126.017 11.3767C123.15 11.3767 120.825 9.05378 120.825 6.18834C120.825 3.3229 123.15 1 126.017 1C128.885 1 131.21 3.3229 131.21 6.18834ZM11.3848 173.812C11.3848 176.677 9.06011 179 6.19242 179C3.32473 179 1 176.677 1 173.812C1 170.946 3.32473 168.623 6.19242 168.623C9.06011 168.623 11.3848 170.946 11.3848 173.812ZM35.3499 173.812C35.3499 176.677 33.0251 179 30.1574 179C27.2897 179 24.965 176.677 24.965 173.812C24.965 170.946 27.2897 168.623 30.1574 168.623C33.0251 168.623 35.3499 170.946 35.3499 173.812ZM54.1225 179C56.9901 179 59.3149 176.677 59.3149 173.812C59.3149 170.946 56.9901 168.623 54.1225 168.623C51.2548 168.623 48.93 170.946 48.93 173.812C48.93 176.677 51.2548 179 54.1225 179ZM83.2799 173.812C83.2799 176.677 80.9552 179 78.0875 179C75.2198 179 72.895 176.677 72.895 173.812C72.895 170.946 75.2198 168.623 78.0875 168.623C80.9552 168.623 83.2799 170.946 83.2799 173.812ZM102.052 179C104.92 179 107.245 176.677 107.245 173.812C107.245 170.946 104.92 168.623 102.052 168.623C99.1848 168.623 96.8601 170.946 96.8601 173.812C96.8601 176.677 99.1848 179 102.052 179ZM131.21 173.812C131.21 176.677 128.885 179 126.017 179C123.15 179 120.825 176.677 120.825 173.812C120.825 170.946 123.15 168.623 126.017 168.623C128.885 168.623 131.21 170.946 131.21 173.812ZM149.982 179C152.85 179 155.175 176.677 155.175 173.812C155.175 170.946 152.85 168.623 149.982 168.623C147.115 168.623 144.79 170.946 144.79 173.812C144.79 176.677 147.115 179 149.982 179ZM179.14 173.812C179.14 176.677 176.815 179 173.948 179C171.08 179 168.755 176.677 168.755 173.812C168.755 170.946 171.08 168.623 173.948 168.623C176.815 168.623 179.14 170.946 179.14 173.812ZM197.913 179C200.78 179 203.105 176.677 203.105 173.812C203.105 170.946 200.78 168.623 197.913 168.623C195.045 168.623 192.72 170.946 192.72 173.812C192.72 176.677 195.045 179 197.913 179ZM227.07 173.812C227.07 176.677 224.745 179 221.878 179C219.01 179 216.685 176.677 216.685 173.812C216.685 170.946 219.01 168.623 221.878 168.623C224.745 168.623 227.07 170.946 227.07 173.812ZM245.843 179C248.71 179 251.035 176.677 251.035 173.812C251.035 170.946 248.71 168.623 245.843 168.623C242.975 168.623 240.65 170.946 240.65 173.812C240.65 176.677 242.975 179 245.843 179ZM275 173.812C275 176.677 272.675 179 269.808 179C266.94 179 264.615 176.677 264.615 173.812C264.615 170.946 266.94 168.623 269.808 168.623C272.675 168.623 275 170.946 275 173.812ZM155.175 6.18834C155.175 9.05378 152.85 11.3767 149.982 11.3767C147.115 11.3767 144.79 9.05378 144.79 6.18834C144.79 3.3229 147.115 1 149.982 1C152.85 1 155.175 3.3229 155.175 6.18834ZM173.948 11.3767C176.815 11.3767 179.14 9.05378 179.14 6.18834C179.14 3.3229 176.815 1 173.948 1C171.08 1 168.755 3.3229 168.755 6.18834C168.755 9.05378 171.08 11.3767 173.948 11.3767ZM203.105 6.18834C203.105 9.05378 200.78 11.3767 197.913 11.3767C195.045 11.3767 192.72 9.05378 192.72 6.18834C192.72 3.3229 195.045 1 197.913 1C200.78 1 203.105 3.3229 203.105 6.18834ZM221.878 11.3767C224.745 11.3767 227.07 9.05378 227.07 6.18834C227.07 3.3229 224.745 1 221.878 1C219.01 1 216.685 3.3229 216.685 6.18834C216.685 9.05378 219.01 11.3767 221.878 11.3767ZM251.035 6.18834C251.035 9.05378 248.71 11.3767 245.843 11.3767C242.975 11.3767 240.65 9.05378 240.65 6.18834C240.65 3.3229 242.975 1 245.843 1C248.71 1 251.035 3.3229 251.035 6.18834ZM269.808 11.3767C272.675 11.3767 275 9.05378 275 6.18834C275 3.3229 272.675 1 269.808 1C266.94 1 264.615 3.3229 264.615 6.18834C264.615 9.05378 266.94 11.3767 269.808 11.3767Z" fill="white"/>
<path d="M6.19242 12.3767C9.61166 12.3767 12.3848 9.60681 12.3848 6.18834H10.3848C10.3848 8.50076 8.50857 10.3767 6.19242 10.3767V12.3767ZM0 6.18834C0 9.60681 2.77318 12.3767 6.19242 12.3767V10.3767C3.87627 10.3767 2 8.50076 2 6.18834H0ZM6.19242 0C2.77318 0 0 2.76987 0 6.18834H2C2 3.87592 3.87627 2 6.19242 2V0ZM12.3848 6.18834C12.3848 2.76987 9.61166 0 6.19242 0V2C8.50857 2 10.3848 3.87592 10.3848 6.18834H12.3848ZM10.3848 30.1345C10.3848 32.4469 8.50857 34.3229 6.19242 34.3229V36.3229C9.61166 36.3229 12.3848 33.553 12.3848 30.1345H10.3848ZM6.19242 25.9462C8.50857 25.9462 10.3848 27.8221 10.3848 30.1345H12.3848C12.3848 26.7161 9.61166 23.9462 6.19242 23.9462V25.9462ZM2 30.1345C2 27.8221 3.87627 25.9462 6.19242 25.9462V23.9462C2.77318 23.9462 0 26.7161 0 30.1345H2ZM6.19242 34.3229C3.87627 34.3229 2 32.4469 2 30.1345H0C0 33.553 2.77318 36.3229 6.19242 36.3229V34.3229ZM34.3499 30.1345C34.3499 32.4469 32.4736 34.3229 30.1574 34.3229V36.3229C33.5767 36.3229 36.3499 33.553 36.3499 30.1345H34.3499ZM30.1574 25.9462C32.4736 25.9462 34.3499 27.8221 34.3499 30.1345H36.3499C36.3499 26.7161 33.5767 23.9462 30.1574 23.9462V25.9462ZM25.965 30.1345C25.965 27.8221 27.8413 25.9462 30.1574 25.9462V23.9462C26.7382 23.9462 23.965 26.7161 23.965 30.1345H25.965ZM30.1574 34.3229C27.8413 34.3229 25.965 32.4469 25.965 30.1345H23.965C23.965 33.553 26.7382 36.3229 30.1574 36.3229V34.3229ZM54.1225 36.3229C57.5417 36.3229 60.3149 33.553 60.3149 30.1345H58.3149C58.3149 32.4469 56.4386 34.3229 54.1225 34.3229V36.3229ZM47.93 30.1345C47.93 33.553 50.7032 36.3229 54.1225 36.3229V34.3229C51.8063 34.3229 49.93 32.4469 49.93 30.1345H47.93ZM54.1225 23.9462C50.7032 23.9462 47.93 26.7161 47.93 30.1345H49.93C49.93 27.8221 51.8063 25.9462 54.1225 25.9462V23.9462ZM60.3149 30.1345C60.3149 26.7161 57.5417 23.9462 54.1225 23.9462V25.9462C56.4386 25.9462 58.3149 27.8221 58.3149 30.1345H60.3149ZM82.2799 30.1345C82.2799 32.4469 80.4036 34.3229 78.0875 34.3229V36.3229C81.5067 36.3229 84.2799 33.553 84.2799 30.1345H82.2799ZM78.0875 25.9462C80.4036 25.9462 82.2799 27.8221 82.2799 30.1345H84.2799C84.2799 26.7161 81.5067 23.9462 78.0875 23.9462V25.9462ZM73.895 30.1345C73.895 27.8221 75.7713 25.9462 78.0875 25.9462V23.9462C74.6682 23.9462 71.895 26.7161 71.895 30.1345H73.895ZM78.0875 34.3229C75.7713 34.3229 73.895 32.4469 73.895 30.1345H71.895C71.895 33.553 74.6682 36.3229 78.0875 36.3229V34.3229ZM102.052 36.3229C105.472 36.3229 108.245 33.553 108.245 30.1345H106.245C106.245 32.4469 104.369 34.3229 102.052 34.3229V36.3229ZM95.8601 30.1345C95.8601 33.553 98.6332 36.3229 102.052 36.3229V34.3229C99.7363 34.3229 97.8601 32.4469 97.8601 30.1345H95.8601ZM102.052 23.9462C98.6332 23.9462 95.8601 26.7161 95.8601 30.1345H97.8601C97.8601 27.8221 99.7363 25.9462 102.052 25.9462V23.9462ZM108.245 30.1345C108.245 26.7161 105.472 23.9462 102.052 23.9462V25.9462C104.369 25.9462 106.245 27.8221 106.245 30.1345H108.245ZM130.21 30.1345C130.21 32.4469 128.334 34.3229 126.017 34.3229V36.3229C129.437 36.3229 132.21 33.553 132.21 30.1345H130.21ZM126.017 25.9462C128.334 25.9462 130.21 27.8221 130.21 30.1345H132.21C132.21 26.7161 129.437 23.9462 126.017 23.9462V25.9462ZM121.825 30.1345C121.825 27.8221 123.701 25.9462 126.017 25.9462V23.9462C122.598 23.9462 119.825 26.7161 119.825 30.1345H121.825ZM126.017 34.3229C123.701 34.3229 121.825 32.4469 121.825 30.1345H119.825C119.825 33.553 122.598 36.3229 126.017 36.3229V34.3229ZM149.982 36.3229C153.402 36.3229 156.175 33.553 156.175 30.1345H154.175C154.175 32.4469 152.299 34.3229 149.982 34.3229V36.3229ZM143.79 30.1345C143.79 33.553 146.563 36.3229 149.982 36.3229V34.3229C147.666 34.3229 145.79 32.4469 145.79 30.1345H143.79ZM149.982 23.9462C146.563 23.9462 143.79 26.7161 143.79 30.1345H145.79C145.79 27.8221 147.666 25.9462 149.982 25.9462V23.9462ZM156.175 30.1345C156.175 26.7161 153.402 23.9462 149.982 23.9462V25.9462C152.299 25.9462 154.175 27.8221 154.175 30.1345H156.175ZM178.14 30.1345C178.14 32.4469 176.264 34.3229 173.948 34.3229V36.3229C177.367 36.3229 180.14 33.553 180.14 30.1345H178.14ZM173.948 25.9462C176.264 25.9462 178.14 27.8221 178.14 30.1345H180.14C180.14 26.7161 177.367 23.9462 173.948 23.9462V25.9462ZM169.755 30.1345C169.755 27.8221 171.631 25.9462 173.948 25.9462V23.9462C170.528 23.9462 167.755 26.7161 167.755 30.1345H169.755ZM173.948 34.3229C171.631 34.3229 169.755 32.4469 169.755 30.1345H167.755C167.755 33.553 170.528 36.3229 173.948 36.3229V34.3229ZM197.913 36.3229C201.332 36.3229 204.105 33.553 204.105 30.1345H202.105C202.105 32.4469 200.229 34.3229 197.913 34.3229V36.3229ZM191.72 30.1345C191.72 33.553 194.493 36.3229 197.913 36.3229V34.3229C195.596 34.3229 193.72 32.4469 193.72 30.1345H191.72ZM197.913 23.9462C194.493 23.9462 191.72 26.7161 191.72 30.1345H193.72C193.72 27.8221 195.596 25.9462 197.913 25.9462V23.9462ZM204.105 30.1345C204.105 26.7161 201.332 23.9462 197.913 23.9462V25.9462C200.229 25.9462 202.105 27.8221 202.105 30.1345H204.105ZM226.07 30.1345C226.07 32.4469 224.194 34.3229 221.878 34.3229V36.3229C225.297 36.3229 228.07 33.553 228.07 30.1345H226.07ZM221.878 25.9462C224.194 25.9462 226.07 27.8221 226.07 30.1345H228.07C228.07 26.7161 225.297 23.9462 221.878 23.9462V25.9462ZM217.685 30.1345C217.685 27.8221 219.561 25.9462 221.878 25.9462V23.9462C218.458 23.9462 215.685 26.7161 215.685 30.1345H217.685ZM221.878 34.3229C219.561 34.3229 217.685 32.4469 217.685 30.1345H215.685C215.685 33.553 218.458 36.3229 221.878 36.3229V34.3229ZM245.843 36.3229C249.262 36.3229 252.035 33.553 252.035 30.1345H250.035C250.035 32.4469 248.159 34.3229 245.843 34.3229V36.3229ZM239.65 30.1345C239.65 33.553 242.423 36.3229 245.843 36.3229V34.3229C243.526 34.3229 241.65 32.4469 241.65 30.1345H239.65ZM245.843 23.9462C242.423 23.9462 239.65 26.7161 239.65 30.1345H241.65C241.65 27.8221 243.526 25.9462 245.843 25.9462V23.9462ZM252.035 30.1345C252.035 26.7161 249.262 23.9462 245.843 23.9462V25.9462C248.159 25.9462 250.035 27.8221 250.035 30.1345H252.035ZM274 30.1345C274 32.4469 272.124 34.3229 269.808 34.3229V36.3229C273.227 36.3229 276 33.553 276 30.1345H274ZM269.808 25.9462C272.124 25.9462 274 27.8221 274 30.1345H276C276 26.7161 273.227 23.9462 269.808 23.9462V25.9462ZM265.615 30.1345C265.615 27.8221 267.491 25.9462 269.808 25.9462V23.9462C266.388 23.9462 263.615 26.7161 263.615 30.1345H265.615ZM269.808 34.3229C267.491 34.3229 265.615 32.4469 265.615 30.1345H263.615C263.615 33.553 266.388 36.3229 269.808 36.3229V34.3229ZM6.19242 60.2691C9.61166 60.2691 12.3848 57.4992 12.3848 54.0807H10.3848C10.3848 56.3931 8.50857 58.2691 6.19242 58.2691V60.2691ZM0 54.0807C0 57.4992 2.77318 60.2691 6.19242 60.2691V58.2691C3.87627 58.2691 2 56.3931 2 54.0807H0ZM6.19242 47.8924C2.77318 47.8924 0 50.6622 0 54.0807H2C2 51.7683 3.87627 49.8924 6.19242 49.8924V47.8924ZM12.3848 54.0807C12.3848 50.6622 9.61166 47.8924 6.19242 47.8924V49.8924C8.50857 49.8924 10.3848 51.7683 10.3848 54.0807H12.3848ZM30.1574 60.2691C33.5767 60.2691 36.3499 57.4992 36.3499 54.0807H34.3499C34.3499 56.3931 32.4736 58.2691 30.1574 58.2691V60.2691ZM23.965 54.0807C23.965 57.4992 26.7382 60.2691 30.1574 60.2691V58.2691C27.8413 58.2691 25.965 56.3931 25.965 54.0807H23.965ZM30.1574 47.8924C26.7382 47.8924 23.965 50.6622 23.965 54.0807H25.965C25.965 51.7683 27.8413 49.8924 30.1574 49.8924V47.8924ZM36.3499 54.0807C36.3499 50.6622 33.5767 47.8924 30.1574 47.8924V49.8924C32.4736 49.8924 34.3499 51.7683 34.3499 54.0807H36.3499ZM58.3149 54.0807C58.3149 56.3931 56.4386 58.2691 54.1225 58.2691V60.2691C57.5417 60.2691 60.3149 57.4992 60.3149 54.0807H58.3149ZM54.1225 49.8924C56.4386 49.8924 58.3149 51.7683 58.3149 54.0807H60.3149C60.3149 50.6622 57.5417 47.8924 54.1225 47.8924V49.8924ZM49.93 54.0807C49.93 51.7683 51.8063 49.8924 54.1225 49.8924V47.8924C50.7032 47.8924 47.93 50.6622 47.93 54.0807H49.93ZM54.1225 58.2691C51.8063 58.2691 49.93 56.3931 49.93 54.0807H47.93C47.93 57.4992 50.7032 60.2691 54.1225 60.2691V58.2691ZM78.0875 60.2691C81.5067 60.2691 84.2799 57.4992 84.2799 54.0807H82.2799C82.2799 56.3931 80.4036 58.2691 78.0875 58.2691V60.2691ZM71.895 54.0807C71.895 57.4992 74.6682 60.2691 78.0875 60.2691V58.2691C75.7713 58.2691 73.895 56.3931 73.895 54.0807H71.895ZM78.0875 47.8924C74.6682 47.8924 71.895 50.6622 71.895 54.0807H73.895C73.895 51.7683 75.7713 49.8924 78.0875 49.8924V47.8924ZM84.2799 54.0807C84.2799 50.6622 81.5067 47.8924 78.0875 47.8924V49.8924C80.4036 49.8924 82.2799 51.7683 82.2799 54.0807H84.2799ZM106.245 54.0807C106.245 56.3931 104.369 58.2691 102.052 58.2691V60.2691C105.472 60.2691 108.245 57.4992 108.245 54.0807H106.245ZM102.052 49.8924C104.369 49.8924 106.245 51.7683 106.245 54.0807H108.245C108.245 50.6622 105.472 47.8924 102.052 47.8924V49.8924ZM97.8601 54.0807C97.8601 51.7683 99.7363 49.8924 102.052 49.8924V47.8924C98.6332 47.8924 95.8601 50.6622 95.8601 54.0807H97.8601ZM102.052 58.2691C99.7363 58.2691 97.8601 56.3931 97.8601 54.0807H95.8601C95.8601 57.4992 98.6332 60.2691 102.052 60.2691V58.2691ZM126.017 60.2691C129.437 60.2691 132.21 57.4992 132.21 54.0807H130.21C130.21 56.3931 128.334 58.2691 126.017 58.2691V60.2691ZM119.825 54.0807C119.825 57.4992 122.598 60.2691 126.017 60.2691V58.2691C123.701 58.2691 121.825 56.3931 121.825 54.0807H119.825ZM126.017 47.8924C122.598 47.8924 119.825 50.6622 119.825 54.0807H121.825C121.825 51.7683 123.701 49.8924 126.017 49.8924V47.8924ZM132.21 54.0807C132.21 50.6622 129.437 47.8924 126.017 47.8924V49.8924C128.334 49.8924 130.21 51.7683 130.21 54.0807H132.21ZM154.175 54.0807C154.175 56.3931 152.299 58.2691 149.982 58.2691V60.2691C153.402 60.2691 156.175 57.4992 156.175 54.0807H154.175ZM149.982 49.8924C152.299 49.8924 154.175 51.7683 154.175 54.0807H156.175C156.175 50.6622 153.402 47.8924 149.982 47.8924V49.8924ZM145.79 54.0807C145.79 51.7683 147.666 49.8924 149.982 49.8924V47.8924C146.563 47.8924 143.79 50.6623 143.79 54.0807H145.79ZM149.982 58.2691C147.666 58.2691 145.79 56.3931 145.79 54.0807H143.79C143.79 57.4992 146.563 60.2691 149.982 60.2691V58.2691ZM173.948 60.2691C177.367 60.2691 180.14 57.4992 180.14 54.0807H178.14C178.14 56.3931 176.264 58.2691 173.948 58.2691V60.2691ZM167.755 54.0807C167.755 57.4992 170.528 60.2691 173.948 60.2691V58.2691C171.631 58.2691 169.755 56.3931 169.755 54.0807H167.755ZM173.948 47.8924C170.528 47.8924 167.755 50.6623 167.755 54.0807H169.755C169.755 51.7683 171.631 49.8924 173.948 49.8924V47.8924ZM180.14 54.0807C180.14 50.6622 177.367 47.8924 173.948 47.8924V49.8924C176.264 49.8924 178.14 51.7683 178.14 54.0807H180.14ZM202.105 54.0807C202.105 56.3931 200.229 58.2691 197.913 58.2691V60.2691C201.332 60.2691 204.105 57.4992 204.105 54.0807H202.105ZM197.913 49.8924C200.229 49.8924 202.105 51.7683 202.105 54.0807H204.105C204.105 50.6622 201.332 47.8924 197.913 47.8924V49.8924ZM193.72 54.0807C193.72 51.7683 195.596 49.8924 197.913 49.8924V47.8924C194.493 47.8924 191.72 50.6623 191.72 54.0807H193.72ZM197.913 58.2691C195.596 58.2691 193.72 56.3931 193.72 54.0807H191.72C191.72 57.4992 194.493 60.2691 197.913 60.2691V58.2691ZM221.878 60.2691C225.297 60.2691 228.07 57.4992 228.07 54.0807H226.07C226.07 56.3931 224.194 58.2691 221.878 58.2691V60.2691ZM215.685 54.0807C215.685 57.4992 218.458 60.2691 221.878 60.2691V58.2691C219.561 58.2691 217.685 56.3931 217.685 54.0807H215.685ZM221.878 47.8924C218.458 47.8924 215.685 50.6623 215.685 54.0807H217.685C217.685 51.7683 219.561 49.8924 221.878 49.8924V47.8924ZM228.07 54.0807C228.07 50.6622 225.297 47.8924 221.878 47.8924V49.8924C224.194 49.8924 226.07 51.7683 226.07 54.0807H228.07ZM250.035 54.0807C250.035 56.3931 248.159 58.2691 245.843 58.2691V60.2691C249.262 60.2691 252.035 57.4992 252.035 54.0807H250.035ZM245.843 49.8924C248.159 49.8924 250.035 51.7683 250.035 54.0807H252.035C252.035 50.6622 249.262 47.8924 245.843 47.8924V49.8924ZM241.65 54.0807C241.65 51.7683 243.526 49.8924 245.843 49.8924V47.8924C242.423 47.8924 239.65 50.6623 239.65 54.0807H241.65ZM245.843 58.2691C243.526 58.2691 241.65 56.3931 241.65 54.0807H239.65C239.65 57.4992 242.423 60.2691 245.843 60.2691V58.2691ZM269.808 60.2691C273.227 60.2691 276 57.4992 276 54.0807H274C274 56.3931 272.124 58.2691 269.808 58.2691V60.2691ZM263.615 54.0807C263.615 57.4992 266.388 60.2691 269.808 60.2691V58.2691C267.491 58.2691 265.615 56.3931 265.615 54.0807H263.615ZM269.808 47.8924C266.388 47.8924 263.615 50.6622 263.615 54.0807H265.615C265.615 51.7683 267.491 49.8924 269.808 49.8924V47.8924ZM276 54.0807C276 50.6623 273.227 47.8924 269.808 47.8924V49.8924C272.124 49.8924 274 51.7683 274 54.0807H276ZM30.1574 12.3767C33.5767 12.3767 36.3499 9.60681 36.3499 6.18834H34.3499C34.3499 8.50076 32.4736 10.3767 30.1574 10.3767V12.3767ZM23.965 6.18834C23.965 9.60681 26.7382 12.3767 30.1574 12.3767V10.3767C27.8413 10.3767 25.965 8.50076 25.965 6.18834H23.965ZM30.1574 0C26.7382 0 23.965 2.76987 23.965 6.18834H25.965C25.965 3.87593 27.8413 2 30.1574 2V0ZM36.3499 6.18834C36.3499 2.76987 33.5767 0 30.1574 0V2C32.4736 2 34.3499 3.87592 34.3499 6.18834H36.3499ZM6.19242 84.2152C9.61166 84.2152 12.3848 81.4454 12.3848 78.0269H10.3848C10.3848 80.3393 8.50857 82.2152 6.19242 82.2152V84.2152ZM0 78.0269C0 81.4454 2.77318 84.2152 6.19242 84.2152V82.2152C3.87627 82.2152 2 80.3393 2 78.0269H0ZM6.19242 71.8386C2.77318 71.8386 0 74.6084 0 78.0269H2C2 75.7145 3.87627 73.8386 6.19242 73.8386V71.8386ZM12.3848 78.0269C12.3848 74.6084 9.61166 71.8386 6.19242 71.8386V73.8386C8.50857 73.8386 10.3848 75.7145 10.3848 78.0269H12.3848ZM30.1574 84.2152C33.5767 84.2152 36.3499 81.4454 36.3499 78.0269H34.3499C34.3499 80.3393 32.4736 82.2152 30.1574 82.2152V84.2152ZM23.965 78.0269C23.965 81.4454 26.7382 84.2152 30.1574 84.2152V82.2152C27.8413 82.2152 25.965 80.3393 25.965 78.0269H23.965ZM30.1574 71.8386C26.7382 71.8386 23.965 74.6084 23.965 78.0269H25.965C25.965 75.7145 27.8413 73.8386 30.1574 73.8386V71.8386ZM36.3499 78.0269C36.3499 74.6084 33.5767 71.8386 30.1574 71.8386V73.8386C32.4736 73.8386 34.3499 75.7145 34.3499 78.0269H36.3499ZM58.3149 78.0269C58.3149 80.3393 56.4386 82.2152 54.1225 82.2152V84.2152C57.5417 84.2152 60.3149 81.4454 60.3149 78.0269H58.3149ZM54.1225 73.8386C56.4386 73.8386 58.3149 75.7145 58.3149 78.0269H60.3149C60.3149 74.6084 57.5417 71.8386 54.1225 71.8386V73.8386ZM49.93 78.0269C49.93 75.7145 51.8063 73.8386 54.1225 73.8386V71.8386C50.7032 71.8386 47.93 74.6084 47.93 78.0269H49.93ZM54.1225 82.2152C51.8063 82.2152 49.93 80.3393 49.93 78.0269H47.93C47.93 81.4454 50.7032 84.2152 54.1225 84.2152V82.2152ZM78.0875 84.2152C81.5067 84.2152 84.2799 81.4454 84.2799 78.0269H82.2799C82.2799 80.3393 80.4036 82.2152 78.0875 82.2152V84.2152ZM71.895 78.0269C71.895 81.4454 74.6682 84.2152 78.0875 84.2152V82.2152C75.7713 82.2152 73.895 80.3393 73.895 78.0269H71.895ZM78.0875 71.8386C74.6682 71.8386 71.895 74.6084 71.895 78.0269H73.895C73.895 75.7145 75.7713 73.8386 78.0875 73.8386V71.8386ZM84.2799 78.0269C84.2799 74.6084 81.5067 71.8386 78.0875 71.8386V73.8386C80.4036 73.8386 82.2799 75.7145 82.2799 78.0269H84.2799ZM106.245 78.0269C106.245 80.3393 104.369 82.2152 102.052 82.2152V84.2152C105.472 84.2152 108.245 81.4454 108.245 78.0269H106.245ZM102.052 73.8386C104.369 73.8386 106.245 75.7145 106.245 78.0269H108.245C108.245 74.6084 105.472 71.8386 102.052 71.8386V73.8386ZM97.8601 78.0269C97.8601 75.7145 99.7363 73.8386 102.052 73.8386V71.8386C98.6332 71.8386 95.8601 74.6084 95.8601 78.0269H97.8601ZM102.052 82.2152C99.7363 82.2152 97.8601 80.3393 97.8601 78.0269H95.8601C95.8601 81.4454 98.6332 84.2152 102.052 84.2152V82.2152ZM126.017 84.2152C129.437 84.2152 132.21 81.4454 132.21 78.0269H130.21C130.21 80.3393 128.334 82.2152 126.017 82.2152V84.2152ZM119.825 78.0269C119.825 81.4454 122.598 84.2152 126.017 84.2152V82.2152C123.701 82.2152 121.825 80.3393 121.825 78.0269H119.825ZM126.017 71.8386C122.598 71.8386 119.825 74.6084 119.825 78.0269H121.825C121.825 75.7145 123.701 73.8386 126.017 73.8386V71.8386ZM132.21 78.0269C132.21 74.6084 129.437 71.8386 126.017 71.8386V73.8386C128.334 73.8386 130.21 75.7145 130.21 78.0269H132.21ZM154.175 78.0269C154.175 80.3393 152.299 82.2152 149.982 82.2152V84.2152C153.402 84.2152 156.175 81.4454 156.175 78.0269H154.175ZM149.982 73.8386C152.299 73.8386 154.175 75.7145 154.175 78.0269H156.175C156.175 74.6084 153.402 71.8386 149.982 71.8386V73.8386ZM145.79 78.0269C145.79 75.7145 147.666 73.8386 149.982 73.8386V71.8386C146.563 71.8386 143.79 74.6084 143.79 78.0269H145.79ZM149.982 82.2152C147.666 82.2152 145.79 80.3393 145.79 78.0269H143.79C143.79 81.4454 146.563 84.2152 149.982 84.2152V82.2152ZM173.948 84.2152C177.367 84.2152 180.14 81.4454 180.14 78.0269H178.14C178.14 80.3393 176.264 82.2152 173.948 82.2152V84.2152ZM167.755 78.0269C167.755 81.4454 170.528 84.2152 173.948 84.2152V82.2152C171.631 82.2152 169.755 80.3393 169.755 78.0269H167.755ZM173.948 71.8386C170.528 71.8386 167.755 74.6084 167.755 78.0269H169.755C169.755 75.7145 171.631 73.8386 173.948 73.8386V71.8386ZM180.14 78.0269C180.14 74.6084 177.367 71.8386 173.948 71.8386V73.8386C176.264 73.8386 178.14 75.7145 178.14 78.0269H180.14ZM202.105 78.0269C202.105 80.3393 200.229 82.2152 197.913 82.2152V84.2152C201.332 84.2152 204.105 81.4454 204.105 78.0269H202.105ZM197.913 73.8386C200.229 73.8386 202.105 75.7145 202.105 78.0269H204.105C204.105 74.6084 201.332 71.8386 197.913 71.8386V73.8386ZM193.72 78.0269C193.72 75.7145 195.596 73.8386 197.913 73.8386V71.8386C194.493 71.8386 191.72 74.6084 191.72 78.0269H193.72ZM197.913 82.2152C195.596 82.2152 193.72 80.3393 193.72 78.0269H191.72C191.72 81.4454 194.493 84.2152 197.913 84.2152V82.2152ZM221.878 84.2152C225.297 84.2152 228.07 81.4454 228.07 78.0269H226.07C226.07 80.3393 224.194 82.2152 221.878 82.2152V84.2152ZM215.685 78.0269C215.685 81.4454 218.458 84.2152 221.878 84.2152V82.2152C219.561 82.2152 217.685 80.3393 217.685 78.0269H215.685ZM221.878 71.8386C218.458 71.8386 215.685 74.6084 215.685 78.0269H217.685C217.685 75.7145 219.561 73.8386 221.878 73.8386V71.8386ZM228.07 78.0269C228.07 74.6084 225.297 71.8386 221.878 71.8386V73.8386C224.194 73.8386 226.07 75.7145 226.07 78.0269H228.07ZM250.035 78.0269C250.035 80.3393 248.159 82.2152 245.843 82.2152V84.2152C249.262 84.2152 252.035 81.4454 252.035 78.0269H250.035ZM245.843 73.8386C248.159 73.8386 250.035 75.7145 250.035 78.0269H252.035C252.035 74.6084 249.262 71.8386 245.843 71.8386V73.8386ZM241.65 78.0269C241.65 75.7145 243.526 73.8386 245.843 73.8386V71.8386C242.423 71.8386 239.65 74.6084 239.65 78.0269H241.65ZM245.843 82.2152C243.526 82.2152 241.65 80.3393 241.65 78.0269H239.65C239.65 81.4454 242.423 84.2152 245.843 84.2152V82.2152ZM269.808 84.2152C273.227 84.2152 276 81.4454 276 78.0269H274C274 80.3393 272.124 82.2152 269.808 82.2152V84.2152ZM263.615 78.0269C263.615 81.4454 266.388 84.2152 269.808 84.2152V82.2152C267.491 82.2152 265.615 80.3393 265.615 78.0269H263.615ZM269.808 71.8386C266.388 71.8386 263.615 74.6084 263.615 78.0269H265.615C265.615 75.7145 267.491 73.8386 269.808 73.8386V71.8386ZM276 78.0269C276 74.6084 273.227 71.8386 269.808 71.8386V73.8386C272.124 73.8386 274 75.7145 274 78.0269H276ZM54.1225 12.3767C57.5417 12.3767 60.3149 9.60681 60.3149 6.18834H58.3149C58.3149 8.50076 56.4386 10.3767 54.1225 10.3767V12.3767ZM47.93 6.18834C47.93 9.60681 50.7032 12.3767 54.1225 12.3767V10.3767C51.8063 10.3767 49.93 8.50076 49.93 6.18834H47.93ZM54.1225 0C50.7032 0 47.93 2.76987 47.93 6.18834H49.93C49.93 3.87593 51.8063 2 54.1225 2V0ZM60.3149 6.18834C60.3149 2.76987 57.5417 0 54.1225 0V2C56.4386 2 58.3149 3.87593 58.3149 6.18834H60.3149ZM6.19242 108.161C9.61166 108.161 12.3848 105.392 12.3848 101.973H10.3848C10.3848 104.286 8.50857 106.161 6.19242 106.161V108.161ZM0 101.973C0 105.392 2.77318 108.161 6.19242 108.161V106.161C3.87627 106.161 2 104.286 2 101.973H0ZM6.19242 95.7848C2.77318 95.7848 0 98.5546 0 101.973H2C2 99.6607 3.87627 97.7848 6.19242 97.7848V95.7848ZM12.3848 101.973C12.3848 98.5546 9.61166 95.7848 6.19242 95.7848V97.7848C8.50857 97.7848 10.3848 99.6607 10.3848 101.973H12.3848ZM30.1574 108.161C33.5767 108.161 36.3499 105.392 36.3499 101.973H34.3499C34.3499 104.286 32.4736 106.161 30.1574 106.161V108.161ZM23.965 101.973C23.965 105.392 26.7382 108.161 30.1574 108.161V106.161C27.8413 106.161 25.965 104.286 25.965 101.973H23.965ZM30.1574 95.7848C26.7382 95.7848 23.965 98.5546 23.965 101.973H25.965C25.965 99.6607 27.8413 97.7848 30.1574 97.7848V95.7848ZM36.3499 101.973C36.3499 98.5546 33.5767 95.7848 30.1574 95.7848V97.7848C32.4736 97.7848 34.3499 99.6607 34.3499 101.973H36.3499ZM58.3149 101.973C58.3149 104.286 56.4386 106.161 54.1225 106.161V108.161C57.5417 108.161 60.3149 105.392 60.3149 101.973H58.3149ZM54.1225 97.7848C56.4386 97.7848 58.3149 99.6607 58.3149 101.973H60.3149C60.3149 98.5546 57.5417 95.7848 54.1225 95.7848V97.7848ZM49.93 101.973C49.93 99.6607 51.8063 97.7848 54.1225 97.7848V95.7848C50.7032 95.7848 47.93 98.5546 47.93 101.973H49.93ZM54.1225 106.161C51.8063 106.161 49.93 104.286 49.93 101.973H47.93C47.93 105.392 50.7032 108.161 54.1225 108.161V106.161ZM78.0875 108.161C81.5067 108.161 84.2799 105.392 84.2799 101.973H82.2799C82.2799 104.286 80.4036 106.161 78.0875 106.161V108.161ZM71.895 101.973C71.895 105.392 74.6682 108.161 78.0875 108.161V106.161C75.7713 106.161 73.895 104.286 73.895 101.973H71.895ZM78.0875 95.7848C74.6682 95.7848 71.895 98.5546 71.895 101.973H73.895C73.895 99.6607 75.7713 97.7848 78.0875 97.7848V95.7848ZM84.2799 101.973C84.2799 98.5546 81.5067 95.7848 78.0875 95.7848V97.7848C80.4036 97.7848 82.2799 99.6607 82.2799 101.973H84.2799ZM106.245 101.973C106.245 104.286 104.369 106.161 102.052 106.161V108.161C105.472 108.161 108.245 105.392 108.245 101.973H106.245ZM102.052 97.7848C104.369 97.7848 106.245 99.6607 106.245 101.973H108.245C108.245 98.5546 105.472 95.7848 102.052 95.7848V97.7848ZM97.8601 101.973C97.8601 99.6607 99.7363 97.7848 102.052 97.7848V95.7848C98.6332 95.7848 95.8601 98.5546 95.8601 101.973H97.8601ZM102.052 106.161C99.7363 106.161 97.8601 104.286 97.8601 101.973H95.8601C95.8601 105.392 98.6332 108.161 102.052 108.161V106.161ZM126.017 108.161C129.437 108.161 132.21 105.392 132.21 101.973H130.21C130.21 104.286 128.334 106.161 126.017 106.161V108.161ZM119.825 101.973C119.825 105.392 122.598 108.161 126.017 108.161V106.161C123.701 106.161 121.825 104.286 121.825 101.973H119.825ZM126.017 95.7848C122.598 95.7848 119.825 98.5546 119.825 101.973H121.825C121.825 99.6607 123.701 97.7848 126.017 97.7848V95.7848ZM132.21 101.973C132.21 98.5546 129.437 95.7848 126.017 95.7848V97.7848C128.334 97.7848 130.21 99.6607 130.21 101.973H132.21ZM154.175 101.973C154.175 104.286 152.299 106.161 149.982 106.161V108.161C153.402 108.161 156.175 105.392 156.175 101.973H154.175ZM149.982 97.7848C152.299 97.7848 154.175 99.6607 154.175 101.973H156.175C156.175 98.5546 153.402 95.7848 149.982 95.7848V97.7848ZM145.79 101.973C145.79 99.6607 147.666 97.7848 149.982 97.7848V95.7848C146.563 95.7848 143.79 98.5546 143.79 101.973H145.79ZM149.982 106.161C147.666 106.161 145.79 104.286 145.79 101.973H143.79C143.79 105.392 146.563 108.161 149.982 108.161V106.161ZM173.948 108.161C177.367 108.161 180.14 105.392 180.14 101.973H178.14C178.14 104.286 176.264 106.161 173.948 106.161V108.161ZM167.755 101.973C167.755 105.392 170.528 108.161 173.948 108.161V106.161C171.631 106.161 169.755 104.286 169.755 101.973H167.755ZM173.948 95.7848C170.528 95.7848 167.755 98.5546 167.755 101.973H169.755C169.755 99.6607 171.631 97.7848 173.948 97.7848V95.7848ZM180.14 101.973C180.14 98.5546 177.367 95.7848 173.948 95.7848V97.7848C176.264 97.7848 178.14 99.6607 178.14 101.973H180.14ZM202.105 101.973C202.105 104.286 200.229 106.161 197.913 106.161V108.161C201.332 108.161 204.105 105.392 204.105 101.973H202.105ZM197.913 97.7848C200.229 97.7848 202.105 99.6607 202.105 101.973H204.105C204.105 98.5546 201.332 95.7848 197.913 95.7848V97.7848ZM193.72 101.973C193.72 99.6607 195.596 97.7848 197.913 97.7848V95.7848C194.493 95.7848 191.72 98.5546 191.72 101.973H193.72ZM197.913 106.161C195.596 106.161 193.72 104.286 193.72 101.973H191.72C191.72 105.392 194.493 108.161 197.913 108.161V106.161ZM221.878 108.161C225.297 108.161 228.07 105.392 228.07 101.973H226.07C226.07 104.286 224.194 106.161 221.878 106.161V108.161ZM215.685 101.973C215.685 105.392 218.458 108.161 221.878 108.161V106.161C219.561 106.161 217.685 104.286 217.685 101.973H215.685ZM221.878 95.7848C218.458 95.7848 215.685 98.5546 215.685 101.973H217.685C217.685 99.6607 219.561 97.7848 221.878 97.7848V95.7848ZM228.07 101.973C228.07 98.5546 225.297 95.7848 221.878 95.7848V97.7848C224.194 97.7848 226.07 99.6607 226.07 101.973H228.07ZM250.035 101.973C250.035 104.286 248.159 106.161 245.843 106.161V108.161C249.262 108.161 252.035 105.392 252.035 101.973H250.035ZM245.843 97.7848C248.159 97.7848 250.035 99.6607 250.035 101.973H252.035C252.035 98.5546 249.262 95.7848 245.843 95.7848V97.7848ZM241.65 101.973C241.65 99.6607 243.526 97.7848 245.843 97.7848V95.7848C242.423 95.7848 239.65 98.5546 239.65 101.973H241.65ZM245.843 106.161C243.526 106.161 241.65 104.286 241.65 101.973H239.65C239.65 105.392 242.423 108.161 245.843 108.161V106.161ZM269.808 108.161C273.227 108.161 276 105.392 276 101.973H274C274 104.286 272.124 106.161 269.808 106.161V108.161ZM263.615 101.973C263.615 105.392 266.388 108.161 269.808 108.161V106.161C267.491 106.161 265.615 104.286 265.615 101.973H263.615ZM269.808 95.7848C266.388 95.7848 263.615 98.5546 263.615 101.973H265.615C265.615 99.6607 267.491 97.7848 269.808 97.7848V95.7848ZM276 101.973C276 98.5546 273.227 95.7848 269.808 95.7848V97.7848C272.124 97.7848 274 99.6607 274 101.973H276ZM78.0875 12.3767C81.5067 12.3767 84.2799 9.60681 84.2799 6.18834H82.2799C82.2799 8.50076 80.4036 10.3767 78.0875 10.3767V12.3767ZM71.895 6.18834C71.895 9.60681 74.6682 12.3767 78.0875 12.3767V10.3767C75.7713 10.3767 73.895 8.50076 73.895 6.18834H71.895ZM78.0875 0C74.6682 0 71.895 2.76987 71.895 6.18834H73.895C73.895 3.87592 75.7713 2 78.0875 2V0ZM84.2799 6.18834C84.2799 2.76987 81.5067 0 78.0875 0V2C80.4036 2 82.2799 3.87593 82.2799 6.18834H84.2799ZM6.19242 132.108C9.61166 132.108 12.3848 129.338 12.3848 125.919H10.3848C10.3848 128.232 8.50857 130.108 6.19242 130.108V132.108ZM0 125.919C0 129.338 2.77318 132.108 6.19242 132.108V130.108C3.87627 130.108 2 128.232 2 125.919H0ZM6.19242 119.731C2.77318 119.731 0 122.501 0 125.919H2C2 123.607 3.87627 121.731 6.19242 121.731V119.731ZM12.3848 125.919C12.3848 122.501 9.61166 119.731 6.19242 119.731V121.731C8.50857 121.731 10.3848 123.607 10.3848 125.919H12.3848ZM30.1574 132.108C33.5767 132.108 36.3499 129.338 36.3499 125.919H34.3499C34.3499 128.232 32.4736 130.108 30.1574 130.108V132.108ZM23.965 125.919C23.965 129.338 26.7382 132.108 30.1574 132.108V130.108C27.8413 130.108 25.965 128.232 25.965 125.919H23.965ZM30.1574 119.731C26.7382 119.731 23.965 122.501 23.965 125.919H25.965C25.965 123.607 27.8413 121.731 30.1574 121.731V119.731ZM36.3499 125.919C36.3499 122.501 33.5767 119.731 30.1574 119.731V121.731C32.4736 121.731 34.3499 123.607 34.3499 125.919H36.3499ZM58.3149 125.919C58.3149 128.232 56.4386 130.108 54.1225 130.108V132.108C57.5417 132.108 60.3149 129.338 60.3149 125.919H58.3149ZM54.1225 121.731C56.4386 121.731 58.3149 123.607 58.3149 125.919H60.3149C60.3149 122.501 57.5417 119.731 54.1225 119.731V121.731ZM49.93 125.919C49.93 123.607 51.8063 121.731 54.1225 121.731V119.731C50.7032 119.731 47.93 122.501 47.93 125.919H49.93ZM54.1225 130.108C51.8063 130.108 49.93 128.232 49.93 125.919H47.93C47.93 129.338 50.7032 132.108 54.1225 132.108V130.108ZM78.0875 132.108C81.5067 132.108 84.2799 129.338 84.2799 125.919H82.2799C82.2799 128.232 80.4036 130.108 78.0875 130.108V132.108ZM71.895 125.919C71.895 129.338 74.6682 132.108 78.0875 132.108V130.108C75.7713 130.108 73.895 128.232 73.895 125.919H71.895ZM78.0875 119.731C74.6682 119.731 71.895 122.501 71.895 125.919H73.895C73.895 123.607 75.7713 121.731 78.0875 121.731V119.731ZM84.2799 125.919C84.2799 122.501 81.5067 119.731 78.0875 119.731V121.731C80.4036 121.731 82.2799 123.607 82.2799 125.919H84.2799ZM106.245 125.919C106.245 128.232 104.369 130.108 102.052 130.108V132.108C105.472 132.108 108.245 129.338 108.245 125.919H106.245ZM102.052 121.731C104.369 121.731 106.245 123.607 106.245 125.919H108.245C108.245 122.501 105.472 119.731 102.052 119.731V121.731ZM97.8601 125.919C97.8601 123.607 99.7363 121.731 102.052 121.731V119.731C98.6332 119.731 95.8601 122.501 95.8601 125.919H97.8601ZM102.052 130.108C99.7363 130.108 97.8601 128.232 97.8601 125.919H95.8601C95.8601 129.338 98.6332 132.108 102.052 132.108V130.108ZM126.017 132.108C129.437 132.108 132.21 129.338 132.21 125.919H130.21C130.21 128.232 128.334 130.108 126.017 130.108V132.108ZM119.825 125.919C119.825 129.338 122.598 132.108 126.017 132.108V130.108C123.701 130.108 121.825 128.232 121.825 125.919H119.825ZM126.017 119.731C122.598 119.731 119.825 122.501 119.825 125.919H121.825C121.825 123.607 123.701 121.731 126.017 121.731V119.731ZM132.21 125.919C132.21 122.501 129.437 119.731 126.017 119.731V121.731C128.334 121.731 130.21 123.607 130.21 125.919H132.21ZM154.175 125.919C154.175 128.232 152.299 130.108 149.982 130.108V132.108C153.402 132.108 156.175 129.338 156.175 125.919H154.175ZM149.982 121.731C152.299 121.731 154.175 123.607 154.175 125.919H156.175C156.175 122.501 153.402 119.731 149.982 119.731V121.731ZM145.79 125.919C145.79 123.607 147.666 121.731 149.982 121.731V119.731C146.563 119.731 143.79 122.501 143.79 125.919H145.79ZM149.982 130.108C147.666 130.108 145.79 128.232 145.79 125.919H143.79C143.79 129.338 146.563 132.108 149.982 132.108V130.108ZM173.948 132.108C177.367 132.108 180.14 129.338 180.14 125.919H178.14C178.14 128.232 176.264 130.108 173.948 130.108V132.108ZM167.755 125.919C167.755 129.338 170.528 132.108 173.948 132.108V130.108C171.631 130.108 169.755 128.232 169.755 125.919H167.755ZM173.948 119.731C170.528 119.731 167.755 122.501 167.755 125.919H169.755C169.755 123.607 171.631 121.731 173.948 121.731V119.731ZM180.14 125.919C180.14 122.501 177.367 119.731 173.948 119.731V121.731C176.264 121.731 178.14 123.607 178.14 125.919H180.14ZM202.105 125.919C202.105 128.232 200.229 130.108 197.913 130.108V132.108C201.332 132.108 204.105 129.338 204.105 125.919H202.105ZM197.913 121.731C200.229 121.731 202.105 123.607 202.105 125.919H204.105C204.105 122.501 201.332 119.731 197.913 119.731V121.731ZM193.72 125.919C193.72 123.607 195.596 121.731 197.913 121.731V119.731C194.493 119.731 191.72 122.501 191.72 125.919H193.72ZM197.913 130.108C195.596 130.108 193.72 128.232 193.72 125.919H191.72C191.72 129.338 194.493 132.108 197.913 132.108V130.108ZM221.878 132.108C225.297 132.108 228.07 129.338 228.07 125.919H226.07C226.07 128.232 224.194 130.108 221.878 130.108V132.108ZM215.685 125.919C215.685 129.338 218.458 132.108 221.878 132.108V130.108C219.561 130.108 217.685 128.232 217.685 125.919H215.685ZM221.878 119.731C218.458 119.731 215.685 122.501 215.685 125.919H217.685C217.685 123.607 219.561 121.731 221.878 121.731V119.731ZM228.07 125.919C228.07 122.501 225.297 119.731 221.878 119.731V121.731C224.194 121.731 226.07 123.607 226.07 125.919H228.07ZM250.035 125.919C250.035 128.232 248.159 130.108 245.843 130.108V132.108C249.262 132.108 252.035 129.338 252.035 125.919H250.035ZM245.843 121.731C248.159 121.731 250.035 123.607 250.035 125.919H252.035C252.035 122.501 249.262 119.731 245.843 119.731V121.731ZM241.65 125.919C241.65 123.607 243.526 121.731 245.843 121.731V119.731C242.423 119.731 239.65 122.501 239.65 125.919H241.65ZM245.843 130.108C243.526 130.108 241.65 128.232 241.65 125.919H239.65C239.65 129.338 242.423 132.108 245.843 132.108V130.108ZM269.808 132.108C273.227 132.108 276 129.338 276 125.919H274C274 128.232 272.124 130.108 269.808 130.108V132.108ZM263.615 125.919C263.615 129.338 266.388 132.108 269.808 132.108V130.108C267.491 130.108 265.615 128.232 265.615 125.919H263.615ZM269.808 119.731C266.388 119.731 263.615 122.501 263.615 125.919H265.615C265.615 123.607 267.491 121.731 269.808 121.731V119.731ZM276 125.919C276 122.501 273.227 119.731 269.808 119.731V121.731C272.124 121.731 274 123.607 274 125.919H276ZM102.052 12.3767C105.472 12.3767 108.245 9.60681 108.245 6.18834H106.245C106.245 8.50076 104.369 10.3767 102.052 10.3767V12.3767ZM95.8601 6.18834C95.8601 9.60681 98.6332 12.3767 102.052 12.3767V10.3767C99.7363 10.3767 97.8601 8.50076 97.8601 6.18834H95.8601ZM102.052 0C98.6332 0 95.8601 2.76987 95.8601 6.18834H97.8601C97.8601 3.87592 99.7363 2 102.052 2V0ZM108.245 6.18834C108.245 2.76987 105.472 0 102.052 0V2C104.369 2 106.245 3.87593 106.245 6.18834H108.245ZM6.19242 156.054C9.61166 156.054 12.3848 153.284 12.3848 149.865H10.3848C10.3848 152.178 8.50857 154.054 6.19242 154.054V156.054ZM0 149.865C0 153.284 2.77318 156.054 6.19242 156.054V154.054C3.87627 154.054 2 152.178 2 149.865H0ZM6.19242 143.677C2.77318 143.677 0 146.447 0 149.865H2C2 147.553 3.87627 145.677 6.19242 145.677V143.677ZM12.3848 149.865C12.3848 146.447 9.61166 143.677 6.19242 143.677V145.677C8.50857 145.677 10.3848 147.553 10.3848 149.865H12.3848ZM30.1574 156.054C33.5767 156.054 36.3499 153.284 36.3499 149.865H34.3499C34.3499 152.178 32.4736 154.054 30.1574 154.054V156.054ZM23.965 149.865C23.965 153.284 26.7382 156.054 30.1574 156.054V154.054C27.8413 154.054 25.965 152.178 25.965 149.865H23.965ZM30.1574 143.677C26.7382 143.677 23.965 146.447 23.965 149.865H25.965C25.965 147.553 27.8413 145.677 30.1574 145.677V143.677ZM36.3499 149.865C36.3499 146.447 33.5767 143.677 30.1574 143.677V145.677C32.4736 145.677 34.3499 147.553 34.3499 149.865H36.3499ZM58.3149 149.865C58.3149 152.178 56.4386 154.054 54.1225 154.054V156.054C57.5417 156.054 60.3149 153.284 60.3149 149.865H58.3149ZM54.1225 145.677C56.4386 145.677 58.3149 147.553 58.3149 149.865H60.3149C60.3149 146.447 57.5417 143.677 54.1225 143.677V145.677ZM49.93 149.865C49.93 147.553 51.8063 145.677 54.1225 145.677V143.677C50.7032 143.677 47.93 146.447 47.93 149.865H49.93ZM54.1225 154.054C51.8063 154.054 49.93 152.178 49.93 149.865H47.93C47.93 153.284 50.7032 156.054 54.1225 156.054V154.054ZM78.0875 156.054C81.5067 156.054 84.2799 153.284 84.2799 149.865H82.2799C82.2799 152.178 80.4036 154.054 78.0875 154.054V156.054ZM71.895 149.865C71.895 153.284 74.6682 156.054 78.0875 156.054V154.054C75.7713 154.054 73.895 152.178 73.895 149.865H71.895ZM78.0875 143.677C74.6682 143.677 71.895 146.447 71.895 149.865H73.895C73.895 147.553 75.7713 145.677 78.0875 145.677V143.677ZM84.2799 149.865C84.2799 146.447 81.5067 143.677 78.0875 143.677V145.677C80.4036 145.677 82.2799 147.553 82.2799 149.865H84.2799ZM106.245 149.865C106.245 152.178 104.369 154.054 102.052 154.054V156.054C105.472 156.054 108.245 153.284 108.245 149.865H106.245ZM102.052 145.677C104.369 145.677 106.245 147.553 106.245 149.865H108.245C108.245 146.447 105.472 143.677 102.052 143.677V145.677ZM97.8601 149.865C97.8601 147.553 99.7363 145.677 102.052 145.677V143.677C98.6332 143.677 95.8601 146.447 95.8601 149.865H97.8601ZM102.052 154.054C99.7363 154.054 97.8601 152.178 97.8601 149.865H95.8601C95.8601 153.284 98.6332 156.054 102.052 156.054V154.054ZM126.017 156.054C129.437 156.054 132.21 153.284 132.21 149.865H130.21C130.21 152.178 128.334 154.054 126.017 154.054V156.054ZM119.825 149.865C119.825 153.284 122.598 156.054 126.017 156.054V154.054C123.701 154.054 121.825 152.178 121.825 149.865H119.825ZM126.017 143.677C122.598 143.677 119.825 146.447 119.825 149.865H121.825C121.825 147.553 123.701 145.677 126.017 145.677V143.677ZM132.21 149.865C132.21 146.447 129.437 143.677 126.017 143.677V145.677C128.334 145.677 130.21 147.553 130.21 149.865H132.21ZM154.175 149.865C154.175 152.178 152.299 154.054 149.982 154.054V156.054C153.402 156.054 156.175 153.284 156.175 149.865H154.175ZM149.982 145.677C152.299 145.677 154.175 147.553 154.175 149.865H156.175C156.175 146.447 153.402 143.677 149.982 143.677V145.677ZM145.79 149.865C145.79 147.553 147.666 145.677 149.982 145.677V143.677C146.563 143.677 143.79 146.447 143.79 149.865H145.79ZM149.982 154.054C147.666 154.054 145.79 152.178 145.79 149.865H143.79C143.79 153.284 146.563 156.054 149.982 156.054V154.054ZM173.948 156.054C177.367 156.054 180.14 153.284 180.14 149.865H178.14C178.14 152.178 176.264 154.054 173.948 154.054V156.054ZM167.755 149.865C167.755 153.284 170.528 156.054 173.948 156.054V154.054C171.631 154.054 169.755 152.178 169.755 149.865H167.755ZM173.948 143.677C170.528 143.677 167.755 146.447 167.755 149.865H169.755C169.755 147.553 171.631 145.677 173.948 145.677V143.677ZM180.14 149.865C180.14 146.447 177.367 143.677 173.948 143.677V145.677C176.264 145.677 178.14 147.553 178.14 149.865H180.14ZM202.105 149.865C202.105 152.178 200.229 154.054 197.913 154.054V156.054C201.332 156.054 204.105 153.284 204.105 149.865H202.105ZM197.913 145.677C200.229 145.677 202.105 147.553 202.105 149.865H204.105C204.105 146.447 201.332 143.677 197.913 143.677V145.677ZM193.72 149.865C193.72 147.553 195.596 145.677 197.913 145.677V143.677C194.493 143.677 191.72 146.447 191.72 149.865H193.72ZM197.913 154.054C195.596 154.054 193.72 152.178 193.72 149.865H191.72C191.72 153.284 194.493 156.054 197.913 156.054V154.054ZM221.878 156.054C225.297 156.054 228.07 153.284 228.07 149.865H226.07C226.07 152.178 224.194 154.054 221.878 154.054V156.054ZM215.685 149.865C215.685 153.284 218.458 156.054 221.878 156.054V154.054C219.561 154.054 217.685 152.178 217.685 149.865H215.685ZM221.878 143.677C218.458 143.677 215.685 146.447 215.685 149.865H217.685C217.685 147.553 219.561 145.677 221.878 145.677V143.677ZM228.07 149.865C228.07 146.447 225.297 143.677 221.878 143.677V145.677C224.194 145.677 226.07 147.553 226.07 149.865H228.07ZM250.035 149.865C250.035 152.178 248.159 154.054 245.843 154.054V156.054C249.262 156.054 252.035 153.284 252.035 149.865H250.035ZM245.843 145.677C248.159 145.677 250.035 147.553 250.035 149.865H252.035C252.035 146.447 249.262 143.677 245.843 143.677V145.677ZM241.65 149.865C241.65 147.553 243.526 145.677 245.843 145.677V143.677C242.423 143.677 239.65 146.447 239.65 149.865H241.65ZM245.843 154.054C243.526 154.054 241.65 152.178 241.65 149.865H239.65C239.65 153.284 242.423 156.054 245.843 156.054V154.054ZM269.808 156.054C273.227 156.054 276 153.284 276 149.865H274C274 152.178 272.124 154.054 269.808 154.054V156.054ZM263.615 149.865C263.615 153.284 266.388 156.054 269.808 156.054V154.054C267.491 154.054 265.615 152.178 265.615 149.865H263.615ZM269.808 143.677C266.388 143.677 263.615 146.447 263.615 149.865H265.615C265.615 147.553 267.491 145.677 269.808 145.677V143.677ZM276 149.865C276 146.447 273.227 143.677 269.808 143.677V145.677C272.124 145.677 274 147.553 274 149.865H276ZM126.017 12.3767C129.437 12.3767 132.21 9.60681 132.21 6.18834H130.21C130.21 8.50076 128.334 10.3767 126.017 10.3767V12.3767ZM119.825 6.18834C119.825 9.60681 122.598 12.3767 126.017 12.3767V10.3767C123.701 10.3767 121.825 8.50076 121.825 6.18834H119.825ZM126.017 0C122.598 0 119.825 2.76987 119.825 6.18834H121.825C121.825 3.87592 123.701 2 126.017 2V0ZM132.21 6.18834C132.21 2.76987 129.437 0 126.017 0V2C128.334 2 130.21 3.87593 130.21 6.18834H132.21ZM6.19242 180C9.61166 180 12.3848 177.23 12.3848 173.812H10.3848C10.3848 176.124 8.50857 178 6.19242 178V180ZM0 173.812C0 177.23 2.77318 180 6.19242 180V178C3.87627 178 2 176.124 2 173.812H0ZM6.19242 167.623C2.77318 167.623 0 170.393 0 173.812H2C2 171.499 3.87627 169.623 6.19242 169.623V167.623ZM12.3848 173.812C12.3848 170.393 9.61166 167.623 6.19242 167.623V169.623C8.50857 169.623 10.3848 171.499 10.3848 173.812H12.3848ZM30.1574 180C33.5767 180 36.3499 177.23 36.3499 173.812H34.3499C34.3499 176.124 32.4736 178 30.1574 178V180ZM23.965 173.812C23.965 177.23 26.7382 180 30.1574 180V178C27.8413 178 25.965 176.124 25.965 173.812H23.965ZM30.1574 167.623C26.7382 167.623 23.965 170.393 23.965 173.812H25.965C25.965 171.499 27.8413 169.623 30.1574 169.623V167.623ZM36.3499 173.812C36.3499 170.393 33.5767 167.623 30.1574 167.623V169.623C32.4736 169.623 34.3499 171.499 34.3499 173.812H36.3499ZM58.3149 173.812C58.3149 176.124 56.4386 178 54.1225 178V180C57.5417 180 60.3149 177.23 60.3149 173.812H58.3149ZM54.1225 169.623C56.4386 169.623 58.3149 171.499 58.3149 173.812H60.3149C60.3149 170.393 57.5417 167.623 54.1225 167.623V169.623ZM49.93 173.812C49.93 171.499 51.8063 169.623 54.1225 169.623V167.623C50.7032 167.623 47.93 170.393 47.93 173.812H49.93ZM54.1225 178C51.8063 178 49.93 176.124 49.93 173.812H47.93C47.93 177.23 50.7032 180 54.1225 180V178ZM78.0875 180C81.5067 180 84.2799 177.23 84.2799 173.812H82.2799C82.2799 176.124 80.4036 178 78.0875 178V180ZM71.895 173.812C71.895 177.23 74.6682 180 78.0875 180V178C75.7713 178 73.895 176.124 73.895 173.812H71.895ZM78.0875 167.623C74.6682 167.623 71.895 170.393 71.895 173.812H73.895C73.895 171.499 75.7713 169.623 78.0875 169.623V167.623ZM84.2799 173.812C84.2799 170.393 81.5067 167.623 78.0875 167.623V169.623C80.4036 169.623 82.2799 171.499 82.2799 173.812H84.2799ZM106.245 173.812C106.245 176.124 104.369 178 102.052 178V180C105.472 180 108.245 177.23 108.245 173.812H106.245ZM102.052 169.623C104.369 169.623 106.245 171.499 106.245 173.812H108.245C108.245 170.393 105.472 167.623 102.052 167.623V169.623ZM97.8601 173.812C97.8601 171.499 99.7363 169.623 102.052 169.623V167.623C98.6332 167.623 95.8601 170.393 95.8601 173.812H97.8601ZM102.052 178C99.7363 178 97.8601 176.124 97.8601 173.812H95.8601C95.8601 177.23 98.6332 180 102.052 180V178ZM126.017 180C129.437 180 132.21 177.23 132.21 173.812H130.21C130.21 176.124 128.334 178 126.017 178V180ZM119.825 173.812C119.825 177.23 122.598 180 126.017 180V178C123.701 178 121.825 176.124 121.825 173.812H119.825ZM126.017 167.623C122.598 167.623 119.825 170.393 119.825 173.812H121.825C121.825 171.499 123.701 169.623 126.017 169.623V167.623ZM132.21 173.812C132.21 170.393 129.437 167.623 126.017 167.623V169.623C128.334 169.623 130.21 171.499 130.21 173.812H132.21ZM154.175 173.812C154.175 176.124 152.299 178 149.982 178V180C153.402 180 156.175 177.23 156.175 173.812H154.175ZM149.982 169.623C152.299 169.623 154.175 171.499 154.175 173.812H156.175C156.175 170.393 153.402 167.623 149.982 167.623V169.623ZM145.79 173.812C145.79 171.499 147.666 169.623 149.982 169.623V167.623C146.563 167.623 143.79 170.393 143.79 173.812H145.79ZM149.982 178C147.666 178 145.79 176.124 145.79 173.812H143.79C143.79 177.23 146.563 180 149.982 180V178ZM173.948 180C177.367 180 180.14 177.23 180.14 173.812H178.14C178.14 176.124 176.264 178 173.948 178V180ZM167.755 173.812C167.755 177.23 170.528 180 173.948 180V178C171.631 178 169.755 176.124 169.755 173.812H167.755ZM173.948 167.623C170.528 167.623 167.755 170.393 167.755 173.812H169.755C169.755 171.499 171.631 169.623 173.948 169.623V167.623ZM180.14 173.812C180.14 170.393 177.367 167.623 173.948 167.623V169.623C176.264 169.623 178.14 171.499 178.14 173.812H180.14ZM202.105 173.812C202.105 176.124 200.229 178 197.913 178V180C201.332 180 204.105 177.23 204.105 173.812H202.105ZM197.913 169.623C200.229 169.623 202.105 171.499 202.105 173.812H204.105C204.105 170.393 201.332 167.623 197.913 167.623V169.623ZM193.72 173.812C193.72 171.499 195.596 169.623 197.913 169.623V167.623C194.493 167.623 191.72 170.393 191.72 173.812H193.72ZM197.913 178C195.596 178 193.72 176.124 193.72 173.812H191.72C191.72 177.23 194.493 180 197.913 180V178ZM221.878 180C225.297 180 228.07 177.23 228.07 173.812H226.07C226.07 176.124 224.194 178 221.878 178V180ZM215.685 173.812C215.685 177.23 218.458 180 221.878 180V178C219.561 178 217.685 176.124 217.685 173.812H215.685ZM221.878 167.623C218.458 167.623 215.685 170.393 215.685 173.812H217.685C217.685 171.499 219.561 169.623 221.878 169.623V167.623ZM228.07 173.812C228.07 170.393 225.297 167.623 221.878 167.623V169.623C224.194 169.623 226.07 171.499 226.07 173.812H228.07ZM250.035 173.812C250.035 176.124 248.159 178 245.843 178V180C249.262 180 252.035 177.23 252.035 173.812H250.035ZM245.843 169.623C248.159 169.623 250.035 171.499 250.035 173.812H252.035C252.035 170.393 249.262 167.623 245.843 167.623V169.623ZM241.65 173.812C241.65 171.499 243.526 169.623 245.843 169.623V167.623C242.423 167.623 239.65 170.393 239.65 173.812H241.65ZM245.843 178C243.526 178 241.65 176.124 241.65 173.812H239.65C239.65 177.23 242.423 180 245.843 180V178ZM269.808 180C273.227 180 276 177.23 276 173.812H274C274 176.124 272.124 178 269.808 178V180ZM263.615 173.812C263.615 177.23 266.388 180 269.808 180V178C267.491 178 265.615 176.124 265.615 173.812H263.615ZM269.808 167.623C266.388 167.623 263.615 170.393 263.615 173.812H265.615C265.615 171.499 267.491 169.623 269.808 169.623V167.623ZM276 173.812C276 170.393 273.227 167.623 269.808 167.623V169.623C272.124 169.623 274 171.499 274 173.812H276ZM149.982 12.3767C153.402 12.3767 156.175 9.60681 156.175 6.18834H154.175C154.175 8.50076 152.299 10.3767 149.982 10.3767V12.3767ZM143.79 6.18834C143.79 9.60681 146.563 12.3767 149.982 12.3767V10.3767C147.666 10.3767 145.79 8.50076 145.79 6.18834H143.79ZM149.982 0C146.563 0 143.79 2.76988 143.79 6.18834H145.79C145.79 3.87592 147.666 2 149.982 2V0ZM156.175 6.18834C156.175 2.76987 153.402 0 149.982 0V2C152.299 2 154.175 3.87593 154.175 6.18834H156.175ZM178.14 6.18834C178.14 8.50076 176.264 10.3767 173.948 10.3767V12.3767C177.367 12.3767 180.14 9.60681 180.14 6.18834H178.14ZM173.948 2C176.264 2 178.14 3.87593 178.14 6.18834H180.14C180.14 2.76987 177.367 0 173.948 0V2ZM169.755 6.18834C169.755 3.87592 171.631 2 173.948 2V0C170.528 0 167.755 2.76988 167.755 6.18834H169.755ZM173.948 10.3767C171.631 10.3767 169.755 8.50076 169.755 6.18834H167.755C167.755 9.60681 170.528 12.3767 173.948 12.3767V10.3767ZM197.913 12.3767C201.332 12.3767 204.105 9.60681 204.105 6.18834H202.105C202.105 8.50076 200.229 10.3767 197.913 10.3767V12.3767ZM191.72 6.18834C191.72 9.60681 194.493 12.3767 197.913 12.3767V10.3767C195.596 10.3767 193.72 8.50076 193.72 6.18834H191.72ZM197.913 0C194.493 0 191.72 2.76988 191.72 6.18834H193.72C193.72 3.87592 195.596 2 197.913 2V0ZM204.105 6.18834C204.105 2.76987 201.332 0 197.913 0V2C200.229 2 202.105 3.87593 202.105 6.18834H204.105ZM226.07 6.18834C226.07 8.50076 224.194 10.3767 221.878 10.3767V12.3767C225.297 12.3767 228.07 9.60681 228.07 6.18834H226.07ZM221.878 2C224.194 2 226.07 3.87593 226.07 6.18834H228.07C228.07 2.76987 225.297 0 221.878 0V2ZM217.685 6.18834C217.685 3.87592 219.561 2 221.878 2V0C218.458 0 215.685 2.76988 215.685 6.18834H217.685ZM221.878 10.3767C219.561 10.3767 217.685 8.50076 217.685 6.18834H215.685C215.685 9.60681 218.458 12.3767 221.878 12.3767V10.3767ZM245.843 12.3767C249.262 12.3767 252.035 9.60681 252.035 6.18834H250.035C250.035 8.50076 248.159 10.3767 245.843 10.3767V12.3767ZM239.65 6.18834C239.65 9.60681 242.423 12.3767 245.843 12.3767V10.3767C243.526 10.3767 241.65 8.50076 241.65 6.18834H239.65ZM245.843 0C242.423 0 239.65 2.76988 239.65 6.18834H241.65C241.65 3.87592 243.526 2 245.843 2V0ZM252.035 6.18834C252.035 2.76987 249.262 0 245.843 0V2C248.159 2 250.035 3.87593 250.035 6.18834H252.035ZM274 6.18834C274 8.50076 272.124 10.3767 269.808 10.3767V12.3767C273.227 12.3767 276 9.6068 276 6.18834H274ZM269.808 2C272.124 2 274 3.87592 274 6.18834H276C276 2.76988 273.227 0 269.808 0V2ZM265.615 6.18834C265.615 3.87593 267.491 2 269.808 2V0C266.388 0 263.615 2.76987 263.615 6.18834H265.615ZM269.808 10.3767C267.491 10.3767 265.615 8.50076 265.615 6.18834H263.615C263.615 9.60681 266.388 12.3767 269.808 12.3767V10.3767Z" fill="#979797" mask="url(#path-1-outside-1_22_4)"/>
</g>
</svg>
