<svg width="211" height="26" viewBox="0 0 211 26" fill="none" xmlns="http://www.w3.org/2000/svg">
<g clip-path="url(#clip0_0_23)">
<path d="M9.09021 20.3403L5.25008 26L6.38908 16.6919L0 9.76417L8.93659 7.71424L13.6723 0L17.8732 7.71424L27.3446 9.76417L20.7414 16.6919L22.3119 26L16.0951 17.8086" stroke="#FF6666" stroke-width="2.06116"/>
<path d="M17.997 14.0104C17.997 16.4 16.0144 18.378 13.5178 18.378C11.0211 18.378 9.03847 16.4 9.03847 14.0104C9.03847 11.6209 11.0211 9.64284 13.5178 9.64284C16.0144 9.64284 17.997 11.6209 17.997 14.0104Z" stroke="#FF6666" stroke-width="2.43217"/>
<path d="M40.6168 20.1821C42.2559 20.1821 43.5712 19.7369 44.5424 18.8264C45.5137 17.9158 45.9994 16.8433 45.9994 15.609C45.9994 14.4556 45.6149 13.5046 44.8662 12.7761C44.1175 12.0274 42.7618 11.3597 40.799 10.7728C38.8564 10.186 37.8649 9.5385 37.8649 8.34464C37.8649 7.06983 38.9778 6.17949 40.5157 6.17949C42.0333 6.17949 43.1058 6.92819 43.7128 8.40534L45.7768 7.29242C45.0281 5.32962 43.2474 3.93341 40.5764 3.93341C39.0992 3.93341 37.8649 4.37858 36.8329 5.26892C35.8212 6.13902 35.3153 7.21148 35.3153 8.48628C35.3153 9.70038 35.72 10.6717 36.5294 11.3799C37.2983 12.0679 38.5326 12.6749 40.2526 13.2213C42.5189 13.9295 43.4295 14.5973 43.4295 15.7506C43.4295 17.0659 42.2761 17.9158 40.6573 17.9158C38.9373 17.9158 37.5614 16.985 36.8936 15.2852L34.7892 16.3779C35.6795 18.8061 37.8447 20.1821 40.6168 20.1821ZM58.0912 15.3055C58.1115 15.1234 58.1317 14.8805 58.1317 14.5568C58.1317 12.8773 57.6663 11.5418 56.7355 10.5098C55.8047 9.4778 54.5096 8.97192 52.8706 8.97192C51.3125 8.97192 50.0175 9.51827 48.9855 10.611C47.9535 11.7036 47.4274 13.0189 47.4274 14.577C47.4274 16.1756 47.9737 17.5313 49.0462 18.6038C50.1389 19.6762 51.4946 20.2024 53.0932 20.2024C55.0357 20.2024 56.7962 19.2715 57.7068 17.592L55.9666 16.4386C55.3797 17.5516 54.4085 18.1181 53.0527 18.1181C52.2231 18.1181 51.4946 17.8551 50.8673 17.329C50.2401 16.7826 49.9163 16.1149 49.8961 15.3055H58.0912ZM52.8706 11.0359C54.4085 11.0359 55.6023 11.9667 55.6833 13.4843H50.0175C50.2401 12.0072 51.3934 11.0359 52.8706 11.0359ZM66.3508 12.6749C66.3508 13.282 66.0068 13.5855 65.339 13.5855H64.0035C62.1014 13.5855 59.5114 14.3747 59.5114 16.8838V17.0052C59.5114 17.936 59.8554 18.705 60.5433 19.2918C61.2313 19.8786 62.1014 20.1821 63.1537 20.1821C64.6106 20.1821 65.6628 19.6358 66.3306 18.5228V20H68.6981V13.1201C68.6981 12.3714 68.5766 11.7239 68.3338 11.1775C67.6661 9.70038 66.3103 8.97192 64.2868 8.97192C62.0812 8.97192 60.5433 9.8825 59.6935 11.7239L61.5349 12.7761C62.0812 11.6227 62.9918 11.0561 64.2261 11.0561C65.5819 11.0561 66.3508 11.7846 66.3508 12.6749ZM66.3306 15.6292C66.3306 17.248 65.2783 18.2598 63.6393 18.2598C62.6073 18.2598 61.9193 17.673 61.9193 16.7826C61.9193 16.3172 62.1419 15.953 62.5668 15.6899C63.012 15.4269 63.4977 15.2852 64.0035 15.2852H66.3306V15.6292ZM77.3008 9.15404C77.1592 9.11357 76.9771 9.09333 76.714 9.09333C75.3987 9.09333 74.4072 9.70038 73.7395 10.9145V9.19451H71.3922V20H73.8002V14.5163C73.8002 12.6345 74.7714 11.562 76.6128 11.562C76.8759 11.562 77.0985 11.5822 77.3008 11.6227V9.15404ZM83.5698 20.1821C84.885 20.1821 85.9575 19.8584 86.7871 19.2108C87.6168 18.5633 88.2036 17.7944 88.5071 16.9243L86.4027 15.9935C85.8968 17.329 84.966 17.9967 83.6102 17.9967C82.6996 17.9967 81.9307 17.673 81.3237 17.0255C80.7166 16.3779 80.4131 15.5483 80.4131 14.5365C80.4131 13.545 80.7166 12.7356 81.3237 12.1083C81.951 11.4811 82.6996 11.1573 83.59 11.1573C84.966 11.1573 85.8968 11.8251 86.3622 13.1403L88.4262 12.2095C87.7786 10.2872 85.998 8.97192 83.5698 8.97192C81.9712 8.97192 80.6357 9.51827 79.5632 10.6312C78.4908 11.7441 77.9444 13.0594 77.9444 14.577C77.9444 16.1756 78.4908 17.5111 79.5632 18.5835C80.6357 19.656 81.9712 20.1821 83.5698 20.1821ZM100.092 20V13.3427C100.092 10.7526 98.6961 8.97192 96.0453 8.97192C94.73 8.97192 93.6373 9.49803 92.8077 10.5705V3.52871H90.3997V20H92.8077V13.9902C92.8077 12.3512 93.779 11.2585 95.2966 11.2585C96.8952 11.2585 97.6843 12.3309 97.6843 13.9497V20H100.092ZM117.813 20H120.282V4.15599H117.024L111.743 16.2768H111.723L106.36 4.15599H103.183V20H105.632V8.50652H105.672L110.792 20H112.633L117.773 8.44581H117.813V20ZM124.954 9.19451H122.202L127.018 18.7859L124.043 25.3218H126.613L134.039 9.19451H131.429L128.313 16.2768L124.954 9.19451ZM146.003 6.40208V4.15599H135.865V20H146.084V17.7337H138.354V13.0594H145.315V10.8133H138.354V6.40208H146.003ZM147.117 20H149.869L152.58 16.2363L155.312 20H158.084L153.997 14.4961L157.942 9.19451H155.231L152.621 12.7761L150.031 9.19451H147.258L151.224 14.5365L147.117 20ZM170.837 14.5568C170.837 13.1201 170.352 11.8251 169.36 10.6919C168.389 9.55874 167.114 8.99216 165.536 8.99216C164.929 8.99216 164.281 9.1338 163.573 9.43733C162.865 9.74085 162.318 10.2063 161.914 10.874V9.19451H159.567V25.3218H161.974V18.4217C162.359 19.0085 162.885 19.4334 163.593 19.7369C164.301 20.0202 164.929 20.1619 165.475 20.1619C167.033 20.1619 168.308 19.6155 169.32 18.5026C170.332 17.3897 170.837 16.0744 170.837 14.5568ZM162.824 12.1488C163.431 11.4811 164.221 11.1573 165.172 11.1573C166.123 11.1573 166.912 11.4811 167.499 12.1488C168.106 12.8166 168.409 13.626 168.409 14.577C168.409 15.5281 168.106 16.3375 167.499 17.0052C166.912 17.6527 166.123 17.9765 165.172 17.9765C164.221 17.9765 163.431 17.6527 162.824 17.0052C162.238 16.3375 161.934 15.5281 161.934 14.577C161.934 13.626 162.238 12.8166 162.824 12.1488ZM182.849 15.3055C182.869 15.1234 182.89 14.8805 182.89 14.5568C182.89 12.8773 182.424 11.5418 181.493 10.5098C180.563 9.4778 179.268 8.97192 177.628 8.97192C176.07 8.97192 174.775 9.51827 173.743 10.611C172.711 11.7036 172.185 13.0189 172.185 14.577C172.185 16.1756 172.732 17.5313 173.804 18.6038C174.897 19.6762 176.253 20.2024 177.851 20.2024C179.794 20.2024 181.554 19.2715 182.465 17.592L180.724 16.4386C180.138 17.5516 179.166 18.1181 177.811 18.1181C176.981 18.1181 176.253 17.8551 175.625 17.329C174.998 16.7826 174.674 16.1149 174.654 15.3055H182.849ZM177.628 11.0359C179.166 11.0359 180.36 11.9667 180.441 13.4843H174.775C174.998 12.0072 176.151 11.0359 177.628 11.0359ZM190.846 9.15404C190.704 9.11357 190.522 9.09333 190.259 9.09333C188.944 9.09333 187.952 9.70038 187.284 10.9145V9.19451H184.937V20H187.345V14.5163C187.345 12.6345 188.316 11.562 190.158 11.562C190.421 11.562 190.643 11.5822 190.846 11.6227V9.15404ZM198.343 11.3597V9.19451H195.692V5.85573H193.284V9.19451H191.301V11.3597H193.284V16.5196C193.284 18.8668 194.66 20.1214 197.028 20.1214C197.493 20.1214 197.939 20.0405 198.323 19.8988V17.8551C198.06 17.9158 197.797 17.936 197.554 17.936C196.32 17.936 195.692 17.4302 195.692 16.1351V11.3597H198.343Z" fill="#022D72"/>
<path d="M200.249 7.79652V6.90909H204.43V7.79652H202.871V12H201.807V7.79652H200.249ZM204.991 6.90909H206.318L207.72 10.3295H207.78L209.182 6.90909H210.509V12H209.465V8.68643H209.423L208.106 11.9751H207.395L206.077 8.67401H206.035V12H204.991V6.90909Z" fill="#022D72"/>
</g>
<defs>
<clipPath id="clip0_0_23">
<rect width="211" height="26" fill="white"/>
</clipPath>
</defs>
</svg>
