<?xml version="1.0" encoding="UTF-8" standalone="no"?>
<!-- Created with Inkscape (http://www.inkscape.org/) -->

<svg
   version="1.1"
   id="svg2"
   width="285.33334"
   height="45.333332"
   viewBox="0 0 285.33334 45.333332"
   sodipodi:docname="Group 4.eps"
   xmlns:inkscape="http://www.inkscape.org/namespaces/inkscape"
   xmlns:sodipodi="http://sodipodi.sourceforge.net/DTD/sodipodi-0.dtd"
   xmlns="http://www.w3.org/2000/svg"
   xmlns:svg="http://www.w3.org/2000/svg">
  <defs
     id="defs6">
    <clipPath
       clipPathUnits="userSpaceOnUse"
       id="clipPath20">
      <path
         d="m 155.176,114.059 c 31.457,0 56.957,25 56.957,55.836 0,30.839 -25.5,55.839 -56.957,55.839 -31.453,0 -56.9533,-25 -56.9533,-55.839 0,-30.836 25.5003,-55.836 56.9533,-55.836 z"
         clip-rule="evenodd"
         id="path18" />
    </clipPath>
    <clipPath
       clipPathUnits="userSpaceOnUse"
       id="clipPath26">
      <path
         d="M 0,0 H 2140 V 340 H 0 Z"
         id="path24" />
    </clipPath>
  </defs>
  <sodipodi:namedview
     id="namedview4"
     pagecolor="#ffffff"
     bordercolor="#000000"
     borderopacity="0.25"
     inkscape:showpageshadow="2"
     inkscape:pageopacity="0.0"
     inkscape:pagecheckerboard="0"
     inkscape:deskcolor="#d1d1d1" />
  <g
     id="g8"
     inkscape:groupmode="layer"
     inkscape:label="ink_ext_XXXXXX"
     transform="matrix(1.3333333,0,0,-1.3333333,0,45.333333)">
    <g
       id="g10"
       transform="scale(0.1)">
      <path
         d="M 110.902,106.598 72.5,50 83.8906,143.082 20,212.359 l 89.367,20.5 47.356,77.141 42.007,-77.141 94.715,-20.5 L 227.414,143.082 243.117,50 180.949,131.914"
         style="fill:none;stroke:#ff6565;stroke-width:20.6116;stroke-linecap:butt;stroke-linejoin:miter;stroke-miterlimit:10;stroke-dasharray:none;stroke-opacity:1"
         id="path12" />
      <g
         id="g14">
        <g
           id="g16"
           clip-path="url(#clipPath20)">
          <g
             id="g22"
             clip-path="url(#clipPath26)">
            <path
               d="m 155.176,114.059 c 31.457,0 56.957,25 56.957,55.836 0,30.839 -25.5,55.839 -56.957,55.839 -31.453,0 -56.9533,-25 -56.9533,-55.839 0,-30.836 25.5003,-55.836 56.9533,-55.836 z"
               style="fill:none;stroke:#ff6565;stroke-width:48.6433;stroke-linecap:butt;stroke-linejoin:miter;stroke-miterlimit:5;stroke-dasharray:none;stroke-opacity:1"
               id="path28" />
          </g>
        </g>
      </g>
      <g
         id="g30"
         transform="scale(10)">
        <text
           xml:space="preserve"
           transform="matrix(1,0,0,-1,35.6605,9.54414)"
           style="font-variant:normal;font-weight:500;font-size:20.235px;font-family:Gordita;-inkscape-font-specification:Gordita-Medium;writing-mode:lr-tb;fill:#012a72;fill-opacity:1;fill-rule:nonzero;stroke:none"
           id="text34"><tspan
             x="0 12.544634 24.563158 35.772282 43.055813 54.791046 67.173813 87.893372 99.851189 112.841 123.94894 137.30296 149.32149 156.84784"
             y="0"
             sodipodi:role="line"
             id="tspan32">SearchMyExpert</tspan></text>
        <text
           xml:space="preserve"
           transform="matrix(1,0,0,-1,201.9995,21.00004)"
           style="font-variant:normal;font-weight:500;font-size:7px;font-family:Gordita;-inkscape-font-specification:Gordita-Medium;writing-mode:lr-tb;fill:#012a72;fill-opacity:1;fill-rule:nonzero;stroke:none"
           id="text38"><tspan
             x="0 4.4927297"
             y="0"
             sodipodi:role="line"
             id="tspan36">TM</tspan></text>
      </g>
    </g>
  </g>
</svg>
