<svg width="327" height="46" viewBox="0 0 327 46" fill="none" xmlns="http://www.w3.org/2000/svg">
<path d="M66.2515 36.2822C68.7908 36.2822 70.8286 35.5924 72.3334 34.1817C73.8382 32.7709 74.5906 31.1094 74.5906 29.197C74.5906 27.4101 73.9949 25.9366 72.835 24.808C71.675 23.6481 69.5746 22.6135 66.5336 21.7044C63.524 20.7952 61.9879 19.792 61.9879 17.9424C61.9879 15.9673 63.7121 14.5879 66.0947 14.5879C68.446 14.5879 70.1075 15.7479 71.048 18.0364L74.2457 16.3122C73.0858 13.2712 70.327 11.1081 66.1888 11.1081C63.9002 11.1081 61.9879 11.7978 60.389 13.1772C58.8215 14.5252 58.0378 16.1868 58.0378 18.1618C58.0378 20.0428 58.6648 21.5476 59.9188 22.6449C61.1101 23.7108 63.0224 24.6513 65.6872 25.4977C69.1984 26.595 70.6091 27.6295 70.6091 29.4165C70.6091 31.4542 68.8222 32.7709 66.3142 32.7709C63.6494 32.7709 61.5176 31.3288 60.4831 28.6954L57.2227 30.3883C58.6021 34.1503 61.9565 36.2822 66.2515 36.2822ZM93.3244 28.7268C93.3558 28.4446 93.3871 28.0684 93.3871 27.5668C93.3871 24.9648 92.6661 22.8957 91.224 21.2968C89.7819 19.698 87.7755 18.9142 85.2361 18.9142C82.8222 18.9142 80.8158 19.7607 79.2169 21.4536C77.6181 23.1465 76.803 25.1842 76.803 27.5982C76.803 30.0748 77.6494 32.1753 79.311 33.8368C81.0039 35.4984 83.1043 36.3135 85.581 36.3135C88.5906 36.3135 91.318 34.8714 92.7288 32.2693L90.0327 30.4824C89.1235 32.2066 87.6187 33.0844 85.5183 33.0844C84.2329 33.0844 83.1043 32.6769 82.1325 31.8618C81.1606 31.0153 80.659 29.9808 80.6277 28.7268H93.3244ZM85.2361 22.1119C87.6187 22.1119 89.4684 23.554 89.5938 25.9053H80.8158C81.1606 23.6167 82.9476 22.1119 85.2361 22.1119ZM106.121 24.6513C106.121 25.5918 105.588 26.062 104.553 26.062H102.484C99.5374 26.062 95.5246 27.2847 95.5246 31.1721V31.3602C95.5246 32.8023 96.0576 33.9936 97.1235 34.9027C98.1894 35.8119 99.5374 36.2822 101.168 36.2822C103.425 36.2822 105.055 35.4357 106.09 33.7114V36H109.758V25.341C109.758 24.181 109.569 23.1778 109.193 22.3314C108.159 20.0428 106.058 18.9142 102.923 18.9142C99.5061 18.9142 97.1235 20.325 95.8068 23.1778L98.6596 24.808C99.5061 23.0211 100.917 22.1433 102.829 22.1433C104.93 22.1433 106.121 23.2719 106.121 24.6513ZM106.09 29.2284C106.09 31.7364 104.459 33.3039 101.92 33.3039C100.321 33.3039 99.2553 32.3947 99.2553 31.0153C99.2553 30.2943 99.6001 29.73 100.258 29.3224C100.948 28.9149 101.701 28.6954 102.484 28.6954H106.09V29.2284ZM123.086 19.1964C122.866 19.1337 122.584 19.1023 122.177 19.1023C120.139 19.1023 118.603 20.0428 117.568 21.9238V19.2591H113.932V36H117.662V27.5041C117.662 24.5886 119.167 22.927 122.02 22.927C122.427 22.927 122.772 22.9584 123.086 23.0211V19.1964ZM132.798 36.2822C134.836 36.2822 136.498 35.7805 137.783 34.7773C139.068 33.7741 139.977 32.5828 140.448 31.2348L137.187 29.7927C136.403 31.8618 134.961 32.8963 132.861 32.8963C131.45 32.8963 130.259 32.3947 129.318 31.3915C128.378 30.3883 127.908 29.103 127.908 27.5355C127.908 25.9993 128.378 24.7453 129.318 23.7735C130.29 22.8016 131.45 22.3 132.83 22.3C134.961 22.3 136.403 23.3346 137.125 25.3723L140.322 23.9302C139.319 20.952 136.56 18.9142 132.798 18.9142C130.322 18.9142 128.252 19.7607 126.591 21.4849C124.929 23.2092 124.083 25.2469 124.083 27.5982C124.083 30.0748 124.929 32.1439 126.591 33.8055C128.252 35.467 130.322 36.2822 132.798 36.2822ZM158.397 36V25.6858C158.397 21.673 156.233 18.9142 152.127 18.9142C150.089 18.9142 148.396 19.7293 147.111 21.3909V10.4811H143.38V36H147.111V26.689C147.111 24.1497 148.615 22.4568 150.967 22.4568C153.443 22.4568 154.666 24.1183 154.666 26.6263V36H158.397ZM185.852 36H189.676V11.4529H184.629L176.447 30.2316H176.415L168.107 11.4529H163.186V36H166.979V18.1932H167.042L174.973 36H177.826L185.789 18.0991H185.852V36ZM196.914 19.2591H192.65L200.112 34.119L195.503 44.2451H199.485L210.99 19.2591H206.946L202.118 30.2316L196.914 19.2591ZM229.526 14.9328V11.4529H213.82V36H229.651V32.4888H217.676V25.2469H228.46V21.7671H217.676V14.9328H229.526ZM231.251 36H235.515L239.716 30.1689L243.948 36H248.243L241.91 27.4728L248.023 19.2591H243.823L239.778 24.808L235.766 19.2591H231.471L237.615 27.5355L231.251 36ZM268.002 27.5668C268.002 25.341 267.249 23.3346 265.713 21.579C264.208 19.8234 262.233 18.9456 259.788 18.9456C258.847 18.9456 257.844 19.165 256.747 19.6353C255.65 20.1055 254.803 20.8266 254.176 21.8611V19.2591H250.54V44.2451H254.27V33.5547C254.866 34.4638 255.681 35.1222 256.778 35.5924C257.876 36.0314 258.847 36.2508 259.694 36.2508C262.108 36.2508 264.083 35.4043 265.65 33.6801C267.218 31.9558 268.002 29.9181 268.002 27.5668ZM255.587 23.8362C256.527 22.8016 257.75 22.3 259.224 22.3C260.697 22.3 261.92 22.8016 262.829 23.8362C263.769 24.8707 264.24 26.1247 264.24 27.5982C264.24 29.0716 263.769 30.3256 262.829 31.3602C261.92 32.3634 260.697 32.865 259.224 32.865C257.75 32.865 256.527 32.3634 255.587 31.3602C254.678 30.3256 254.208 29.0716 254.208 27.5982C254.208 26.1247 254.678 24.8707 255.587 23.8362ZM286.611 28.7268C286.643 28.4446 286.674 28.0684 286.674 27.5668C286.674 24.9648 285.953 22.8957 284.511 21.2968C283.069 19.698 281.062 18.9142 278.523 18.9142C276.109 18.9142 274.103 19.7607 272.504 21.4536C270.905 23.1465 270.09 25.1842 270.09 27.5982C270.09 30.0748 270.936 32.1753 272.598 33.8368C274.291 35.4984 276.391 36.3135 278.868 36.3135C281.877 36.3135 284.605 34.8714 286.016 32.2693L283.32 30.4824C282.41 32.2066 280.906 33.0844 278.805 33.0844C277.52 33.0844 276.391 32.6769 275.419 31.8618C274.448 31.0153 273.946 29.9808 273.915 28.7268H286.611ZM278.523 22.1119C280.906 22.1119 282.755 23.554 282.881 25.9053H274.103C274.448 23.6167 276.234 22.1119 278.523 22.1119ZM299 19.1964C298.781 19.1337 298.499 19.1023 298.091 19.1023C296.053 19.1023 294.517 20.0428 293.483 21.9238V19.2591H289.846V36H293.577V27.5041C293.577 24.5886 295.082 22.927 297.934 22.927C298.342 22.927 298.687 22.9584 299 23.0211V19.1964ZM310.616 22.6135V19.2591H306.509V14.0863H302.779V19.2591H299.706V22.6135H302.779V30.6078C302.779 34.2444 304.911 36.1881 308.578 36.1881C309.3 36.1881 309.989 36.0627 310.585 35.8432V32.6769C310.177 32.7709 309.77 32.8023 309.394 32.8023C307.481 32.8023 306.509 32.0185 306.509 30.0121V22.6135H310.616Z" fill="white"/>
<path d="M313.236 17.5955V16.4545H318.612V17.5955H316.608V23H315.24V17.5955H313.236ZM319.334 16.4545H321.04L322.843 20.8523H322.919L324.722 16.4545H326.429V23H325.086V18.7397H325.032L323.338 22.968H322.424L320.73 18.7237H320.676V23H319.334V16.4545Z" fill="white"/>
<path d="M18.068 36.075L12.125 45L13.8877 30.3218L4 19.3973L17.8303 16.1648L25.1592 4L31.6605 16.1648L46.3184 19.3973L36.0994 30.3218L38.5299 45L28.9087 32.0827" stroke="white" stroke-width="3.19334"/>
<path d="M31.8501 26.0934C31.8501 29.9139 28.7492 33.0143 24.92 33.0143C21.0908 33.0143 17.99 29.9139 17.99 26.0934C17.99 22.2729 21.0908 19.1724 24.92 19.1724C28.7492 19.1724 31.8501 22.2729 31.8501 26.0934Z" stroke="white" stroke-width="3.76815"/>
</svg>
