<svg width="323" height="41" viewBox="0 0 323 41" fill="none" xmlns="http://www.w3.org/2000/svg">
<g clip-path="url(#clip0_0_4943)">
<path d="M14.068 32.075L8.12501 41L9.88774 26.3218L0 15.3973L13.8303 12.1648L21.1592 0L27.6605 12.1648L42.3184 15.3973L32.0994 26.3218L34.5299 41L24.9087 28.0827" stroke="white" stroke-width="3.19334"/>
<path d="M27.8501 22.0934C27.8501 25.9139 24.7492 29.0143 20.92 29.0143C17.0908 29.0143 13.99 25.9139 13.99 22.0934C13.99 18.2729 17.0908 15.1724 20.92 15.1724C24.7492 15.1724 27.8501 18.2729 27.8501 22.0934Z" stroke="white" stroke-width="3.76815"/>
<path d="M62.2515 34.2822C64.7908 34.2822 66.8286 33.5924 68.3334 32.1817C69.8382 30.7709 70.5906 29.1094 70.5906 27.197C70.5906 25.4101 69.9949 23.9366 68.835 22.808C67.675 21.6481 65.5746 20.6135 62.5336 19.7044C59.524 18.7952 57.9879 17.792 57.9879 15.9424C57.9879 13.9673 59.7121 12.5879 62.0947 12.5879C64.446 12.5879 66.1075 13.7479 67.048 16.0364L70.2457 14.3122C69.0858 11.2712 66.327 9.1081 62.1888 9.1081C59.9002 9.1081 57.9879 9.7978 56.389 11.1772C54.8215 12.5252 54.0378 14.1868 54.0378 16.1618C54.0378 18.0428 54.6648 19.5476 55.9188 20.6449C57.1101 21.7108 59.0224 22.6513 61.6872 23.4977C65.1984 24.595 66.6091 25.6295 66.6091 27.4165C66.6091 29.4542 64.8222 30.7709 62.3142 30.7709C59.6494 30.7709 57.5176 29.3288 56.4831 26.6954L53.2227 28.3883C54.6021 32.1503 57.9565 34.2822 62.2515 34.2822ZM89.3244 26.7268C89.3558 26.4446 89.3871 26.0684 89.3871 25.5668C89.3871 22.9648 88.6661 20.8957 87.224 19.2968C85.7819 17.698 83.7755 16.9142 81.2361 16.9142C78.8222 16.9142 76.8158 17.7607 75.2169 19.4536C73.6181 21.1465 72.803 23.1842 72.803 25.5982C72.803 28.0748 73.6494 30.1753 75.311 31.8368C77.0039 33.4984 79.1043 34.3135 81.581 34.3135C84.5906 34.3135 87.318 32.8714 88.7288 30.2693L86.0327 28.4824C85.1235 30.2066 83.6187 31.0844 81.5183 31.0844C80.2329 31.0844 79.1043 30.6769 78.1325 29.8618C77.1606 29.0153 76.659 27.9808 76.6277 26.7268H89.3244ZM81.2361 20.1119C83.6187 20.1119 85.4684 21.554 85.5938 23.9053H76.8158C77.1606 21.6167 78.9476 20.1119 81.2361 20.1119ZM102.121 22.6513C102.121 23.5918 101.588 24.062 100.553 24.062H98.4843C95.5374 24.062 91.5246 25.2847 91.5246 29.1721V29.3602C91.5246 30.8023 92.0576 31.9936 93.1235 32.9027C94.1894 33.8119 95.5374 34.2822 97.1676 34.2822C99.4248 34.2822 101.055 33.4357 102.09 31.7114V34H105.758V23.341C105.758 22.181 105.569 21.1778 105.193 20.3314C104.159 18.0428 102.058 16.9142 98.9232 16.9142C95.5061 16.9142 93.1235 18.325 91.8068 21.1778L94.6596 22.808C95.5061 21.0211 96.9168 20.1433 98.8292 20.1433C100.93 20.1433 102.121 21.2719 102.121 22.6513ZM102.09 27.2284C102.09 29.7364 100.459 31.3039 97.92 31.3039C96.3212 31.3039 95.2553 30.3947 95.2553 29.0153C95.2553 28.2943 95.6001 27.73 96.2585 27.3224C96.9482 26.9149 97.7006 26.6954 98.4843 26.6954H102.09V27.2284ZM119.086 17.1964C118.866 17.1337 118.584 17.1023 118.177 17.1023C116.139 17.1023 114.603 18.0428 113.568 19.9238V17.2591H109.932V34H113.662V25.5041C113.662 22.5886 115.167 20.927 118.02 20.927C118.427 20.927 118.772 20.9584 119.086 21.0211V17.1964ZM128.798 34.2822C130.836 34.2822 132.498 33.7805 133.783 32.7773C135.068 31.7741 135.977 30.5828 136.448 29.2348L133.187 27.7927C132.403 29.8618 130.961 30.8963 128.861 30.8963C127.45 30.8963 126.259 30.3947 125.318 29.3915C124.378 28.3883 123.908 27.103 123.908 25.5355C123.908 23.9993 124.378 22.7453 125.318 21.7735C126.29 20.8016 127.45 20.3 128.83 20.3C130.961 20.3 132.403 21.3346 133.125 23.3723L136.322 21.9302C135.319 18.952 132.56 16.9142 128.798 16.9142C126.322 16.9142 124.252 17.7607 122.591 19.4849C120.929 21.2092 120.083 23.2469 120.083 25.5982C120.083 28.0748 120.929 30.1439 122.591 31.8055C124.252 33.467 126.322 34.2822 128.798 34.2822ZM154.397 34V23.6858C154.397 19.673 152.233 16.9142 148.127 16.9142C146.089 16.9142 144.396 17.7293 143.111 19.3909V8.4811H139.38V34H143.111V24.689C143.111 22.1497 144.615 20.4568 146.967 20.4568C149.443 20.4568 150.666 22.1183 150.666 24.6263V34H154.397ZM181.852 34H185.676V9.45295H180.629L172.447 28.2316H172.415L164.107 9.45295H159.186V34H162.979V16.1932H163.042L170.973 34H173.826L181.789 16.0991H181.852V34ZM192.914 17.2591H188.65L196.112 32.119L191.503 42.2451H195.485L206.99 17.2591H202.946L198.118 28.2316L192.914 17.2591ZM225.526 12.9328V9.45295H209.82V34H225.651V30.4888H213.676V23.2469H224.46V19.7671H213.676V12.9328H225.526ZM227.251 34H231.515L235.716 28.1689L239.948 34H244.243L237.91 25.4728L244.023 17.2591H239.823L235.778 22.808L231.766 17.2591H227.471L233.615 25.5355L227.251 34ZM264.002 25.5668C264.002 23.341 263.249 21.3346 261.713 19.579C260.208 17.8234 258.233 16.9456 255.788 16.9456C254.847 16.9456 253.844 17.165 252.747 17.6353C251.65 18.1055 250.803 18.8266 250.176 19.8611V17.2591H246.54V42.2451H250.27V31.5547C250.866 32.4638 251.681 33.1222 252.778 33.5924C253.876 34.0314 254.847 34.2508 255.694 34.2508C258.108 34.2508 260.083 33.4043 261.65 31.6801C263.218 29.9558 264.002 27.9181 264.002 25.5668ZM251.587 21.8362C252.527 20.8016 253.75 20.3 255.224 20.3C256.697 20.3 257.92 20.8016 258.829 21.8362C259.769 22.8707 260.24 24.1247 260.24 25.5982C260.24 27.0716 259.769 28.3256 258.829 29.3602C257.92 30.3634 256.697 30.865 255.224 30.865C253.75 30.865 252.527 30.3634 251.587 29.3602C250.678 28.3256 250.208 27.0716 250.208 25.5982C250.208 24.1247 250.678 22.8707 251.587 21.8362ZM282.611 26.7268C282.643 26.4446 282.674 26.0684 282.674 25.5668C282.674 22.9648 281.953 20.8957 280.511 19.2968C279.069 17.698 277.062 16.9142 274.523 16.9142C272.109 16.9142 270.103 17.7607 268.504 19.4536C266.905 21.1465 266.09 23.1842 266.09 25.5982C266.09 28.0748 266.936 30.1753 268.598 31.8368C270.291 33.4984 272.391 34.3135 274.868 34.3135C277.877 34.3135 280.605 32.8714 282.016 30.2693L279.32 28.4824C278.41 30.2066 276.906 31.0844 274.805 31.0844C273.52 31.0844 272.391 30.6769 271.419 29.8618C270.448 29.0153 269.946 27.9808 269.915 26.7268H282.611ZM274.523 20.1119C276.906 20.1119 278.755 21.554 278.881 23.9053H270.103C270.448 21.6167 272.234 20.1119 274.523 20.1119ZM295 17.1964C294.781 17.1337 294.499 17.1023 294.091 17.1023C292.053 17.1023 290.517 18.0428 289.483 19.9238V17.2591H285.846V34H289.577V25.5041C289.577 22.5886 291.082 20.927 293.934 20.927C294.342 20.927 294.687 20.9584 295 21.0211V17.1964ZM306.616 20.6135V17.2591H302.509V12.0863H298.779V17.2591H295.706V20.6135H298.779V28.6078C298.779 32.2444 300.911 34.1881 304.578 34.1881C305.3 34.1881 305.989 34.0627 306.585 33.8432V30.6769C306.177 30.7709 305.77 30.8023 305.394 30.8023C303.481 30.8023 302.509 30.0185 302.509 28.0121V20.6135H306.616Z" fill="white"/>
<path d="M309.236 13.5955V12.4545H314.612V13.5955H312.608V19H311.24V13.5955H309.236ZM315.334 12.4545H317.04L318.843 16.8523H318.919L320.722 12.4545H322.429V19H321.086V14.7397H321.032L319.338 18.968H318.424L316.73 14.7237H316.676V19H315.334V12.4545Z" fill="white"/>
</g>
<defs>
<clipPath id="clip0_0_4943">
<rect width="323" height="41" fill="white"/>
</clipPath>
</defs>
</svg>
