<?xml version="1.0" encoding="UTF-8" standalone="no"?>
<!-- Created with Inkscape (http://www.inkscape.org/) -->

<svg
   version="1.1"
   id="svg2"
   width="434.66666"
   height="69.333336"
   viewBox="0 0 434.66666 69.333336"
   sodipodi:docname="logo-sme.eps"
   xmlns:inkscape="http://www.inkscape.org/namespaces/inkscape"
   xmlns:sodipodi="http://sodipodi.sourceforge.net/DTD/sodipodi-0.dtd"
   xmlns="http://www.w3.org/2000/svg"
   xmlns:svg="http://www.w3.org/2000/svg">
  <defs
     id="defs6">
    <clipPath
       clipPathUnits="userSpaceOnUse"
       id="clipPath20">
      <path
         d="m 239.199,171.016 c 48.68,0 88.141,39.422 88.141,88.05 0,48.629 -39.461,88.051 -88.141,88.051 -48.679,0 -88.14,-39.422 -88.14,-88.051 0,-48.628 39.461,-88.05 88.14,-88.05 z"
         clip-rule="evenodd"
         id="path18" />
    </clipPath>
    <clipPath
       clipPathUnits="userSpaceOnUse"
       id="clipPath26">
      <path
         d="M 0,0 H 3260 V 520 H 0 Z"
         id="path24" />
    </clipPath>
  </defs>
  <sodipodi:namedview
     id="namedview4"
     pagecolor="#ffffff"
     bordercolor="#000000"
     borderopacity="0.25"
     inkscape:showpageshadow="2"
     inkscape:pageopacity="0.0"
     inkscape:pagecheckerboard="0"
     inkscape:deskcolor="#d1d1d1" />
  <g
     id="g8"
     inkscape:groupmode="layer"
     inkscape:label="ink_ext_XXXXXX"
     transform="matrix(1.3333333,0,0,-1.3333333,0,69.333333)">
    <g
       id="g10"
       transform="scale(0.1)">
      <path
         d="M 170.68,159.25 111.25,70 128.879,216.781 30,326.027 168.301,358.352 241.594,480 306.605,358.352 453.184,326.027 350.992,216.781 375.297,70 279.086,199.172"
         style="fill:none;stroke:#ffffff;stroke-width:31.9334;stroke-linecap:butt;stroke-linejoin:miter;stroke-miterlimit:10;stroke-dasharray:none;stroke-opacity:1"
         id="path12" />
      <g
         id="g14">
        <g
           id="g16"
           clip-path="url(#clipPath20)">
          <g
             id="g22"
             clip-path="url(#clipPath26)">
            <path
               d="m 239.199,171.016 c 48.68,0 88.141,39.422 88.141,88.05 0,48.629 -39.461,88.051 -88.141,88.051 -48.679,0 -88.14,-39.422 -88.14,-88.051 0,-48.628 39.461,-88.05 88.14,-88.05 z"
               style="fill:none;stroke:#ffffff;stroke-width:75.3629;stroke-linecap:butt;stroke-linejoin:miter;stroke-miterlimit:5;stroke-dasharray:none;stroke-opacity:1"
               id="path28" />
          </g>
        </g>
      </g>
      <g
         id="g30"
         transform="scale(10)">
        <text
           xml:space="preserve"
           transform="matrix(1,0,0,-1,54.9531,14.4363)"
           style="font-variant:normal;font-weight:500;font-size:31.35px;font-family:Gordita;-inkscape-font-specification:Gordita-Medium;writing-mode:lr-tb;fill:#ffffff;fill-opacity:1;fill-rule:nonzero;stroke:none"
           id="text34"><tspan
             x="0 19.43535 38.055603 55.421852 66.706207 84.887558 104.07211 136.17285 154.69905 174.82408 192.03358 212.72295 231.34319 243.00375"
             y="0"
             sodipodi:role="line"
             id="tspan32">SearchMyExpert</tspan></text>
        <text
           xml:space="preserve"
           transform="matrix(1,0,0,-1,312.4231,29)"
           style="font-variant:normal;font-weight:normal;font-size:9px;writing-mode:lr-tb;fill:#ffffff;fill-opacity:1;fill-rule:nonzero;stroke:none"
           id="text38"><tspan
             x="0 5.7074404"
             y="0"
             sodipodi:role="line"
             id="tspan36">TM</tspan></text>
      </g>
    </g>
  </g>
</svg>
