<svg width="213" height="29" viewBox="0 0 213 29" fill="none" xmlns="http://www.w3.org/2000/svg">
<g clip-path="url(#clip0_6_5)">
<path d="M42.6168 24.1821C44.2559 24.1821 45.5712 23.7369 46.5424 22.8264C47.5137 21.9158 47.9994 20.8433 47.9994 19.609C47.9994 18.4556 47.6149 17.5046 46.8662 16.7761C46.1175 16.0274 44.7618 15.3597 42.799 14.7728C40.8564 14.186 39.8649 13.5385 39.8649 12.3446C39.8649 11.0698 40.9778 10.1795 42.5157 10.1795C44.0333 10.1795 45.1058 10.9282 45.7128 12.4053L47.7768 11.2924C47.0281 9.32962 45.2474 7.93341 42.5764 7.93341C41.0992 7.93341 39.8649 8.37858 38.8329 9.26892C37.8212 10.139 37.3153 11.2115 37.3153 12.4863C37.3153 13.7004 37.72 14.6717 38.5294 15.3799C39.2983 16.0679 40.5326 16.6749 42.2526 17.2213C44.5189 17.9295 45.4295 18.5973 45.4295 19.7506C45.4295 21.0659 44.2761 21.9158 42.6573 21.9158C40.9373 21.9158 39.5614 20.985 38.8936 19.2852L36.7892 20.3779C37.6795 22.8061 39.8447 24.1821 42.6168 24.1821ZM60.0912 19.3055C60.1115 19.1234 60.1317 18.8805 60.1317 18.5568C60.1317 16.8773 59.6663 15.5418 58.7355 14.5098C57.8047 13.4778 56.5096 12.9719 54.8706 12.9719C53.3125 12.9719 52.0175 13.5183 50.9855 14.611C49.9535 15.7036 49.4274 17.0189 49.4274 18.577C49.4274 20.1756 49.9737 21.5313 51.0462 22.6038C52.1389 23.6762 53.4946 24.2024 55.0932 24.2024C57.0357 24.2024 58.7962 23.2715 59.7068 21.592L57.9666 20.4386C57.3797 21.5516 56.4085 22.1181 55.0527 22.1181C54.2231 22.1181 53.4946 21.8551 52.8673 21.329C52.2401 20.7826 51.9163 20.1149 51.8961 19.3055H60.0912ZM54.8706 15.0359C56.4085 15.0359 57.6023 15.9667 57.6833 17.4843H52.0175C52.2401 16.0072 53.3934 15.0359 54.8706 15.0359ZM68.3508 16.6749C68.3508 17.282 68.0068 17.5855 67.339 17.5855H66.0035C64.1014 17.5855 61.5114 18.3747 61.5114 20.8838V21.0052C61.5114 21.936 61.8554 22.705 62.5433 23.2918C63.2313 23.8786 64.1014 24.1821 65.1537 24.1821C66.6106 24.1821 67.6628 23.6358 68.3306 22.5228V24H70.6981V17.1201C70.6981 16.3714 70.5766 15.7239 70.3338 15.1775C69.6661 13.7004 68.3103 12.9719 66.2868 12.9719C64.0812 12.9719 62.5433 13.8825 61.6935 15.7239L63.5349 16.7761C64.0812 15.6227 64.9918 15.0561 66.2261 15.0561C67.5819 15.0561 68.3508 15.7846 68.3508 16.6749ZM68.3306 19.6292C68.3306 21.248 67.2783 22.2598 65.6393 22.2598C64.6073 22.2598 63.9193 21.673 63.9193 20.7826C63.9193 20.3172 64.1419 19.953 64.5668 19.6899C65.012 19.4269 65.4977 19.2852 66.0035 19.2852H68.3306V19.6292ZM79.3008 13.154C79.1592 13.1136 78.9771 13.0933 78.714 13.0933C77.3987 13.0933 76.4072 13.7004 75.7395 14.9145V13.1945H73.3922V24H75.8002V18.5163C75.8002 16.6345 76.7714 15.562 78.6128 15.562C78.8759 15.562 79.0985 15.5822 79.3008 15.6227V13.154ZM85.5698 24.1821C86.885 24.1821 87.9575 23.8584 88.7871 23.2108C89.6168 22.5633 90.2036 21.7944 90.5071 20.9243L88.4027 19.9935C87.8968 21.329 86.966 21.9967 85.6102 21.9967C84.6996 21.9967 83.9307 21.673 83.3237 21.0255C82.7166 20.3779 82.4131 19.5483 82.4131 18.5365C82.4131 17.545 82.7166 16.7356 83.3237 16.1083C83.951 15.4811 84.6996 15.1573 85.59 15.1573C86.966 15.1573 87.8968 15.8251 88.3622 17.1403L90.4262 16.2095C89.7786 14.2872 87.998 12.9719 85.5698 12.9719C83.9712 12.9719 82.6357 13.5183 81.5632 14.6312C80.4908 15.7441 79.9444 17.0594 79.9444 18.577C79.9444 20.1756 80.4908 21.5111 81.5632 22.5835C82.6357 23.656 83.9712 24.1821 85.5698 24.1821ZM102.092 24V17.3427C102.092 14.7526 100.696 12.9719 98.0453 12.9719C96.73 12.9719 95.6373 13.498 94.8077 14.5705V7.52871H92.3997V24H94.8077V17.9902C94.8077 16.3512 95.779 15.2585 97.2966 15.2585C98.8952 15.2585 99.6843 16.3309 99.6843 17.9497V24H102.092ZM119.813 24H122.282V8.15599H119.024L113.743 20.2768H113.723L108.36 8.15599H105.183V24H107.632V12.5065H107.672L112.792 24H114.633L119.773 12.4458H119.813V24ZM126.954 13.1945H124.202L129.018 22.7859L126.043 29.3218H128.613L136.039 13.1945H133.429L130.313 20.2768L126.954 13.1945ZM148.003 10.4021V8.15599H137.865V24H148.084V21.7337H140.354V17.0594H147.315V14.8133H140.354V10.4021H148.003ZM149.117 24H151.869L154.58 20.2363L157.312 24H160.084L155.997 18.4961L159.942 13.1945H157.231L154.621 16.7761L152.031 13.1945H149.258L153.224 18.5365L149.117 24ZM172.837 18.5568C172.837 17.1201 172.352 15.8251 171.36 14.6919C170.389 13.5587 169.114 12.9922 167.536 12.9922C166.929 12.9922 166.281 13.1338 165.573 13.4373C164.865 13.7409 164.318 14.2063 163.914 14.874V13.1945H161.567V29.3218H163.974V22.4217C164.359 23.0085 164.885 23.4334 165.593 23.7369C166.301 24.0202 166.929 24.1619 167.475 24.1619C169.033 24.1619 170.308 23.6155 171.32 22.5026C172.332 21.3897 172.837 20.0744 172.837 18.5568ZM164.824 16.1488C165.431 15.4811 166.221 15.1573 167.172 15.1573C168.123 15.1573 168.912 15.4811 169.499 16.1488C170.106 16.8166 170.409 17.626 170.409 18.577C170.409 19.5281 170.106 20.3375 169.499 21.0052C168.912 21.6527 168.123 21.9765 167.172 21.9765C166.221 21.9765 165.431 21.6527 164.824 21.0052C164.238 20.3375 163.934 19.5281 163.934 18.577C163.934 17.626 164.238 16.8166 164.824 16.1488ZM184.849 19.3055C184.869 19.1234 184.89 18.8805 184.89 18.5568C184.89 16.8773 184.424 15.5418 183.493 14.5098C182.563 13.4778 181.268 12.9719 179.628 12.9719C178.07 12.9719 176.775 13.5183 175.743 14.611C174.711 15.7036 174.185 17.0189 174.185 18.577C174.185 20.1756 174.732 21.5313 175.804 22.6038C176.897 23.6762 178.253 24.2024 179.851 24.2024C181.794 24.2024 183.554 23.2715 184.465 21.592L182.724 20.4386C182.138 21.5516 181.166 22.1181 179.811 22.1181C178.981 22.1181 178.253 21.8551 177.625 21.329C176.998 20.7826 176.674 20.1149 176.654 19.3055H184.849ZM179.628 15.0359C181.166 15.0359 182.36 15.9667 182.441 17.4843H176.775C176.998 16.0072 178.151 15.0359 179.628 15.0359ZM192.846 13.154C192.704 13.1136 192.522 13.0933 192.259 13.0933C190.944 13.0933 189.952 13.7004 189.284 14.9145V13.1945H186.937V24H189.345V18.5163C189.345 16.6345 190.316 15.562 192.158 15.562C192.421 15.562 192.643 15.5822 192.846 15.6227V13.154ZM200.343 15.3597V13.1945H197.692V9.85573H195.284V13.1945H193.301V15.3597H195.284V20.5196C195.284 22.8668 196.66 24.1214 199.028 24.1214C199.493 24.1214 199.939 24.0405 200.323 23.8988V21.8551C200.06 21.9158 199.797 21.936 199.554 21.936C198.32 21.936 197.692 21.4302 197.692 20.1351V15.3597H200.343Z" fill="#022D72"/>
<path d="M202.249 9.86586V8.97843H206.43V9.86586H204.871V14.0693H203.807V9.86586H202.249ZM206.991 8.97843H208.318L209.72 12.3989H209.78L211.182 8.97843H212.509V14.0693H211.465V10.7558H211.423L210.106 14.0445H209.395L208.077 10.7433H208.035V14.0693H206.991V8.97843Z" fill="#022D72"/>
</g>
<path d="M11.0902 22.4096L7.25008 28.0693L8.38908 18.7612L2 11.8335L10.9366 9.78358L15.6723 2.06934L19.8732 9.78358L29.3446 11.8335L22.7414 18.7612L24.3119 28.0693L18.0951 19.8779" stroke="#FF6666" stroke-width="2.06116"/>
<path d="M19.997 16.0798C19.997 18.4693 18.0144 20.4474 15.5178 20.4474C13.0211 20.4474 11.0385 18.4693 11.0385 16.0798C11.0385 13.6902 13.0211 11.7122 15.5178 11.7122C18.0144 11.7122 19.997 13.6902 19.997 16.0798Z" stroke="#FF6666" stroke-width="2.43217"/>
<defs>
<clipPath id="clip0_6_5">
<rect width="211" height="26" fill="white" transform="translate(2 2.06934)"/>
</clipPath>
</defs>
</svg>
