<svg width="28" height="28" viewBox="0 0 28 28" fill="none" xmlns="http://www.w3.org/2000/svg">
<path fill-rule="evenodd" clip-rule="evenodd" d="M14.0093 28C12.0788 28 10.2647 27.6325 8.56681 26.8975C6.86894 26.1625 5.38417 25.1592 4.1125 23.8875C2.84083 22.6158 1.8375 21.1302 1.1025 19.4306C0.3675 17.731 0 15.9149 0 13.9825C0 12.0501 0.3675 10.234 1.1025 8.53444C1.8375 6.83481 2.84083 5.355 4.1125 4.095C5.38417 2.835 6.86981 1.8375 8.56944 1.1025C10.269 0.3675 12.0851 0 14.0175 0C15.9499 0 17.766 0.3675 19.4656 1.1025C21.1652 1.8375 22.645 2.835 23.905 4.095C25.165 5.355 26.1625 6.83667 26.8975 8.54C27.6325 10.2433 28 12.0602 28 13.9907C28 15.9212 27.6325 17.7353 26.8975 19.4332C26.1625 21.1311 25.165 22.6137 23.905 23.8811C22.645 25.1484 21.1633 26.1518 19.46 26.8911C17.7567 27.6304 15.9398 28 14.0093 28ZM13.055 21H15.155V15.19H21V13.09H15.155V7H13.055V13.09H7V15.19H13.055V21ZM22.435 22.4175C20.125 24.7392 17.3192 25.9 14.0175 25.9C10.7158 25.9 7.90417 24.7392 5.5825 22.4175C3.26083 20.0958 2.1 17.29 2.1 14C2.1 10.6779 3.26083 7.86406 5.5825 5.55842C7.90417 3.25281 10.71 2.1 14 2.1C17.3221 2.1 20.1359 3.255 22.4416 5.565C24.7472 7.875 25.9 10.6808 25.9 13.9825C25.9 17.2842 24.745 20.0958 22.435 22.4175Z" fill="white"/>
</svg>
