<svg width="900" height="614" viewBox="0 0 900 614" fill="none" xmlns="http://www.w3.org/2000/svg">
<path d="M0 51H900V594C900 605.046 891.046 614 880 614H20C8.9543 614 0 605.046 0 594V51Z" fill="#F0F6FF"/>
<mask id="mask0_0_4798" style="mask-type:luminance" maskUnits="userSpaceOnUse" x="0" y="51" width="900" height="563">
<path d="M0 51H900V594C900 605.046 891.046 614 880 614H20C8.9543 614 0 605.046 0 594V51Z" fill="white"/>
</mask>
<g mask="url(#mask0_0_4798)">
</g>
<path d="M0 20C0 8.9543 8.95431 0 20 0H880C891.046 0 900 8.95431 900 20V51H0V20Z" fill="white"/>
<path d="M59.65 25.5C59.65 27.7856 57.7589 29.65 55.4118 29.65C53.0646 29.65 51.1735 27.7856 51.1735 25.5C51.1735 23.2144 53.0646 21.35 55.4118 21.35C57.7589 21.35 59.65 23.2144 59.65 25.5Z" fill="#29CD42" stroke="#1DAD2D" stroke-width="0.7"/>
<path d="M46.2382 25.5C46.2382 27.7856 44.3471 29.65 42 29.65C39.6528 29.65 37.7617 27.7856 37.7617 25.5C37.7617 23.2144 39.6528 21.35 42 21.35C44.3471 21.35 46.2382 23.2144 46.2382 25.5Z" fill="#FFBF2F" stroke="#E0A124" stroke-width="0.7"/>
<path d="M32.8265 25.5C32.8265 27.7856 30.9354 29.65 28.5882 29.65C26.2411 29.65 24.35 27.7856 24.35 25.5C24.35 23.2144 26.2411 21.35 28.5882 21.35C30.9354 21.35 32.8265 23.2144 32.8265 25.5Z" fill="#FF6159" stroke="#E14840" stroke-width="0.7"/>
<g clip-path="url(#clip0_0_4798)">
<rect opacity="0.430255" x="297.25" y="10.25" width="306.5" height="30.5" rx="5.75" fill="white" stroke="#979797" stroke-width="0.5"/>
<path opacity="0.293128" d="M372.851 25.0625V29H371.845V20.2727H372.851V23.4773H372.936C373.09 23.1392 373.32 22.8707 373.627 22.6719C373.936 22.4702 374.348 22.3693 374.862 22.3693C375.308 22.3693 375.699 22.4588 376.034 22.6378C376.369 22.8139 376.629 23.0852 376.814 23.4517C377.002 23.8153 377.095 24.2784 377.095 24.8409V29H376.09V24.9091C376.09 24.3892 375.955 23.9872 375.685 23.7031C375.418 23.4162 375.047 23.2727 374.573 23.2727C374.243 23.2727 373.948 23.3423 373.686 23.4815C373.428 23.6207 373.223 23.8239 373.073 24.0909C372.925 24.358 372.851 24.6818 372.851 25.0625ZM381.732 22.4545V23.3068H378.34V22.4545H381.732ZM379.329 20.8864H380.335V27.125C380.335 27.4091 380.376 27.6222 380.458 27.7642C380.543 27.9034 380.651 27.9972 380.782 28.0455C380.916 28.0909 381.056 28.1136 381.204 28.1136C381.315 28.1136 381.406 28.108 381.477 28.0966C381.548 28.0824 381.605 28.071 381.647 28.0625L381.852 28.9659C381.784 28.9915 381.688 29.017 381.566 29.0426C381.444 29.071 381.289 29.0852 381.102 29.0852C380.818 29.0852 380.539 29.0241 380.267 28.902C379.997 28.7798 379.772 28.5938 379.593 28.3438C379.417 28.0938 379.329 27.7784 379.329 27.3977V20.8864ZM386.042 22.4545V23.3068H382.65V22.4545H386.042ZM383.639 20.8864H384.645V27.125C384.645 27.4091 384.686 27.6222 384.768 27.7642C384.854 27.9034 384.962 27.9972 385.092 28.0455C385.226 28.0909 385.366 28.1136 385.514 28.1136C385.625 28.1136 385.716 28.108 385.787 28.0966C385.858 28.0824 385.915 28.071 385.957 28.0625L386.162 28.9659C386.094 28.9915 385.998 29.017 385.876 29.0426C385.754 29.071 385.599 29.0852 385.412 29.0852C385.128 29.0852 384.849 29.0241 384.577 28.902C384.307 28.7798 384.082 28.5938 383.903 28.3438C383.727 28.0938 383.639 27.7784 383.639 27.3977V20.8864ZM387.506 31.4545V22.4545H388.478V23.4943H388.597C388.671 23.3807 388.773 23.2358 388.904 23.0597C389.037 22.8807 389.228 22.7216 389.475 22.5824C389.725 22.4403 390.063 22.3693 390.489 22.3693C391.04 22.3693 391.526 22.5071 391.946 22.7827C392.367 23.0582 392.695 23.4489 392.931 23.9545C393.166 24.4602 393.284 25.0568 393.284 25.7443C393.284 26.4375 393.166 27.0384 392.931 27.5469C392.695 28.0526 392.368 28.4446 391.951 28.723C391.533 28.9986 391.051 29.1364 390.506 29.1364C390.086 29.1364 389.749 29.0668 389.496 28.9276C389.243 28.7855 389.049 28.625 388.912 28.446C388.776 28.2642 388.671 28.1136 388.597 27.9943H388.512V31.4545H387.506ZM388.495 25.7273C388.495 26.2216 388.567 26.6577 388.712 27.0355C388.857 27.4105 389.068 27.7045 389.347 27.9176C389.625 28.1278 389.966 28.233 390.37 28.233C390.79 28.233 391.141 28.1222 391.422 27.9006C391.706 27.6761 391.919 27.375 392.061 26.9972C392.206 26.6165 392.279 26.1932 392.279 25.7273C392.279 25.267 392.208 24.8523 392.066 24.483C391.926 24.1108 391.715 23.8168 391.431 23.6009C391.149 23.3821 390.796 23.2727 390.37 23.2727C389.961 23.2727 389.617 23.3764 389.338 23.5838C389.06 23.7884 388.85 24.0753 388.708 24.4446C388.566 24.8111 388.495 25.2386 388.495 25.7273ZM399.406 23.9205L398.502 24.1761C398.445 24.0256 398.362 23.8793 398.251 23.7372C398.143 23.5923 397.995 23.473 397.808 23.3793C397.62 23.2855 397.38 23.2386 397.087 23.2386C396.687 23.2386 396.353 23.331 396.086 23.5156C395.822 23.6974 395.69 23.929 395.69 24.2102C395.69 24.4602 395.781 24.6577 395.962 24.8026C396.144 24.9474 396.428 25.0682 396.815 25.1648L397.786 25.4034C398.371 25.5455 398.808 25.7628 399.094 26.0554C399.381 26.3452 399.525 26.7187 399.525 27.1761C399.525 27.5511 399.417 27.8864 399.201 28.1818C398.988 28.4773 398.69 28.7102 398.306 28.8807C397.923 29.0511 397.477 29.1364 396.968 29.1364C396.3 29.1364 395.748 28.9915 395.31 28.7017C394.873 28.4119 394.596 27.9886 394.479 27.4318L395.434 27.1932C395.525 27.5455 395.697 27.8097 395.95 27.9858C396.205 28.1619 396.539 28.25 396.951 28.25C397.42 28.25 397.792 28.1506 398.067 27.9517C398.346 27.75 398.485 27.5085 398.485 27.2273C398.485 27 398.406 26.8097 398.246 26.6562C398.087 26.5 397.843 26.3835 397.513 26.3068L396.423 26.0511C395.823 25.9091 395.383 25.6889 395.102 25.3906C394.823 25.0895 394.684 24.7131 394.684 24.2614C394.684 23.892 394.788 23.5653 394.995 23.2812C395.205 22.9972 395.491 22.7741 395.852 22.6122C396.215 22.4503 396.627 22.3693 397.087 22.3693C397.735 22.3693 398.244 22.5114 398.613 22.7955C398.985 23.0795 399.249 23.4545 399.406 23.9205ZM401.722 29.0682C401.512 29.0682 401.332 28.9929 401.181 28.8423C401.031 28.6918 400.955 28.5114 400.955 28.3011C400.955 28.0909 401.031 27.9105 401.181 27.7599C401.332 27.6094 401.512 27.5341 401.722 27.5341C401.933 27.5341 402.113 27.6094 402.264 27.7599C402.414 27.9105 402.489 28.0909 402.489 28.3011C402.489 28.4403 402.454 28.5682 402.383 28.6847C402.315 28.8011 402.222 28.8949 402.106 28.9659C401.992 29.0341 401.864 29.0682 401.722 29.0682ZM401.722 24.2102C401.512 24.2102 401.332 24.1349 401.181 23.9844C401.031 23.8338 400.955 23.6534 400.955 23.4432C400.955 23.233 401.031 23.0526 401.181 22.902C401.332 22.7514 401.512 22.6761 401.722 22.6761C401.933 22.6761 402.113 22.7514 402.264 22.902C402.414 23.0526 402.489 23.233 402.489 23.4432C402.489 23.5824 402.454 23.7102 402.383 23.8267C402.315 23.9432 402.222 24.0369 402.106 24.108C401.992 24.1761 401.864 24.2102 401.722 24.2102ZM407.33 19.8636L404.518 30.3125H403.597L406.41 19.8636H407.33ZM411.558 19.8636L408.746 30.3125H407.825L410.638 19.8636H411.558ZM417.337 23.9205L416.434 24.1761C416.377 24.0256 416.293 23.8793 416.182 23.7372C416.074 23.5923 415.927 23.473 415.739 23.3793C415.552 23.2855 415.312 23.2386 415.019 23.2386C414.619 23.2386 414.285 23.331 414.018 23.5156C413.753 23.6974 413.621 23.929 413.621 24.2102C413.621 24.4602 413.712 24.6577 413.894 24.8026C414.076 24.9474 414.36 25.0682 414.746 25.1648L415.718 25.4034C416.303 25.5455 416.739 25.7628 417.026 26.0554C417.313 26.3452 417.457 26.7187 417.457 27.1761C417.457 27.5511 417.349 27.8864 417.133 28.1818C416.92 28.4773 416.621 28.7102 416.238 28.8807C415.854 29.0511 415.408 29.1364 414.9 29.1364C414.232 29.1364 413.68 28.9915 413.242 28.7017C412.805 28.4119 412.528 27.9886 412.411 27.4318L413.366 27.1932C413.457 27.5455 413.628 27.8097 413.881 27.9858C414.137 28.1619 414.471 28.25 414.883 28.25C415.351 28.25 415.724 28.1506 415.999 27.9517C416.278 27.75 416.417 27.5085 416.417 27.2273C416.417 27 416.337 26.8097 416.178 26.6562C416.019 26.5 415.775 26.3835 415.445 26.3068L414.354 26.0511C413.755 25.9091 413.315 25.6889 413.033 25.3906C412.755 25.0895 412.616 24.7131 412.616 24.2614C412.616 23.892 412.719 23.5653 412.927 23.2812C413.137 22.9972 413.422 22.7741 413.783 22.6122C414.147 22.4503 414.559 22.3693 415.019 22.3693C415.667 22.3693 416.175 22.5114 416.545 22.7955C416.917 23.0795 417.181 23.4545 417.337 23.9205ZM421.665 29.1364C421.035 29.1364 420.491 28.9972 420.033 28.7188C419.579 28.4375 419.228 28.0455 418.981 27.5426C418.736 27.0369 418.614 26.4489 418.614 25.7784C418.614 25.108 418.736 24.517 418.981 24.0057C419.228 23.4915 419.572 23.0909 420.012 22.804C420.455 22.5142 420.972 22.3693 421.563 22.3693C421.904 22.3693 422.241 22.4261 422.573 22.5398C422.905 22.6534 423.208 22.8381 423.481 23.0938C423.754 23.3466 423.971 23.6818 424.133 24.0994C424.295 24.517 424.376 25.0312 424.376 25.642V26.0682H419.33V25.1989H423.353C423.353 24.8295 423.279 24.5 423.131 24.2102C422.986 23.9205 422.779 23.6918 422.509 23.5241C422.242 23.3565 421.927 23.2727 421.563 23.2727C421.163 23.2727 420.816 23.3722 420.523 23.571C420.234 23.767 420.011 24.0227 419.854 24.3381C419.698 24.6534 419.62 24.9915 419.62 25.3523V25.9318C419.62 26.4261 419.705 26.8452 419.876 27.1889C420.049 27.5298 420.289 27.7898 420.596 27.9688C420.903 28.1449 421.259 28.233 421.665 28.233C421.93 28.233 422.168 28.196 422.381 28.1222C422.597 28.0455 422.783 27.9318 422.94 27.7812C423.096 27.6278 423.217 27.4375 423.302 27.2102L424.273 27.483C424.171 27.8125 423.999 28.1023 423.758 28.3523C423.516 28.5994 423.218 28.7926 422.863 28.9318C422.508 29.0682 422.109 29.1364 421.665 29.1364ZM427.782 29.1534C427.368 29.1534 426.991 29.0753 426.653 28.919C426.315 28.7599 426.047 28.5312 425.848 28.233C425.649 27.9318 425.549 27.5682 425.549 27.142C425.549 26.767 425.623 26.4631 425.771 26.2301C425.919 25.9943 426.116 25.8097 426.363 25.6761C426.61 25.5426 426.883 25.4432 427.181 25.3778C427.483 25.3097 427.785 25.2557 428.089 25.2159C428.487 25.1648 428.809 25.1264 429.056 25.1009C429.306 25.0724 429.488 25.0256 429.602 24.9602C429.718 24.8949 429.777 24.7812 429.777 24.6193V24.5852C429.777 24.1648 429.662 23.8381 429.431 23.6051C429.204 23.3722 428.859 23.2557 428.396 23.2557C427.916 23.2557 427.539 23.3608 427.267 23.571C426.994 23.7812 426.802 24.0057 426.691 24.2443L425.737 23.9034C425.907 23.5057 426.135 23.196 426.419 22.9744C426.706 22.75 427.018 22.5937 427.356 22.5057C427.697 22.4148 428.032 22.3693 428.362 22.3693C428.572 22.3693 428.814 22.3949 429.086 22.446C429.362 22.4943 429.628 22.5952 429.883 22.7486C430.142 22.902 430.356 23.1335 430.527 23.4432C430.697 23.7528 430.782 24.1676 430.782 24.6875V29H429.777V28.1136H429.726C429.657 28.2557 429.544 28.4077 429.385 28.5696C429.226 28.7315 429.014 28.8693 428.75 28.983C428.485 29.0966 428.163 29.1534 427.782 29.1534ZM427.936 28.25C428.333 28.25 428.669 28.1719 428.941 28.0156C429.217 27.8594 429.424 27.6577 429.564 27.4105C429.706 27.1634 429.777 26.9034 429.777 26.6307V25.7102C429.734 25.7614 429.64 25.8082 429.495 25.8509C429.353 25.8906 429.189 25.9261 429.001 25.9574C428.816 25.9858 428.636 26.0114 428.46 26.0341C428.287 26.054 428.146 26.071 428.038 26.0852C427.777 26.1193 427.532 26.1747 427.305 26.2514C427.081 26.3253 426.899 26.4375 426.76 26.5881C426.623 26.7358 426.555 26.9375 426.555 27.1932C426.555 27.5426 426.684 27.8068 426.943 27.9858C427.204 28.1619 427.535 28.25 427.936 28.25ZM432.569 29V22.4545H433.54V23.4432H433.608C433.728 23.1193 433.944 22.8565 434.256 22.6548C434.569 22.4531 434.921 22.3523 435.313 22.3523C435.387 22.3523 435.479 22.3537 435.59 22.3565C435.701 22.3594 435.785 22.3636 435.841 22.3693V23.392C435.807 23.3835 435.729 23.3707 435.607 23.3537C435.488 23.3338 435.361 23.3239 435.228 23.3239C434.91 23.3239 434.625 23.3906 434.375 23.5241C434.128 23.6548 433.932 23.8366 433.787 24.0696C433.645 24.2997 433.574 24.5625 433.574 24.858V29H432.569ZM439.444 29.1364C438.83 29.1364 438.302 28.9915 437.859 28.7017C437.416 28.4119 437.075 28.0128 436.836 27.5043C436.597 26.9957 436.478 26.4148 436.478 25.7614C436.478 25.0966 436.6 24.5099 436.845 24.0014C437.092 23.4901 437.436 23.0909 437.876 22.804C438.319 22.5142 438.836 22.3693 439.427 22.3693C439.887 22.3693 440.302 22.4545 440.671 22.625C441.041 22.7955 441.343 23.0341 441.579 23.3409C441.815 23.6477 441.961 24.0057 442.018 24.4148H441.012C440.936 24.1165 440.765 23.8523 440.501 23.6222C440.239 23.3892 439.887 23.2727 439.444 23.2727C439.052 23.2727 438.708 23.375 438.413 23.5795C438.12 23.7812 437.891 24.0668 437.727 24.4361C437.565 24.8026 437.484 25.233 437.484 25.7273C437.484 26.233 437.563 26.6733 437.722 27.0483C437.884 27.4233 438.112 27.7145 438.404 27.9219C438.7 28.1293 439.046 28.233 439.444 28.233C439.705 28.233 439.943 28.1875 440.156 28.0966C440.369 28.0057 440.549 27.875 440.697 27.7045C440.845 27.5341 440.95 27.3295 441.012 27.0909H442.018C441.961 27.4773 441.82 27.8253 441.596 28.1349C441.374 28.4418 441.08 28.6861 440.714 28.8679C440.35 29.0469 439.927 29.1364 439.444 29.1364ZM444.444 25.0625V29H443.439V20.2727H444.444V23.4773H444.53C444.683 23.1392 444.913 22.8707 445.22 22.6719C445.53 22.4702 445.942 22.3693 446.456 22.3693C446.902 22.3693 447.292 22.4588 447.628 22.6378C447.963 22.8139 448.223 23.0852 448.408 23.4517C448.595 23.8153 448.689 24.2784 448.689 24.8409V29H447.683V24.9091C447.683 24.3892 447.548 23.9872 447.278 23.7031C447.011 23.4162 446.64 23.2727 446.166 23.2727C445.837 23.2727 445.541 23.3423 445.28 23.4815C445.021 23.6207 444.817 23.8239 444.666 24.0909C444.518 24.358 444.444 24.6818 444.444 25.0625ZM450.479 29V22.4545H451.451V23.4773H451.536C451.673 23.1278 451.893 22.8565 452.197 22.6634C452.501 22.4673 452.866 22.3693 453.292 22.3693C453.724 22.3693 454.083 22.4673 454.37 22.6634C454.66 22.8565 454.886 23.1278 455.048 23.4773H455.116C455.283 23.1392 455.535 22.8707 455.87 22.6719C456.205 22.4702 456.607 22.3693 457.076 22.3693C457.661 22.3693 458.14 22.5526 458.512 22.919C458.884 23.2827 459.07 23.8494 459.07 24.6193V29H458.065V24.6193C458.065 24.1364 457.932 23.7912 457.668 23.5838C457.404 23.3764 457.093 23.2727 456.735 23.2727C456.275 23.2727 455.918 23.4119 455.665 23.6903C455.413 23.9659 455.286 24.3153 455.286 24.7386V29H454.263V24.517C454.263 24.1449 454.143 23.8452 453.901 23.6179C453.66 23.3878 453.349 23.2727 452.968 23.2727C452.707 23.2727 452.462 23.3423 452.235 23.4815C452.011 23.6207 451.829 23.8139 451.69 24.0611C451.553 24.3054 451.485 24.5881 451.485 24.9091V29H450.479ZM461.273 31.4545C461.103 31.4545 460.951 31.4403 460.817 31.4119C460.684 31.3864 460.591 31.3608 460.54 31.3352L460.796 30.4489C461.04 30.5114 461.256 30.5341 461.444 30.517C461.631 30.5 461.797 30.4162 461.942 30.2656C462.09 30.1179 462.225 29.8778 462.347 29.5455L462.534 29.0341L460.114 22.4545H461.205L463.012 27.6705H463.08L464.887 22.4545H465.978L463.199 29.9545C463.074 30.2926 462.919 30.5724 462.735 30.794C462.55 31.0185 462.336 31.1847 462.091 31.2926C461.85 31.4006 461.577 31.4545 461.273 31.4545ZM469.766 29.1364C469.135 29.1364 468.591 28.9972 468.134 28.7188C467.679 28.4375 467.328 28.0455 467.081 27.5426C466.837 27.0369 466.715 26.4489 466.715 25.7784C466.715 25.108 466.837 24.517 467.081 24.0057C467.328 23.4915 467.672 23.0909 468.112 22.804C468.555 22.5142 469.072 22.3693 469.663 22.3693C470.004 22.3693 470.341 22.4261 470.673 22.5398C471.006 22.6534 471.308 22.8381 471.581 23.0938C471.854 23.3466 472.071 23.6818 472.233 24.0994C472.395 24.517 472.476 25.0312 472.476 25.642V26.0682H467.43V25.1989H471.453C471.453 24.8295 471.379 24.5 471.232 24.2102C471.087 23.9205 470.879 23.6918 470.609 23.5241C470.342 23.3565 470.027 23.2727 469.663 23.2727C469.263 23.2727 468.916 23.3722 468.624 23.571C468.334 23.767 468.111 24.0227 467.955 24.3381C467.798 24.6534 467.72 24.9915 467.72 25.3523V25.9318C467.72 26.4261 467.805 26.8452 467.976 27.1889C468.149 27.5298 468.389 27.7898 468.696 27.9688C469.003 28.1449 469.359 28.233 469.766 28.233C470.03 28.233 470.269 28.196 470.482 28.1222C470.697 28.0455 470.884 27.9318 471.04 27.7812C471.196 27.6278 471.317 27.4375 471.402 27.2102L472.374 27.483C472.271 27.8125 472.099 28.1023 471.858 28.3523C471.617 28.5994 471.318 28.7926 470.963 28.9318C470.608 29.0682 470.209 29.1364 469.766 29.1364ZM474.531 22.4545L476.099 25.1307L477.667 22.4545H478.826L476.712 25.7273L478.826 29H477.667L476.099 26.4602L474.531 29H473.372L475.451 25.7273L473.372 22.4545H474.531ZM480.212 31.4545V22.4545H481.183V23.4943H481.303C481.377 23.3807 481.479 23.2358 481.61 23.0597C481.743 22.8807 481.933 22.7216 482.181 22.5824C482.431 22.4403 482.769 22.3693 483.195 22.3693C483.746 22.3693 484.232 22.5071 484.652 22.7827C485.073 23.0582 485.401 23.4489 485.637 23.9545C485.872 24.4602 485.99 25.0568 485.99 25.7443C485.99 26.4375 485.872 27.0384 485.637 27.5469C485.401 28.0526 485.074 28.4446 484.656 28.723C484.239 28.9986 483.757 29.1364 483.212 29.1364C482.791 29.1364 482.455 29.0668 482.202 28.9276C481.949 28.7855 481.754 28.625 481.618 28.446C481.482 28.2642 481.377 28.1136 481.303 27.9943H481.217V31.4545H480.212ZM481.2 25.7273C481.2 26.2216 481.273 26.6577 481.418 27.0355C481.563 27.4105 481.774 27.7045 482.053 27.9176C482.331 28.1278 482.672 28.233 483.075 28.233C483.496 28.233 483.847 28.1222 484.128 27.9006C484.412 27.6761 484.625 27.375 484.767 26.9972C484.912 26.6165 484.985 26.1932 484.985 25.7273C484.985 25.267 484.914 24.8523 484.771 24.483C484.632 24.1108 484.421 23.8168 484.137 23.6009C483.855 23.3821 483.502 23.2727 483.075 23.2727C482.666 23.2727 482.323 23.3764 482.044 23.5838C481.766 23.7884 481.556 24.0753 481.414 24.4446C481.271 24.8111 481.2 25.2386 481.2 25.7273ZM490.219 29.1364C489.589 29.1364 489.045 28.9972 488.587 28.7188C488.133 28.4375 487.782 28.0455 487.535 27.5426C487.29 27.0369 487.168 26.4489 487.168 25.7784C487.168 25.108 487.29 24.517 487.535 24.0057C487.782 23.4915 488.126 23.0909 488.566 22.804C489.009 22.5142 489.526 22.3693 490.117 22.3693C490.458 22.3693 490.795 22.4261 491.127 22.5398C491.459 22.6534 491.762 22.8381 492.035 23.0938C492.307 23.3466 492.525 23.6818 492.687 24.0994C492.849 24.517 492.93 25.0312 492.93 25.642V26.0682H487.884V25.1989H491.907C491.907 24.8295 491.833 24.5 491.685 24.2102C491.54 23.9205 491.333 23.6918 491.063 23.5241C490.796 23.3565 490.481 23.2727 490.117 23.2727C489.716 23.2727 489.37 23.3722 489.077 23.571C488.788 23.767 488.565 24.0227 488.408 24.3381C488.252 24.6534 488.174 24.9915 488.174 25.3523V25.9318C488.174 26.4261 488.259 26.8452 488.43 27.1889C488.603 27.5298 488.843 27.7898 489.15 27.9688C489.457 28.1449 489.813 28.233 490.219 28.233C490.484 28.233 490.722 28.196 490.935 28.1222C491.151 28.0455 491.337 27.9318 491.493 27.7812C491.65 27.6278 491.77 27.4375 491.856 27.2102L492.827 27.483C492.725 27.8125 492.553 28.1023 492.312 28.3523C492.07 28.5994 491.772 28.7926 491.417 28.9318C491.062 29.0682 490.663 29.1364 490.219 29.1364ZM494.41 29V22.4545H495.382V23.4432H495.45C495.569 23.1193 495.785 22.8565 496.098 22.6548C496.41 22.4531 496.762 22.3523 497.154 22.3523C497.228 22.3523 497.321 22.3537 497.431 22.3565C497.542 22.3594 497.626 22.3636 497.683 22.3693V23.392C497.649 23.3835 497.571 23.3707 497.448 23.3537C497.329 23.3338 497.203 23.3239 497.069 23.3239C496.751 23.3239 496.467 23.3906 496.217 23.5241C495.97 23.6548 495.774 23.8366 495.629 24.0696C495.487 24.2997 495.416 24.5625 495.416 24.858V29H494.41ZM502.082 22.4545V23.3068H498.69V22.4545H502.082ZM499.679 20.8864H500.685V27.125C500.685 27.4091 500.726 27.6222 500.808 27.7642C500.893 27.9034 501.001 27.9972 501.132 28.0455C501.266 28.0909 501.406 28.1136 501.554 28.1136C501.665 28.1136 501.756 28.108 501.827 28.0966C501.898 28.0824 501.955 28.071 501.997 28.0625L502.202 28.9659C502.134 28.9915 502.038 29.017 501.916 29.0426C501.794 29.071 501.639 29.0852 501.452 29.0852C501.168 29.0852 500.889 29.0241 500.616 28.902C500.347 28.7798 500.122 28.5938 499.943 28.3438C499.767 28.0938 499.679 27.7784 499.679 27.3977V20.8864ZM504.279 29.0682C504.069 29.0682 503.888 28.9929 503.738 28.8423C503.587 28.6918 503.512 28.5114 503.512 28.3011C503.512 28.0909 503.587 27.9105 503.738 27.7599C503.888 27.6094 504.069 27.5341 504.279 27.5341C504.489 27.5341 504.669 27.6094 504.82 27.7599C504.971 27.9105 505.046 28.0909 505.046 28.3011C505.046 28.4403 505.01 28.5682 504.939 28.6847C504.871 28.8011 504.779 28.8949 504.662 28.9659C504.549 29.0341 504.421 29.0682 504.279 29.0682ZM509.46 29.1364C508.847 29.1364 508.318 28.9915 507.875 28.7017C507.432 28.4119 507.091 28.0128 506.852 27.5043C506.614 26.9957 506.494 26.4148 506.494 25.7614C506.494 25.0966 506.617 24.5099 506.861 24.0014C507.108 23.4901 507.452 23.0909 507.892 22.804C508.335 22.5142 508.852 22.3693 509.443 22.3693C509.904 22.3693 510.318 22.4545 510.688 22.625C511.057 22.7955 511.36 23.0341 511.595 23.3409C511.831 23.6477 511.977 24.0057 512.034 24.4148H511.029C510.952 24.1165 510.781 23.8523 510.517 23.6222C510.256 23.3892 509.904 23.2727 509.46 23.2727C509.068 23.2727 508.725 23.375 508.429 23.5795C508.136 23.7812 507.908 24.0668 507.743 24.4361C507.581 24.8026 507.5 25.233 507.5 25.7273C507.5 26.233 507.58 26.6733 507.739 27.0483C507.901 27.4233 508.128 27.7145 508.421 27.9219C508.716 28.1293 509.063 28.233 509.46 28.233C509.722 28.233 509.959 28.1875 510.172 28.0966C510.385 28.0057 510.565 27.875 510.713 27.7045C510.861 27.5341 510.966 27.3295 511.029 27.0909H512.034C511.977 27.4773 511.837 27.8253 511.612 28.1349C511.391 28.4418 511.097 28.6861 510.73 28.8679C510.367 29.0469 509.943 29.1364 509.46 29.1364ZM516.114 29.1364C515.523 29.1364 515.005 28.9957 514.559 28.7145C514.116 28.4332 513.769 28.0398 513.519 27.5341C513.272 27.0284 513.148 26.4375 513.148 25.7614C513.148 25.0795 513.272 24.4844 513.519 23.9759C513.769 23.4673 514.116 23.0724 514.559 22.7912C515.005 22.5099 515.523 22.3693 516.114 22.3693C516.705 22.3693 517.222 22.5099 517.665 22.7912C518.111 23.0724 518.458 23.4673 518.705 23.9759C518.955 24.4844 519.08 25.0795 519.08 25.7614C519.08 26.4375 518.955 27.0284 518.705 27.5341C518.458 28.0398 518.111 28.4332 517.665 28.7145C517.222 28.9957 516.705 29.1364 516.114 29.1364ZM516.114 28.233C516.563 28.233 516.932 28.1179 517.222 27.8878C517.512 27.6577 517.726 27.3551 517.866 26.9801C518.005 26.6051 518.074 26.1989 518.074 25.7614C518.074 25.3239 518.005 24.9162 517.866 24.5384C517.726 24.1605 517.512 23.8551 517.222 23.6222C516.932 23.3892 516.563 23.2727 516.114 23.2727C515.665 23.2727 515.296 23.3892 515.006 23.6222C514.716 23.8551 514.502 24.1605 514.363 24.5384C514.224 24.9162 514.154 25.3239 514.154 25.7614C514.154 26.1989 514.224 26.6051 514.363 26.9801C514.502 27.3551 514.716 27.6577 515.006 27.8878C515.296 28.1179 515.665 28.233 516.114 28.233ZM520.566 29V22.4545H521.538V23.4773H521.623C521.759 23.1278 521.979 22.8565 522.283 22.6634C522.587 22.4673 522.952 22.3693 523.378 22.3693C523.81 22.3693 524.17 22.4673 524.457 22.6634C524.746 22.8565 524.972 23.1278 525.134 23.4773H525.202C525.37 23.1392 525.621 22.8707 525.957 22.6719C526.292 22.4702 526.694 22.3693 527.163 22.3693C527.748 22.3693 528.226 22.5526 528.599 22.919C528.971 23.2827 529.157 23.8494 529.157 24.6193V29H528.151V24.6193C528.151 24.1364 528.019 23.7912 527.755 23.5838C527.491 23.3764 527.18 23.2727 526.822 23.2727C526.361 23.2727 526.005 23.4119 525.752 23.6903C525.499 23.9659 525.373 24.3153 525.373 24.7386V29H524.35V24.517C524.35 24.1449 524.229 23.8452 523.988 23.6179C523.746 23.3878 523.435 23.2727 523.055 23.2727C522.793 23.2727 522.549 23.3423 522.322 23.4815C522.097 23.6207 521.915 23.8139 521.776 24.0611C521.64 24.3054 521.572 24.5881 521.572 24.9091V29H520.566Z" fill="#101D2C"/>
</g>
<defs>
<clipPath id="clip0_0_4798">
<rect width="307" height="31" fill="white" transform="translate(297 10)"/>
</clipPath>
</defs>
</svg>
