<svg width="301" height="5" viewBox="0 0 301 5" fill="none" xmlns="http://www.w3.org/2000/svg">
<path d="M199.223 0.0693359C203.317 0.0747106 217.819 0.144587 227.117 0.133838C248.628 0.106964 270.148 0.123081 291.606 0.52081C294.962 0.585305 300.66 0.590685 300.545 1.81074C300.423 3.07379 296.606 3.81013 290.76 3.76176C276.603 3.63814 262.372 3.33716 248.284 3.55215C227.678 3.86388 207.1 3.67576 186.515 3.73488C168.027 3.78326 149.539 3.70801 131.052 3.76713C113.688 3.82088 96.3309 4.08961 78.9733 4.06811C63.9913 4.05199 49.016 3.72951 34.0339 3.60589C30.5083 3.57902 26.2586 3.79938 22.3947 3.77788C19.1939 3.76176 13.8615 3.74563 10.6945 3.63814C9.32763 3.58977 7.90655 3.53064 6.5667 3.57901C0.408735 3.78325 -1.21534 3.34253 0.848589 1.95586C1.30198 1.6495 0.780919 1.25177 2.26966 1.04215C2.33056 1.0314 2.45236 1.01528 2.51327 1.00454C7.02684 0.166084 11.6555 0.558436 16.3179 0.542311C39.2038 0.461691 62.0964 0.461687 84.9827 0.429442C99.0242 0.413317 113.086 0.472444 127.107 0.316577C130.944 0.273578 134.788 0.0962096 138.679 0.203704H138.611C142.678 0.160706 146.745 0.0854649 150.805 0.0908396C166.186 0.112338 182.245 0.0102149 196.996 0.128458C197.585 0.123083 198.37 0.0693359 199.223 0.0693359Z" fill="#FF6666"/>
</svg>
