<svg width="217" height="5" viewBox="0 0 217 5" fill="none" xmlns="http://www.w3.org/2000/svg">
<path d="M143.542 0.0693359C146.491 0.0747106 156.94 0.144587 163.639 0.133838C179.139 0.106964 194.644 0.123081 210.105 0.52081C212.523 0.585305 216.628 0.590685 216.545 1.81074C216.458 3.07379 213.707 3.81013 209.495 3.76176C199.295 3.63814 189.042 3.33716 178.891 3.55215C164.044 3.86388 149.217 3.67576 134.385 3.73488C121.065 3.78326 107.745 3.70801 94.4241 3.76713C81.9132 3.82088 69.4073 4.08961 56.901 4.06811C46.1063 4.05199 35.3164 3.72951 24.5217 3.60589C21.9815 3.57902 18.9196 3.79938 16.1356 3.77788C13.8294 3.76176 9.98733 3.74563 7.70551 3.63814C6.72064 3.58977 5.69674 3.53064 4.73136 3.57901C0.294497 3.78325 -0.875664 3.34253 0.611416 1.95586C0.938085 1.6495 0.562659 1.25177 1.63531 1.04215C1.67919 1.0314 1.76695 1.01528 1.81083 1.00454C5.0629 0.166084 8.39787 0.558436 11.7572 0.542311C28.2467 0.461691 44.741 0.461687 61.2308 0.429442C71.3478 0.413317 81.4794 0.472444 91.5819 0.316577C94.3461 0.273578 97.1157 0.0962096 99.9193 0.203704H99.8704C102.8 0.160706 105.731 0.0854649 108.657 0.0908396C119.739 0.112338 131.309 0.0102149 141.938 0.128458C142.362 0.123083 142.927 0.0693359 143.542 0.0693359Z" fill="white"/>
</svg>
