<svg width="54" height="55" viewBox="0 0 54 55" fill="none" xmlns="http://www.w3.org/2000/svg">
<path d="M28.82 43.6313H3.52409C1.92527 43.6313 0.629272 42.3388 0.629272 40.7439V3.51447C0.629272 1.91995 1.92527 0.627441 3.52409 0.627441H50.4758C52.0746 0.627441 53.371 1.91995 53.371 3.51447V36.0971" stroke="#101D2C" stroke-width="1.25487" stroke-linecap="round" stroke-linejoin="round"/>
<path fill-rule="evenodd" clip-rule="evenodd" d="M7.71793 6.3088C7.71793 6.03566 7.49564 5.81396 7.22176 5.81396C6.94788 5.81396 6.72559 6.03566 6.72559 6.3088C6.72559 6.58194 6.94788 6.80364 7.22176 6.80364C7.49564 6.80364 7.71793 6.58194 7.71793 6.3088Z" stroke="#101D2C" stroke-width="1.25487" stroke-linecap="round" stroke-linejoin="round"/>
<path fill-rule="evenodd" clip-rule="evenodd" d="M13.3748 6.3088C13.3748 6.03566 13.1525 5.81396 12.8786 5.81396C12.6047 5.81396 12.3824 6.03566 12.3824 6.3088C12.3824 6.58194 12.6047 6.80364 12.8786 6.80364C13.1525 6.80364 13.3748 6.58194 13.3748 6.3088Z" stroke="#101D2C" stroke-width="1.25487" stroke-linecap="round" stroke-linejoin="round"/>
<path fill-rule="evenodd" clip-rule="evenodd" d="M19.0316 6.3088C19.0316 6.03566 18.8094 5.81396 18.5355 5.81396C18.2616 5.81396 18.0393 6.03566 18.0393 6.3088C18.0393 6.58194 18.2616 6.80364 18.5355 6.80364C18.8094 6.80364 19.0316 6.58194 19.0316 6.3088Z" stroke="#101D2C" stroke-width="1.25487" stroke-linecap="round" stroke-linejoin="round"/>
<path d="M0.62915 12.1037H53.3709" stroke="#101D2C" stroke-width="1.25487" stroke-linecap="round" stroke-linejoin="round"/>
<path d="M27.2715 6.36539H48.2822" stroke="#101D2C" stroke-width="1.25487" stroke-linecap="round" stroke-linejoin="round"/>
<path d="M39.4839 32.6749V23.7657C39.4839 22.8622 38.7491 22.1294 37.8432 22.1294C36.9368 22.1294 36.2024 22.8622 36.2024 23.7657V35.3553" stroke="#101D2C" stroke-width="1.25487" stroke-linecap="round" stroke-linejoin="round"/>
<path d="M42.7655 32.6749V30.1388C42.7655 29.2349 42.0307 28.5024 41.1248 28.5024" stroke="#101D2C" stroke-width="1.25487" stroke-linecap="round" stroke-linejoin="round"/>
<path d="M46.047 32.6751V31.2228C46.047 30.3189 45.3126 29.5864 44.4062 29.5864" stroke="#101D2C" stroke-width="1.25487" stroke-linecap="round" stroke-linejoin="round"/>
<path d="M46.6649 48.7995C46.5999 45.7853 46.8448 45.2114 46.8448 45.2114C46.8448 45.2114 46.9925 44.4601 47.3007 43.5056C48.2537 40.5525 48.7691 37.4764 48.8501 34.3773L48.8614 32.9952C48.8614 32.0913 48.1266 31.3589 47.2206 31.3589" stroke="#101D2C" stroke-width="1.25487" stroke-linecap="round" stroke-linejoin="round"/>
<path d="M34.7291 31.1485C34.3663 30.7285 33.832 30.4746 33.2549 30.4746C32.2856 30.4746 31.7722 31.0242 31.6091 31.5655C31.5944 31.6144 31.581 31.6651 31.5688 31.7161C31.4396 32.2649 31.5109 32.8392 31.7273 33.3595C32.1136 34.2873 32.7113 36.1784 32.38 38.6835C32.1883 40.1333 32.531 41.604 33.3627 42.8083C33.8907 43.5721 34.5232 44.4388 35.1829 45.2365C35.1829 45.2365 36.8115 46.8402 36.8115 48.7999" stroke="#101D2C" stroke-width="1.25487" stroke-linecap="round" stroke-linejoin="round"/>
<path d="M47.2204 31.359H46.0469" stroke="#101D2C" stroke-width="1.25487" stroke-linecap="round" stroke-linejoin="round"/>
<path d="M44.4063 29.5861H42.6674" stroke="#101D2C" stroke-width="1.25487" stroke-linecap="round" stroke-linejoin="round"/>
<path d="M41.1248 28.5026H39.484" stroke="#101D2C" stroke-width="1.25487" stroke-linecap="round" stroke-linejoin="round"/>
<path d="M34.9596 54.3727V49.7267C34.9596 49.2147 35.3757 48.7998 35.889 48.7998H47.5937C48.1071 48.7998 48.5231 49.2147 48.5231 49.7267V54.3727" stroke="#101D2C" stroke-width="1.25487" stroke-linecap="round" stroke-linejoin="round"/>
<path d="M6.79633 22.955V18.5864H22.2183V22.955" stroke="#101D2C" stroke-width="1.25487" stroke-linecap="round" stroke-linejoin="round"/>
<mask id="mask0_0_3913" style="mask-type:luminance" maskUnits="userSpaceOnUse" x="0" y="0" width="54" height="55">
<path fill-rule="evenodd" clip-rule="evenodd" d="M0 55H54V0H0V55Z" fill="white"/>
</mask>
<g mask="url(#mask0_0_3913)">
<path fill-rule="evenodd" clip-rule="evenodd" d="M6.79626 29.8327H22.2182V26.8691H6.79626V29.8327Z" fill="#FF6666"/>
<path fill-rule="evenodd" clip-rule="evenodd" d="M6.79626 36.3332H22.2182V33.3696H6.79626V36.3332Z" fill="#FF6666"/>
</g>
</svg>
