<svg width="57" height="57" viewBox="0 0 57 57" fill="none" xmlns="http://www.w3.org/2000/svg">
<path d="M39.4784 20.6457C42.9915 24.585 44.4297 29.1681 44.4297 34.3853C44.4297 46.3226 34.7076 55.9999 22.7147 55.9999C10.7221 55.9999 1 46.3226 1 34.3853C1 22.4477 10.7221 12.7705 22.7147 12.7705C27.8156 12.7705 32.67 14.3658 36.3427 17.5619" stroke="#101D2C" stroke-width="1.22168" stroke-linecap="round" stroke-linejoin="round"/>
<path d="M32.8006 27.3614C34.0841 28.598 35.0263 31.8212 35.0263 34.3854C35.0263 41.1535 29.5142 46.6401 22.7147 46.6401C15.9153 46.6401 10.4032 41.1535 10.4032 34.3854C10.4032 27.6173 15.9153 22.1309 22.7147 22.1309C25.1899 22.1309 27.8785 22.831 29.6688 24.2737" stroke="#101D2C" stroke-width="1.22168" stroke-linecap="round" stroke-linejoin="round"/>
<path fill-rule="evenodd" clip-rule="evenodd" d="M3.45471 34.3856C3.45471 44.9566 12.095 53.5568 22.715 53.5568C31.9334 53.5568 39.6565 47.0748 41.535 38.4502H36.9021C35.1258 44.5832 29.4401 49.0837 22.715 49.0837C14.5726 49.0837 7.94856 42.4902 7.94856 34.3856C7.94856 26.2812 14.5726 19.6877 22.7148 19.6875V15.2144C12.0947 15.2146 3.45471 23.8147 3.45471 34.3856Z" fill="#FF6666"/>
<path d="M26.2452 30.4268L39.4876 17.3979" stroke="#101D2C" stroke-width="1.22168" stroke-linecap="round" stroke-linejoin="round"/>
<path d="M46.8215 17.3505L39.4874 17.398L39.4412 10.0981" stroke="#101D2C" stroke-width="1.22168" stroke-linecap="round" stroke-linejoin="round"/>
<path d="M51.4107 12.8016L44.0777 12.8485L44.0304 5.54932" stroke="#101D2C" stroke-width="1.22168" stroke-linecap="round" stroke-linejoin="round"/>
<path d="M56.0001 8.25276L48.6664 8.29985L48.6195 1" stroke="#101D2C" stroke-width="1.22168" stroke-linecap="round" stroke-linejoin="round"/>
<path d="M23.856 28.0947L24.0599 32.6234L28.8267 32.706" stroke="#101D2C" stroke-width="1.22168" stroke-linecap="round" stroke-linejoin="round"/>
<path d="M28.1663 35.639C27.591 38.2292 25.2702 40.1668 22.4949 40.1668C19.287 40.1668 16.6866 37.5784 16.6866 34.3853C16.6866 31.5513 18.7352 29.1934 21.4387 28.6992" stroke="#101D2C" stroke-width="1.22168" stroke-linecap="round" stroke-linejoin="round"/>
</svg>
