<svg width="67" height="57" viewBox="0 0 67 57" fill="none" xmlns="http://www.w3.org/2000/svg">
<path d="M48.6176 1.24707C44.7649 1.24707 41.6422 4.3501 41.6422 8.17838V16.3141V56H1V8.17838C1 4.3501 4.12277 1.24707 7.97539 1.24707H21.3489" stroke="#101D2C" stroke-width="1.4821" stroke-linecap="round" stroke-linejoin="round"/>
<path fill-rule="evenodd" clip-rule="evenodd" d="M56.7421 56.0002H58.6975C62.7306 56.0002 66 52.7514 66 48.7438V39.0083C66 35.0007 62.7306 31.7524 58.6975 31.7524H56.7421C52.709 31.7524 49.4396 35.0007 49.4396 39.0083V48.7438C49.4396 52.7514 52.709 56.0002 56.7421 56.0002Z" stroke="#101D2C" stroke-width="1.4821" stroke-linecap="round" stroke-linejoin="round"/>
<path d="M57.7199 31.7522V9.9984C57.7199 5.16526 54.3664 1.24707 49.5025 1.24707H48.6176" stroke="#101D2C" stroke-width="1.4821" stroke-linecap="round" stroke-linejoin="round"/>
<path d="M57.7199 36.4379V31.752" stroke="#101D2C" stroke-width="1.4821" stroke-linecap="round" stroke-linejoin="round"/>
<path fill-rule="evenodd" clip-rule="evenodd" d="M59.7498 38.4551C59.7498 39.5692 58.8409 40.4723 57.7198 40.4723C56.5987 40.4723 55.6898 39.5692 55.6898 38.4551C55.6898 37.3411 56.5987 36.438 57.7198 36.438C58.8409 36.438 59.7498 37.3411 59.7498 38.4551Z" stroke="#101D2C" stroke-width="1.4821" stroke-linecap="round" stroke-linejoin="round"/>
<path d="M29.1506 1.24702H38.2166" stroke="#101D2C" stroke-width="1.4821" stroke-linecap="round" stroke-linejoin="round" stroke-dasharray="0 3.6"/>
<path fill-rule="evenodd" clip-rule="evenodd" d="M12.7533 41.3924C12.7533 46.11 16.6014 49.9338 21.349 49.9338C26.0965 49.9338 29.9452 46.11 29.9452 41.3924C29.9452 36.6749 26.0965 32.8511 21.349 32.8511C16.6014 32.8511 12.7533 36.6749 12.7533 41.3924Z" stroke="#101D2C" stroke-width="1.4821" stroke-linecap="round" stroke-linejoin="round"/>
<path d="M17.9786 38.0435L24.7194 44.7416" stroke="#101D2C" stroke-width="1.4821" stroke-linecap="round" stroke-linejoin="round"/>
<path d="M17.9786 44.7416L24.7194 38.0435" stroke="#101D2C" stroke-width="1.4821" stroke-linecap="round" stroke-linejoin="round"/>
<path fill-rule="evenodd" clip-rule="evenodd" d="M13.4108 16.3516C13.4108 20.708 16.9646 24.2399 21.3492 24.2399C25.7333 24.2399 29.2876 20.708 29.2876 16.3516C29.2876 11.9952 25.7333 8.46338 21.3492 8.46338C16.9646 8.46338 13.4108 11.9952 13.4108 16.3516Z" stroke="#101D2C" stroke-width="1.4821" stroke-linecap="round" stroke-linejoin="round"/>
<path d="M17.9452 16.7636L20.6583 19.1681L25.0498 13.8311" stroke="#101D2C" stroke-width="1.4821" stroke-linecap="round" stroke-linejoin="round"/>
<path fill-rule="evenodd" clip-rule="evenodd" d="M52.4229 42.2949V48.7436C52.4229 51.11 54.3603 53.0357 56.7423 53.0357H58.6977C60.933 53.0357 62.777 51.3392 62.9948 49.1739C61.2631 49.0306 59.5469 48.6907 57.9882 47.9437C55.5551 46.7778 53.6792 44.689 52.4229 42.2949Z" fill="#FF6666"/>
</svg>
