<svg width="55" height="57" viewBox="0 0 55 57" fill="none" xmlns="http://www.w3.org/2000/svg">
<path d="M40.3231 37.4023C39.4856 36.7845 38.6443 36.3801 37.8342 36.2036L30.4395 34.0738C30.2788 34.0278 30.1265 33.9572 29.9882 33.8643C29.5981 33.6042 29.3426 33.1876 29.2882 32.7246L28.947 29.8224C31.018 28.2276 32.5489 25.8448 33.2843 23.0614C34.6043 22.9455 35.6185 21.4888 35.6185 19.6514C35.6185 17.9529 34.7586 16.5798 33.5808 16.2866" stroke="#101D2C" stroke-width="1.25474" stroke-linecap="round" stroke-linejoin="round"/>
<path d="M12.713 16.3047C11.5681 16.6288 10.7394 17.9827 10.7394 19.6507C10.7394 21.4864 11.7478 22.941 13.066 23.0611C13.8053 25.8416 15.3361 28.2252 17.4054 29.822L17.0672 32.7238C17.0132 33.1872 16.7577 33.6038 16.368 33.8644C16.2297 33.9568 16.0775 34.0275 15.9172 34.0735L8.54738 36.1953C7.59178 36.404 6.61636 36.9101 5.65697 37.6955C4.14555 38.9331 3.10814 40.6559 2.72986 42.5464L1 55.9997H38.2831" stroke="#101D2C" stroke-width="1.25474" stroke-linecap="round" stroke-linejoin="round"/>
<path d="M13.9851 9.98975C12.4268 12.2537 12.7132 16.3049 12.7132 16.3049" stroke="#101D2C" stroke-width="1.25474" stroke-linecap="round" stroke-linejoin="round"/>
<path d="M33.5806 16.2864C33.5806 16.2864 33.697 13.9718 32.9126 11.3628" stroke="#101D2C" stroke-width="1.25474" stroke-linecap="round" stroke-linejoin="round"/>
<path d="M29.2096 32.0449L23.1779 37.4014L17.1461 32.0449" stroke="#101D2C" stroke-width="1.25474" stroke-linecap="round" stroke-linejoin="round"/>
<path d="M13.9851 9.98981C14.026 5.39369 17.9336 2.77128 21.5848 2.29364C22.4839 2.17611 25.4818 1.82897 27.5385 1L27.5571 1.02886C27.8265 1.45422 27.8725 1.98205 27.6806 2.44672V2.44672C29.8887 3.03561 31.7033 2.76375 33.5867 1.98079C33.6091 3.31542 33.6474 6.0014 33.1055 7.2231C32.5632 8.4448 31.5621 9.51426 30.275 9.90365C29.4476 10.1542 28.5595 10.1144 27.7021 10.0015C25.9752 9.77483 24.3002 9.26541 22.5901 8.93834C20.8801 8.61127 19.0832 8.47199 17.4183 8.97932" stroke="#101D2C" stroke-width="1.25474" stroke-linecap="round" stroke-linejoin="round"/>
<path fill-rule="evenodd" clip-rule="evenodd" d="M30.9784 5.2252C28.6852 5.44185 26.6247 4.76387 27.0241 4.8701C24.4423 4.18251 20.5356 4.59155 18.4388 6.21477C24.894 5.45189 30.4741 10.3052 30.9784 5.2252Z" fill="#FF6666"/>
<path fill-rule="evenodd" clip-rule="evenodd" d="M36.7124 47.4273C36.7124 52.1619 40.5825 56.0001 45.3562 56.0001C50.13 56.0001 54.0001 52.1619 54.0001 47.4273C54.0001 42.6927 50.13 38.8545 45.3562 38.8545C40.5825 38.8545 36.7124 42.6927 36.7124 47.4273Z" stroke="#101D2C" stroke-width="1.25474" stroke-linecap="round" stroke-linejoin="round"/>
<path d="M41.6498 47.8745L44.6043 50.4873L49.3861 44.6875" stroke="#101D2C" stroke-width="1.25474" stroke-linecap="round" stroke-linejoin="round"/>
<path fill-rule="evenodd" clip-rule="evenodd" d="M9.17277 38.6284L9.09138 38.6459C8.53767 38.7668 7.90721 39.1077 7.26747 39.6309C6.22795 40.4825 5.50556 41.6615 5.22765 42.9577L3.87354 53.4904H30.3743C30.266 53.4385 30.158 53.3837 30.0488 53.334C25.9405 51.4673 21.3792 50.8596 16.8867 50.3744C15.4318 50.2172 13.9305 50.0566 12.6502 49.3535C11.3699 48.6504 10.3574 47.2514 10.5834 45.8176C10.7382 44.8352 11.4205 44.03 12.0455 43.2529C13.7011 41.1927 15.1185 38.9479 16.2845 36.5811L9.25247 38.605L9.17277 38.6284Z" fill="#FF6666"/>
</svg>
