<svg width="57" height="57" viewBox="0 0 57 57" fill="none" xmlns="http://www.w3.org/2000/svg">
<path d="M52.6192 33.5819C54.0465 27.4918 53.9474 16.8296 38.6991 10.9561" stroke="#101D2C" stroke-width="1.27686" stroke-linecap="round"/>
<path d="M37.2093 13.6781L35.6288 9.51387L39.8086 7.93652" stroke="#101D2C" stroke-width="1.27686" stroke-linecap="round"/>
<path d="M1.84679 28.3345C0.909505 33.5972 0.397327 47.243 19.0867 50.9918" stroke="#101D2C" stroke-width="1.27686" stroke-linecap="round"/>
<path d="M20.0929 48.0581L22.3575 51.8955L18.506 54.1559" stroke="#101D2C" stroke-width="1.27686" stroke-linecap="round"/>
<path d="M1 4.61084V21.2738C1 21.9961 1.5873 22.5817 2.3116 22.5817H29.1945C29.9188 22.5817 30.5061 21.9961 30.5061 21.2738V5.70894C30.5061 5.10243 30.0131 4.61084 29.4049 4.61084H11.5094" stroke="#101D2C" stroke-width="1.27686" stroke-linecap="round"/>
<path d="M1 4.61095V1H8.88282C9.77913 1 10.5709 1.58225 10.8355 2.43604L11.5094 4.61095H6.43804" stroke="#101D2C" stroke-width="1.27686" stroke-linecap="round"/>
<path d="M10.1351 22.5819V17.3416C10.1351 16.1652 11.0916 15.2114 12.2713 15.2114H19.2348C20.4145 15.2114 21.371 16.1652 21.371 17.3416V22.5819" stroke="#101D2C" stroke-width="1.27686" stroke-linecap="round"/>
<path d="M26.4935 38.0293V54.6918C26.4935 55.4145 27.0808 56.0002 27.8051 56.0002H54.688C55.4127 56.0002 56 55.4145 56 54.6918V39.1274C56 38.5209 55.5066 38.0293 54.8988 38.0293H37.003" stroke="#101D2C" stroke-width="1.27686" stroke-linecap="round"/>
<path d="M26.4935 38.0289V34.418H34.3764C35.2727 34.418 36.0644 35.0002 36.329 35.854L37.003 38.0289H31.932" stroke="#101D2C" stroke-width="1.27686" stroke-linecap="round"/>
<path d="M35.6288 55.9998V50.7596C35.6288 49.5832 36.5853 48.6294 37.765 48.6294H44.7285C45.9082 48.6294 46.8647 49.5832 46.8647 50.7596V55.9998" stroke="#101D2C" stroke-width="1.27686" stroke-linecap="round"/>
<path fill-rule="evenodd" clip-rule="evenodd" d="M20.5477 7.16455L21.5046 7.76297C23.9281 9.2786 25.9013 11.4118 27.2205 13.943C27.4502 14.3835 27.693 14.8491 27.9453 15.3334V7.16455H20.5477Z" fill="#FF6666"/>
<path fill-rule="evenodd" clip-rule="evenodd" d="M46.3744 40.4604L47.3313 41.0589C49.7548 42.5745 51.7279 44.7077 53.0472 47.2388C53.2768 47.6794 53.5197 48.145 53.7719 48.6293V40.4604H46.3744Z" fill="#FF6666"/>
</svg>
