<svg width="57" height="57" viewBox="0 0 57 57" fill="none" xmlns="http://www.w3.org/2000/svg">
<path d="M56 23.8428V52.0796H43.463" stroke="#344154" stroke-width="1.29412" stroke-linecap="round" stroke-linejoin="round"/>
<path d="M47.4445 8.66602H55.9999V10.6753" stroke="#344154" stroke-width="1.29412" stroke-linecap="round" stroke-linejoin="round"/>
<path d="M30.504 52.0798H12.5861V46.0449" stroke="#101D2C" stroke-width="1.29412" stroke-linecap="round" stroke-linejoin="round"/>
<path fill-rule="evenodd" clip-rule="evenodd" d="M42.143 56L1 42.143L14.857 1L56 14.857L42.143 56Z" stroke="#101D2C" stroke-width="1.29412" stroke-linecap="round" stroke-linejoin="round"/>
<path d="M28.8269 5.70482C29.5041 4.01211 31.1593 2.81592 33.094 2.81592C35.6313 2.81592 37.6881 4.8727 37.6881 7.41004V17.9588C37.6881 20.4962 35.6313 22.5529 33.094 22.5529C30.5567 22.5529 28.4999 20.4962 28.4999 17.9588V12.6844" stroke="#101D2C" stroke-width="1.29412" stroke-linecap="round" stroke-linejoin="round"/>
<path d="M31.9509 12.6846V17.9594C31.9509 18.5896 32.4634 19.1021 33.0941 19.1021" stroke="#101D2C" stroke-width="1.29412" stroke-linecap="round" stroke-linejoin="round"/>
<path d="M19.5312 26.6343L36.0627 32.202" stroke="#101D2C" stroke-width="1.29412" stroke-linecap="round" stroke-linejoin="round"/>
<path d="M17.0869 33.2666L33.6184 38.8343" stroke="#101D2C" stroke-width="1.29412" stroke-linecap="round" stroke-linejoin="round"/>
<path fill-rule="evenodd" clip-rule="evenodd" d="M10.4754 22.1182L4.27875 40.5162L21.968 46.4739L18.7845 43.8999C13.4342 39.5732 10.3572 33.0371 10.4314 26.1567L10.4754 22.1182Z" fill="#FF6666"/>
</svg>
