<svg width="23" height="23" viewBox="0 0 23 23" fill="none" xmlns="http://www.w3.org/2000/svg">
<circle cx="11.5" cy="11.5" r="11.5" fill="#F0F0F0"/>
<path d="M23 11.4995C23 6.94022 20.3467 3.00075 16.5 1.14062V21.8584C20.3467 19.9983 23 16.0588 23 11.4995Z" fill="#D80027"/>
<path d="M0 11.4995C0 16.0588 2.65331 19.9983 6.50002 21.8584V1.14062C2.65331 3.00075 0 6.94022 0 11.4995Z" fill="#D80027"/>
<path d="M13.5 13L15.5 12L14.5 11.5V10.5L12.5 11.5L13.5 9.49999H12.5L11.5 8L10.5 9.49999H9.49997L10.5 11.5L8.49996 10.5V11.5L7.5 12L9.49997 13L8.99999 14H11V15.5H12V14H14L13.5 13Z" fill="#D80027"/>
</svg>
