<svg width="23" height="23" viewBox="0 0 23 23" fill="none" xmlns="http://www.w3.org/2000/svg">
<circle cx="11.5" cy="11.5" r="11.5" fill="#F7931E"/>
<path d="M23 11.5C23 17.8633 17.8633 23 11.5 23C5.13667 23 0 17.8633 0 11.5H23Z" fill="#009245"/>
<path d="M23 11.5003C23 10.197 22.77 8.89366 22.31 7.66699H0.69C-0.23 10.1203 -0.23 12.8803 0.69 15.3337H22.3867C22.77 14.107 23 12.8037 23 11.5003Z" fill="#F0F0F0"/>
<path fill-rule="evenodd" clip-rule="evenodd" d="M8.43335 11.5003C8.43335 9.81359 9.81335 8.43359 11.5 8.43359C13.1867 8.43359 14.5667 9.81359 14.5667 11.5003C14.5667 13.1869 13.1867 14.5669 11.5 14.5669C9.81335 14.5669 8.43335 13.1869 8.43335 11.5003ZM9.20002 11.5003C9.20002 12.8036 10.1967 13.8003 11.5 13.8003C12.8033 13.8003 13.8 12.8036 13.8 11.5003C13.8 10.1969 12.8033 9.20026 11.5 9.20026C10.1967 9.20026 9.20002 10.1969 9.20002 11.5003Z" fill="#0071BC"/>
<circle cx="11.5" cy="11.5001" r="1.53333" fill="#0071BC"/>
</svg>
