<svg width="23" height="23" viewBox="0 0 23 23" fill="none" xmlns="http://www.w3.org/2000/svg">
<path d="M11.5 22.9999C17.851 22.9999 23 17.8506 23 11.5C23 5.14938 17.8515 0 11.5 0C5.14849 0 0 5.14983 0 11.5C0 17.8501 5.14894 22.9999 11.5 22.9999Z" fill="#F0F0F0"/>
<path fill-rule="evenodd" clip-rule="evenodd" d="M10.983 5.49521H21.3006C20.5994 4.34674 19.7021 3.3303 18.6493 2.49219H10.983V5.49521ZM10.9893 11.4999H23C23.0009 10.4861 22.8678 9.4767 22.6043 8.49778H10.9893V11.4999ZM11.5 22.9999C14.1 23.0059 16.6241 22.1248 18.6556 20.5022H4.34487C6.37604 22.1251 8.90018 23.0062 11.5 22.9999ZM1.68685 17.5059H21.3132C21.8857 16.5724 22.3204 15.5611 22.6038 14.5034H0.39624C0.679724 15.5611 1.11441 16.5724 1.68685 17.5059Z" fill="#D80027"/>
<path fill-rule="evenodd" clip-rule="evenodd" d="M6.3789 1.7897H5.33896C7.18009 0.618128 9.31772 -0.00281891 11.5 1.93066e-05V11.5H0C-0.000148585 11.0213 0.0319685 10.5432 0.0961338 10.0688L0.671134 9.64742L1.64863 10.3504L1.27803 9.20045L2.24205 8.49023H1.02916L0.709766 7.48848L1.09295 6.59633L1.64863 7.00063L1.35484 6.08692L1.63606 5.59278L2.25598 5.14356H1.91727C2.53308 4.20877 3.28203 3.36886 4.14045 2.6504L3.82105 3.64273L4.79226 2.9397L5.76976 3.64273L5.39916 2.49273L6.3789 1.7897ZM5.34984 1.81284H5.37284L5.34984 1.82884V1.81284ZM5.78982 10.368L5.80883 10.383H5.79483L5.78982 10.368ZM5.76752 10.3446L5.39871 9.2009L6.37441 8.49832H5.16152L4.79092 7.34832L4.42031 8.49832H3.20742L4.18492 9.20135L3.81432 10.3513L4.79182 9.64832L5.76752 10.3446ZM5.40545 5.85333L5.77605 7.00332L4.79855 6.3003L3.82105 7.00332L4.19166 5.85333L3.21416 5.1503H4.42705L4.79766 4.0003L5.16826 5.1503H6.38115L5.40545 5.85333ZM9.90302 10.3513L8.92552 9.64832L7.95162 10.3513L8.32222 9.20135L7.34472 8.49832H8.55762L8.92822 7.34832L9.29883 8.49832H10.5117L9.53242 9.20135L9.90302 10.3513ZM9.53242 5.85333L9.90302 7.00332L8.92553 6.3003L7.94803 7.00332L8.31863 5.85333L7.34113 5.1503H8.55402L8.92463 4.0003L9.29523 5.1503H10.5081L9.53242 5.85333ZM9.53242 2.50531L9.90302 3.6553L8.92912 2.95228L7.95162 3.6553L8.32222 2.50531L7.34472 1.80228H8.55762L8.92822 0.652283L9.29883 1.80228H10.5117L9.53242 2.50531Z" fill="#0052B4"/>
</svg>
