<svg width="66" height="52" viewBox="0 0 66 52" fill="none" xmlns="http://www.w3.org/2000/svg">
<path d="M23.2173 6.74305C23.2173 6.74305 21.4678 3.53701 25.1953 3.03076C25.1953 3.03076 25.9707 5.05324 29.0425 5.38642C30.8331 5.58043 31.8501 7.59144 30.9258 9.12962C30.9128 9.15057 30.8997 9.17152 30.8867 9.19247" stroke="#101D2C" stroke-width="1.49629" stroke-linecap="round" stroke-linejoin="round"/>
<path d="M25.1951 3.03096C25.1951 3.03096 25.1891 3.01001 25.1816 2.9711C24.9344 1.75762 26.1014 0.717698 27.2944 1.06933C28.2689 1.35611 29.7627 1.57956 31.6755 1.20798C32.6164 1.02543 33.5954 1.21097 34.3929 1.74066C35.6466 2.57259 37.5138 4.01801 39.144 6.11181" stroke="#101D2C" stroke-width="1.49629" stroke-linecap="round" stroke-linejoin="round"/>
<path d="M31.2736 7.5489L39.2984 6.30499C40.122 6.17731 40.9621 6.20573 41.7752 6.38878L43.2038 6.71098C44.9337 7.10051 45.7528 9.1225 44.7212 10.5584C44.7076 10.5779 44.6936 10.5973 44.6791 10.6168C44.6791 10.6168 46.8475 11.5275 46.1017 14.4268C46.1017 14.4268 47.9995 15.6403 46.8475 17.9665C46.8475 17.9665 48.8125 19.0793 48.203 21.3048C44.7638 23.9572 41.0539 26.242 37.1344 28.1223L35.4396 28.9353L28.8138 29.5742C27.0238 29.7463 25.2754 30.2141 23.6397 30.9578L12.9852 37.8587" stroke="#101D2C" stroke-width="1.49629" stroke-linecap="round" stroke-linejoin="round"/>
<path d="M20.9956 14.251C20.9956 14.251 19.3925 14.7133 19.5369 16.1707C19.6166 16.9792 20.2417 17.6316 21.0287 17.8495L23.4213 18.5119C24.496 18.8092 25.671 18.1982 25.9065 17.1134C26.0028 16.6695 25.9451 16.1627 25.5842 15.6211" stroke="#101D2C" stroke-width="1.49629" stroke-linecap="round" stroke-linejoin="round"/>
<path d="M20.8069 17.7717L12.9856 23.5294" stroke="#101D2C" stroke-width="1.49629" stroke-linecap="round" stroke-linejoin="round"/>
<path d="M35.4397 28.9353C35.4397 28.9353 46.8476 35.296 53.0142 37.9933" stroke="#101D2C" stroke-width="1.49629" stroke-linecap="round" stroke-linejoin="round"/>
<path d="M48.2028 21.3044L52.3362 23.4431" stroke="#101D2C" stroke-width="1.49629" stroke-linecap="round" stroke-linejoin="round"/>
<path d="M44.6788 10.6167L39.4946 11.0886" stroke="#101D2C" stroke-width="1.49629" stroke-linecap="round" stroke-linejoin="round"/>
<path d="M46.1016 14.4265L40.5024 15.8196" stroke="#101D2C" stroke-width="1.49629" stroke-linecap="round" stroke-linejoin="round"/>
<path d="M46.8474 17.9668L42.0863 20.4955" stroke="#101D2C" stroke-width="1.49629" stroke-linecap="round" stroke-linejoin="round"/>
<path d="M7.56388 24.5073L12.9856 21.7087V40.0497L7.50574 42.9834" stroke="#101D2C" stroke-width="1.49629" stroke-linecap="round" stroke-linejoin="round"/>
<path d="M1 50.95L6.72952 47.4766C7.21174 47.1843 7.50599 46.6636 7.50599 46.102V23.6123C7.50599 22.3624 6.13652 21.5893 5.05829 22.2302L1 24.6418" stroke="#101D2C" stroke-width="1.49629" stroke-linecap="round" stroke-linejoin="round"/>
<path d="M58.4355 24.5073L53.0143 21.7087V40.0497L58.4355 42.9336" stroke="#101D2C" stroke-width="1.49629" stroke-linecap="round" stroke-linejoin="round"/>
<path d="M65 51L59.2705 47.5266C58.7883 47.2344 58.494 46.7136 58.494 46.152V23.6624C58.494 22.4125 59.8635 21.6394 60.9417 22.2803L65 24.6918" stroke="#101D2C" stroke-width="1.49629" stroke-linecap="round" stroke-linejoin="round"/>
<path d="M26.9434 12.3066L29.0558 12.9036C30.1661 13.2168 31.3235 12.5859 31.6554 11.4861C31.9832 10.4003 31.3857 9.25117 30.305 8.89006L24.2536 6.86758C23.4937 6.61371 22.6335 6.71047 22.0099 7.21173C21.6179 7.52695 21.2736 8.00227 21.1718 8.71799C21.0315 9.70205 21.653 10.6397 22.6054 10.9395L28.8919 12.9206L28.4598 14.2238C28.0658 15.4104 26.767 16.0413 25.5845 15.6209L25.2291 15.4942L20.7903 14.1904C19.8354 13.8313 19.3958 12.4183 19.8079 11.4891C20.0455 10.9529 20.5853 10.4871 21.7022 10.3694" stroke="#101D2C" stroke-width="1.49629" stroke-linecap="round" stroke-linejoin="round"/>
<path fill-rule="evenodd" clip-rule="evenodd" d="M34.6164 26.008C36.03 25.3302 36.8215 24.9656 38.5539 24.021C34.8244 23.3062 31.0248 22.2479 27.174 22.4538C21.5192 22.7561 16.9416 25.8684 16.6945 31.8849C24.4687 26.8494 22.5959 27.1672 34.6164 26.008Z" fill="#FF6666"/>
</svg>
