<svg width="54" height="55" viewBox="0 0 54 55" fill="none" xmlns="http://www.w3.org/2000/svg">
<path fill-rule="evenodd" clip-rule="evenodd" d="M20.4439 47.5996H14.5651C14.5494 47.1976 14.5158 45.9985 14.5149 45.8958C14.5144 45.7928 14.5193 45.6901 14.5202 45.5871H14.7454C15.7131 45.5871 16.4973 44.7998 16.4973 43.8293C16.4973 42.866 15.7252 42.0851 14.7683 42.0725C14.9873 40.4021 15.3367 38.7474 15.789 37.1278C16.1061 35.9935 16.4731 34.8732 16.8872 33.7708C17.1066 33.187 17.3372 32.6495 17.6072 32.0846C17.937 31.3941 18.2227 30.678 18.3946 29.9303C18.7189 28.5201 18.5314 27.0311 17.8809 25.7428C16.8069 23.616 14.5808 22.2422 12.2049 22.2422C9.82896 22.2422 7.60288 23.616 6.52887 25.7428C5.87836 27.0311 5.69083 28.5201 6.01519 29.9303C6.18701 30.678 6.47279 31.3941 6.80253 32.0846C7.0726 32.6495 7.30319 33.187 7.52257 33.7708C7.93665 34.8732 8.30363 35.9935 8.62081 37.1278C9.07302 38.7474 9.4225 40.4021 9.64143 42.0725C8.68451 42.0851 7.91243 42.866 7.91243 43.8293C7.91243 44.7998 8.69707 45.5871 9.66431 45.5871H9.88952C9.89042 45.6901 9.89535 45.7928 9.89491 45.8958C9.89446 45.9985 9.86036 47.1976 9.84511 47.5996H3.96587C2.32793 47.5996 1 48.9319 1 50.5753V53.9999H23.4098V50.5753C23.4098 48.9319 22.0818 47.5996 20.4439 47.5996Z" stroke="#101D2C" stroke-width="1.35038" stroke-linecap="round" stroke-linejoin="round"/>
<path d="M25.3772 27.8116C25.3772 29.717 26.9169 31.2614 28.8159 31.2614C30.7149 31.2614 32.2542 29.717 32.2542 27.8116C32.2542 25.9062 30.8446 25.0258 28.8159 24.3614C27.0106 23.7704 25.3772 22.817 25.3772 20.9116C25.3772 19.0063 26.9169 17.4614 28.8159 17.4614C30.7149 17.4614 32.2542 19.0063 32.2542 20.9116" stroke="#101D2C" stroke-width="1.35038" stroke-linecap="round" stroke-linejoin="round"/>
<path d="M28.8157 15.5383V17.4851" stroke="#101D2C" stroke-width="1.35038" stroke-linecap="round" stroke-linejoin="round"/>
<path d="M28.8157 31.2615V33.2083" stroke="#101D2C" stroke-width="1.35038" stroke-linecap="round" stroke-linejoin="round"/>
<path fill-rule="evenodd" clip-rule="evenodd" d="M34.382 1H22.8676C22.3669 1 21.9609 1.40736 21.9609 1.9097V6.86964C21.9609 7.93013 22.8178 8.78987 23.8748 8.78987H23.9035C24.6998 8.78987 25.384 8.28348 25.694 7.54753C26.1767 6.40196 27.3072 5.59848 28.6248 5.59848C29.9424 5.59848 31.073 6.40196 31.5557 7.54753C31.8657 8.28348 32.5499 8.78987 33.3462 8.78987H33.3749C34.4318 8.78987 35.2883 7.93013 35.2883 6.86964V1.9097C35.2883 1.40736 34.8827 1 34.382 1Z" stroke="#101D2C" stroke-width="1.35038" stroke-linecap="round" stroke-linejoin="round"/>
<path d="M48.786 5.05151H52.9999V44.4186C52.9999 49.7004 48.7326 53.982 43.4684 53.982H26.1017" stroke="#101D2C" stroke-width="1.35038" stroke-linecap="round" stroke-linejoin="round"/>
<path d="M26.1017 49.754H40.1818C41.6416 49.754 42.8251 48.5666 42.8251 47.1019V43.7727H46.1427C47.6025 43.7727 48.786 42.5853 48.786 41.1206V1H38.3572" stroke="#101D2C" stroke-width="1.35038" stroke-linecap="round" stroke-linejoin="round"/>
<path d="M18.8921 1H8.46338V20.3685" stroke="#101D2C" stroke-width="1.35038" stroke-linecap="round" stroke-linejoin="round"/>
<path fill-rule="evenodd" clip-rule="evenodd" d="M15.5788 27.1836C15.5474 27.1098 15.516 27.036 15.4796 26.9639C14.8601 25.736 13.5743 24.9429 12.2051 24.9429C10.8355 24.9429 9.55014 25.7364 8.93014 26.9639C8.56047 27.6958 8.45639 28.534 8.63808 29.3239C8.70044 29.594 8.79331 29.8807 8.91488 30.1918C10.4303 28.4354 12.5923 27.0161 15.5788 27.1836Z" fill="#FF6666"/>
</svg>
