<svg width="60" height="52" viewBox="0 0 60 52" fill="none" xmlns="http://www.w3.org/2000/svg">
<path d="M36.6 35.4994H14.5549V28.8975" stroke="#101D2C" stroke-width="1.31331" stroke-linecap="round" stroke-linejoin="round"/>
<path d="M41.3784 28.8657H8.02295V21.8601" stroke="#101D2C" stroke-width="1.31331" stroke-linecap="round" stroke-linejoin="round"/>
<path d="M37.4934 5.51733V1H1V21.8592H35.4345" stroke="#101D2C" stroke-width="1.31331" stroke-linecap="round" stroke-linejoin="round"/>
<path d="M13.804 16.8593C10.7981 13.8606 10.7981 8.99871 13.804 6" stroke="#101D2C" stroke-width="1.31331" stroke-linecap="round" stroke-linejoin="round"/>
<path d="M24.6893 6C27.6952 8.99871 27.6952 13.8606 24.6893 16.8593" stroke="#101D2C" stroke-width="1.31331" stroke-linecap="round" stroke-linejoin="round"/>
<path fill-rule="evenodd" clip-rule="evenodd" d="M31.2268 11.948C31.2268 11.7072 31.4225 11.512 31.6639 11.512C31.9057 11.512 32.1014 11.7072 32.1014 11.948C32.1014 12.1888 31.9057 12.3844 31.6639 12.3844C31.4225 12.3844 31.2268 12.1888 31.2268 11.948Z" stroke="#101D2C" stroke-width="1.31331" stroke-linecap="round" stroke-linejoin="round"/>
<path fill-rule="evenodd" clip-rule="evenodd" d="M6.39197 11.948C6.39197 11.7072 6.58768 11.512 6.82946 11.512C7.07081 11.512 7.26652 11.7072 7.26652 11.948C7.26652 12.1888 7.07081 12.3844 6.82946 12.3844C6.58768 12.3844 6.39197 12.1888 6.39197 11.948Z" stroke="#101D2C" stroke-width="1.31331" stroke-linecap="round" stroke-linejoin="round"/>
<path d="M17.1212 13.5429C17.1212 14.7139 18.073 15.663 19.2468 15.663C20.4202 15.663 21.372 14.7139 21.372 13.5429C21.372 12.3718 20.5005 11.8307 19.2468 11.4223C18.1309 11.0594 17.1212 10.4732 17.1212 9.30219C17.1212 8.13116 18.073 7.18164 19.2468 7.18164C20.4202 7.18164 21.372 8.13116 21.372 9.30219" stroke="#101D2C" stroke-width="1.31331" stroke-linecap="round" stroke-linejoin="round"/>
<path d="M19.2466 6V7.19642" stroke="#101D2C" stroke-width="1.31331" stroke-linecap="round" stroke-linejoin="round"/>
<path d="M19.2466 15.6631V16.8595" stroke="#101D2C" stroke-width="1.31331" stroke-linecap="round" stroke-linejoin="round"/>
<path d="M37.4497 47.729C37.4497 47.729 33.2318 38.8025 44.3654 31.7837C44.3654 31.7837 46.0903 30.7445 46.0903 29.5721C46.0903 28.3993 44.3654 27.3601 44.3654 27.3601C33.2318 20.3418 37.4497 11.4148 37.4497 11.4148" stroke="#101D2C" stroke-width="1.31331" stroke-linecap="round" stroke-linejoin="round"/>
<path d="M56.985 47.729C56.985 47.729 61.2029 38.8025 50.0693 31.7837C50.0693 31.7837 48.3444 30.7445 48.3444 29.5721C48.3444 28.3993 50.0693 27.3601 50.0693 27.3601C61.2029 20.3418 56.985 11.4148 56.985 11.4148" stroke="#101D2C" stroke-width="1.31331" stroke-linecap="round" stroke-linejoin="round"/>
<path fill-rule="evenodd" clip-rule="evenodd" d="M58.9999 11.4149H35.4348V9.29912C35.4348 8.66129 35.9531 8.14429 36.5924 8.14429H57.8419C58.4817 8.14429 58.9999 8.66129 58.9999 9.29912V11.4149Z" stroke="#101D2C" stroke-width="1.31331" stroke-linecap="round" stroke-linejoin="round"/>
<path fill-rule="evenodd" clip-rule="evenodd" d="M58.9999 47.729H35.4348V49.8447C35.4348 50.4826 35.9531 51 36.5924 51H57.8419C58.4817 51 58.9999 50.4826 58.9999 49.8447V47.729Z" stroke="#101D2C" stroke-width="1.31331" stroke-linecap="round" stroke-linejoin="round"/>
<path fill-rule="evenodd" clip-rule="evenodd" d="M45.7537 25.1281C46.0653 25.3181 46.6493 25.7121 47.2171 26.2878C47.7854 25.7121 48.3695 25.3181 48.681 25.1281C53.1512 22.3041 54.6761 19.259 55.0596 16.8591H39.3729C39.7569 19.2559 41.2813 22.3028 45.7537 25.1281Z" fill="#FF6666"/>
<path fill-rule="evenodd" clip-rule="evenodd" d="M54.3737 40.0144H40.0609C39.1434 42.0583 39.1772 43.879 39.3961 45.1022H55.0385C55.2579 43.879 55.2917 42.0583 54.3737 40.0144Z" fill="#FF6666"/>
</svg>
