<svg width="16" height="14" viewBox="0 0 16 14" fill="none" xmlns="http://www.w3.org/2000/svg">
<path fill-rule="evenodd" clip-rule="evenodd" d="M0.516569 12.8317C0.860948 13.1763 1.27787 13.3486 1.76733 13.3486H14.2139C14.7085 13.3486 15.1299 13.1763 15.4779 12.8317C15.826 12.4871 16 12.07 16 11.5802V2.1359C16 1.64094 15.826 1.21933 15.4779 0.87106C15.1299 0.522775 14.7085 0.348633 14.2139 0.348633H1.76733C1.27787 0.348633 0.860948 0.522775 0.516569 0.87106C0.17219 1.21933 0 1.64094 0 2.1359V11.5802C0 12.07 0.17219 12.4871 0.516569 12.8317ZM14.2139 3.60334L7.9906 7.79871L1.76733 3.60334V2.1359L7.9906 6.2372L14.2139 2.1359V3.60334Z" fill="black"/>
</svg>
