<svg width="14" height="19" viewBox="0 0 14 19" fill="none" xmlns="http://www.w3.org/2000/svg">
<path fill-rule="evenodd" clip-rule="evenodd" d="M1.73906 12.6224C2.89844 14.3849 4.65208 16.2936 7 18.3486C9.34792 16.2936 11.1016 14.3849 12.2609 12.6224C13.4203 10.8599 14 9.22863 14 7.72863C14 5.47863 13.2964 3.68613 11.8891 2.35113C10.4818 1.01613 8.85208 0.348633 7 0.348633C5.14792 0.348633 3.51823 1.01613 2.11094 2.35113C0.703646 3.68613 0 5.47863 0 7.72863C0 9.22863 0.579688 10.8599 1.73906 12.6224ZM8.08281 8.66038C7.78385 8.96922 7.42357 9.12363 7.00195 9.12363C6.58031 9.12363 6.21938 8.96988 5.91913 8.66238C5.61888 8.35488 5.46875 7.9843 5.46875 7.55064C5.46875 7.11696 5.61823 6.74571 5.91719 6.43689C6.21615 6.12805 6.57643 5.97363 6.99805 5.97363C7.41969 5.97363 7.78062 6.12738 8.08087 6.43488C8.38112 6.74238 8.53125 7.11297 8.53125 7.54663C8.53125 7.98031 8.38177 8.35156 8.08281 8.66038Z" fill="black"/>
</svg>
