<svg width="14" height="16" viewBox="0 0 14 16" fill="none" xmlns="http://www.w3.org/2000/svg">
<path fill-rule="evenodd" clip-rule="evenodd" d="M12.7108 7.33337C12.6502 5.79393 12.1085 4.48667 11.0856 3.41161C10.0627 2.33655 8.81885 1.76721 7.35409 1.70359V0.348633C8.262 0.374078 9.11543 0.57446 9.9144 0.949778C10.7134 1.3251 11.4094 1.82446 12.0026 2.44787C12.5958 3.07128 13.0709 3.80283 13.428 4.64253C13.7851 5.48222 13.9758 6.37917 14 7.33337H12.7108ZM9.40597 7.33337C9.34544 6.76085 9.12451 6.27421 8.74319 5.87344C8.36187 5.47268 7.89883 5.24049 7.35409 5.17688V3.82192C8.262 3.88553 9.03372 4.24812 9.66926 4.9097C10.3048 5.57128 10.6528 6.37917 10.7134 7.33337H9.40597ZM8.15305 14.1654C9.66623 14.9542 11.1915 15.3486 12.7289 15.3486C13.08 15.3486 13.3766 15.2214 13.6187 14.967C13.8608 14.7125 13.9818 14.3944 13.9818 14.0128V11.341C13.9818 10.9466 13.882 10.6222 13.6822 10.3677C13.4825 10.1133 13.195 9.93515 12.8197 9.83337L11.0402 9.37535C10.7376 9.29902 10.4622 9.3022 10.214 9.38489C9.96585 9.46759 9.73281 9.62344 9.51492 9.85245L7.69909 11.7799C6.8275 11.271 6.03761 10.6508 5.32944 9.91924C4.62127 9.18769 3.96455 8.31937 3.35927 7.31428L5.26589 5.5013C5.45958 5.32319 5.59274 5.11008 5.66537 4.86199C5.738 4.6139 5.74406 4.3181 5.68353 3.97459L5.19326 1.87535C5.10852 1.48095 4.94812 1.18197 4.71206 0.978404C4.47601 0.774841 4.17034 0.67306 3.79507 0.67306H1.25292C0.901859 0.67306 0.605275 0.800287 0.363165 1.05474C0.121055 1.30919 0 1.6209 0 1.98985C0 3.59291 0.37527 5.19278 1.12581 6.78947C1.87635 8.38616 2.8569 9.81746 4.06744 11.0834C5.27799 12.3493 6.63986 13.3766 8.15305 14.1654Z" fill="black"/>
</svg>
