<svg width="69" height="49" viewBox="0 0 69 49" fill="none" xmlns="http://www.w3.org/2000/svg">
<path d="M40.7386 17.2132C38.2418 14.793 34.8416 13.304 31.0939 13.304C23.4314 13.304 17.2189 19.5311 17.2189 27.2126C17.2189 34.8942 23.4314 41.1213 31.0939 41.1213C38.7574 41.1213 44.9692 34.8942 44.9692 27.2126C44.9692 26.2227 44.8658 25.2568 44.6696 24.3253" stroke="#101D2C" stroke-width="1.39752" stroke-linecap="round" stroke-linejoin="round"/>
<path d="M31.0941 27.2127L52.3044 15.5342" stroke="#101D2C" stroke-width="1.39752" stroke-linecap="round" stroke-linejoin="round"/>
<path d="M58.3672 17.1505L52.3042 15.5342L53.9176 9.45728" stroke="#101D2C" stroke-width="1.39752" stroke-linecap="round" stroke-linejoin="round"/>
<path d="M63.1836 14.4063L57.1216 12.7897L58.734 6.71301" stroke="#101D2C" stroke-width="1.39752" stroke-linecap="round" stroke-linejoin="round"/>
<path d="M68 11.662L61.9375 10.0454L63.5504 3.96851" stroke="#101D2C" stroke-width="1.39752" stroke-linecap="round" stroke-linejoin="round"/>
<path d="M31.9998 22.4055L30.9062 27.2699L35.9051 28.7315" stroke="#101D2C" stroke-width="1.39752" stroke-linecap="round" stroke-linejoin="round"/>
<path d="M36.5532 31.7199C35.2544 33.2978 33.2894 34.3053 31.0942 34.3053C27.1926 34.3053 24.0186 31.1235 24.0186 27.2127C24.0186 23.7967 26.4406 20.9378 29.6532 20.2688" stroke="#101D2C" stroke-width="1.39752" stroke-linecap="round" stroke-linejoin="round"/>
<path d="M58.3485 4.08853C58.3485 2.38279 56.9691 1 55.2675 1H4.08106C2.37944 1 1 2.38279 1 4.08853V43.7965C1 46.1182 2.87728 48 5.19333 48H54.1552C56.4713 48 58.3485 46.1182 58.3485 43.7965V20.8418" stroke="#101D2C" stroke-width="1.39752" stroke-linecap="round" stroke-linejoin="round"/>
<path fill-rule="evenodd" clip-rule="evenodd" d="M8.70797 7.20929C8.70797 6.91073 8.46641 6.66858 8.16857 6.66858C7.87047 6.66858 7.62891 6.91073 7.62891 7.20929C7.62891 7.50786 7.87047 7.75001 8.16857 7.75001C8.46641 7.75001 8.70797 7.50786 8.70797 7.20929Z" stroke="#101D2C" stroke-width="1.39752" stroke-linecap="round" stroke-linejoin="round"/>
<path fill-rule="evenodd" clip-rule="evenodd" d="M14.859 7.20929C14.859 6.91073 14.6174 6.66858 14.3196 6.66858C14.0217 6.66858 13.7802 6.91073 13.7802 7.20929C13.7802 7.50786 14.0217 7.75001 14.3196 7.75001C14.6174 7.75001 14.859 7.50786 14.859 7.20929Z" stroke="#101D2C" stroke-width="1.39752" stroke-linecap="round" stroke-linejoin="round"/>
<path fill-rule="evenodd" clip-rule="evenodd" d="M21.01 7.20929C21.01 6.91073 20.7684 6.66858 20.4706 6.66858C20.1725 6.66858 19.9312 6.91073 19.9312 7.20929C19.9312 7.50786 20.1725 7.75001 20.4706 7.75001C20.7684 7.75001 21.01 7.50786 21.01 7.20929Z" stroke="#101D2C" stroke-width="1.39752" stroke-linecap="round" stroke-linejoin="round"/>
<path d="M1 13.3031H20.4706" stroke="#101D2C" stroke-width="1.39752" stroke-linecap="round" stroke-linejoin="round"/>
<path fill-rule="evenodd" clip-rule="evenodd" d="M5.19308 45.2572H19.1594L3.73633 29.797V43.7966C3.73633 44.6021 4.38955 45.2572 5.19308 45.2572Z" fill="#FF6666"/>
</svg>
