<svg width="59" height="56" viewBox="0 0 59 56" fill="none" xmlns="http://www.w3.org/2000/svg">
<path d="M33.457 36.8337C33.457 38.6306 34.9066 40.0872 36.6952 40.0872C38.4834 40.0872 39.933 38.6306 39.933 36.8337C39.933 35.0368 38.6056 34.2066 36.6952 33.5797C34.9951 33.0226 33.457 32.1231 33.457 30.3262C33.457 28.5294 34.9066 27.0723 36.6952 27.0723C38.4834 27.0723 39.933 28.5294 39.933 30.3262" stroke="#101D2C" stroke-width="1.30681" stroke-linecap="round" stroke-linejoin="round"/>
<path d="M36.695 25.2587V27.0947" stroke="#101D2C" stroke-width="1.30681" stroke-linecap="round" stroke-linejoin="round"/>
<path d="M36.695 40.0874V41.9235" stroke="#101D2C" stroke-width="1.30681" stroke-linecap="round" stroke-linejoin="round"/>
<path d="M19.6752 40.7262H1.89863C1.40228 40.7262 1 40.3219 1 39.8232V1.90301C1 1.40424 1.40228 1 1.89863 1H48.4564C48.9528 1 49.3551 1.40424 49.3551 1.90301V20.1339" stroke="#101D2C" stroke-width="1.30681" stroke-linecap="round" stroke-linejoin="round"/>
<path fill-rule="evenodd" clip-rule="evenodd" d="M18.2809 6.24842C18.2809 5.93 18.0242 5.67212 17.7074 5.67212C17.3905 5.67212 17.1334 5.93 17.1334 6.24842C17.1334 6.56685 17.3905 6.82473 17.7074 6.82473C18.0242 6.82473 18.2809 6.56685 18.2809 6.24842Z" stroke="#101D2C" stroke-width="1.30681" stroke-linecap="round" stroke-linejoin="round"/>
<path fill-rule="evenodd" clip-rule="evenodd" d="M12.9495 6.30067C12.9495 5.98224 12.6928 5.72437 12.3759 5.72437C12.0591 5.72437 11.802 5.98224 11.802 6.30067C11.802 6.6191 12.0591 6.87697 12.3759 6.87697C12.6928 6.87697 12.9495 6.6191 12.9495 6.30067Z" stroke="#101D2C" stroke-width="1.30681" stroke-linecap="round" stroke-linejoin="round"/>
<path fill-rule="evenodd" clip-rule="evenodd" d="M7.61803 6.35279C7.61803 6.03437 7.36097 5.77649 7.04452 5.77649C6.72764 5.77649 6.47058 6.03437 6.47058 6.35279C6.47058 6.67122 6.72764 6.9291 7.04452 6.9291C7.36097 6.9291 7.61803 6.67122 7.61803 6.35279Z" stroke="#101D2C" stroke-width="1.30681" stroke-linecap="round" stroke-linejoin="round"/>
<path d="M1 11.6013H49.3551" stroke="#101D2C" stroke-width="1.30681" stroke-linecap="round" stroke-linejoin="round"/>
<path d="M25.4264 6.30069H44.6894" stroke="#101D2C" stroke-width="1.30681" stroke-linecap="round" stroke-linejoin="round"/>
<path fill-rule="evenodd" clip-rule="evenodd" d="M50.9245 33.591C50.9245 25.694 44.5539 19.2924 36.6952 19.2924C28.8364 19.2924 22.4658 25.694 22.4658 33.591C22.4658 41.4881 28.8364 47.8897 36.6952 47.8897C44.5539 47.8897 50.9245 41.4881 50.9245 33.591Z" stroke="#101D2C" stroke-width="1.30681" stroke-linecap="round" stroke-linejoin="round"/>
<path fill-rule="evenodd" clip-rule="evenodd" d="M36.695 21.9059C36.1454 21.9059 35.6057 21.9473 35.0759 22.0218C40.7239 22.8159 45.0857 27.6998 45.0857 33.591C45.0857 39.4821 40.7239 44.366 35.0759 45.1606C35.6057 45.2351 36.1454 45.276 36.695 45.276C43.1068 45.276 48.3234 40.0344 48.3234 33.591C48.3234 27.1479 43.1068 21.9059 36.695 21.9059Z" fill="#FF6666"/>
<path d="M38.4327 51.7083C47.4303 51.7083 54.7246 44.3788 54.7246 35.3374" stroke="#101D2C" stroke-width="1.30681" stroke-linecap="round" stroke-linejoin="round"/>
<path d="M51.2063 45.4978L57.4486 51.7705C58.1838 52.5093 58.1838 53.7072 57.4486 54.446C56.7134 55.1848 55.5213 55.1848 54.7861 54.446L48.5438 48.1733" stroke="#101D2C" stroke-width="1.30681" stroke-linecap="round" stroke-linejoin="round"/>
<path fill-rule="evenodd" clip-rule="evenodd" d="M13.6381 38.1126C9.72847 35.6105 6.72351 31.9114 5.06671 27.5614L3.60107 23.7137V38.1126H13.6381Z" fill="#FF6666"/>
</svg>
