<svg width="59" height="56" viewBox="0 0 59 56" fill="none" xmlns="http://www.w3.org/2000/svg">
<g clip-path="url(#clip0_21_23)">
<path d="M33.457 36.8337C33.457 38.6306 34.9066 40.0872 36.6952 40.0872C38.4834 40.0872 39.933 38.6306 39.933 36.8337C39.933 35.0368 38.6056 34.2066 36.6952 33.5797C34.9951 33.0226 33.457 32.1231 33.457 30.3262C33.457 28.5294 34.9066 27.0723 36.6952 27.0723C38.4834 27.0723 39.933 28.5294 39.933 30.3262" stroke="white" stroke-width="1.30681" stroke-linecap="round" stroke-linejoin="round"/>
<path d="M36.6953 25.2587V27.0947" stroke="white" stroke-width="1.30681" stroke-linecap="round" stroke-linejoin="round"/>
<path d="M36.6953 40.0874V41.9235" stroke="white" stroke-width="1.30681" stroke-linecap="round" stroke-linejoin="round"/>
<path d="M19.6752 40.7262H1.89863C1.40228 40.7262 1 40.3219 1 39.8232V1.90301C1 1.40424 1.40228 1 1.89863 1H48.4564C48.9528 1 49.3551 1.40424 49.3551 1.90301V20.1339" stroke="white" stroke-width="1.30681" stroke-linecap="round" stroke-linejoin="round"/>
<path fill-rule="evenodd" clip-rule="evenodd" d="M18.2813 6.24842C18.2813 5.93 18.0246 5.67212 17.7078 5.67212C17.3909 5.67212 17.1338 5.93 17.1338 6.24842C17.1338 6.56685 17.3909 6.82473 17.7078 6.82473C18.0246 6.82473 18.2813 6.56685 18.2813 6.24842Z" stroke="white" stroke-width="1.30681" stroke-linecap="round" stroke-linejoin="round"/>
<path fill-rule="evenodd" clip-rule="evenodd" d="M12.9493 6.30067C12.9493 5.98224 12.6926 5.72437 12.3757 5.72437C12.0589 5.72437 11.8018 5.98224 11.8018 6.30067C11.8018 6.6191 12.0589 6.87697 12.3757 6.87697C12.6926 6.87697 12.9493 6.6191 12.9493 6.30067Z" stroke="white" stroke-width="1.30681" stroke-linecap="round" stroke-linejoin="round"/>
<path fill-rule="evenodd" clip-rule="evenodd" d="M7.61815 6.35279C7.61815 6.03437 7.36109 5.77649 7.04464 5.77649C6.72776 5.77649 6.4707 6.03437 6.4707 6.35279C6.4707 6.67122 6.72776 6.9291 7.04464 6.9291C7.36109 6.9291 7.61815 6.67122 7.61815 6.35279Z" stroke="white" stroke-width="1.30681" stroke-linecap="round" stroke-linejoin="round"/>
<path d="M1 11.6013H49.3551" stroke="white" stroke-width="1.30681" stroke-linecap="round" stroke-linejoin="round"/>
<path d="M25.4268 6.30066H44.6898" stroke="white" stroke-width="1.30681" stroke-linecap="round" stroke-linejoin="round"/>
<path fill-rule="evenodd" clip-rule="evenodd" d="M50.9245 33.591C50.9245 25.694 44.5539 19.2924 36.6952 19.2924C28.8364 19.2924 22.4658 25.694 22.4658 33.591C22.4658 41.4881 28.8364 47.8897 36.6952 47.8897C44.5539 47.8897 50.9245 41.4881 50.9245 33.591Z" stroke="white" stroke-width="1.30681" stroke-linecap="round" stroke-linejoin="round"/>
<path fill-rule="evenodd" clip-rule="evenodd" d="M36.6953 21.9059C36.1457 21.9059 35.606 21.9473 35.0762 22.0218C40.7242 22.8159 45.086 27.6998 45.086 33.591C45.086 39.4821 40.7242 44.366 35.0762 45.1606C35.606 45.2351 36.1457 45.276 36.6953 45.276C43.1071 45.276 48.3237 40.0344 48.3237 33.591C48.3237 27.1479 43.1071 21.9059 36.6953 21.9059Z" fill="#FF6666"/>
<path d="M38.4326 51.7083C47.4302 51.7083 54.7245 44.3788 54.7245 35.3374" stroke="white" stroke-width="1.30681" stroke-linecap="round" stroke-linejoin="round"/>
<path d="M51.2064 45.4978L57.4487 51.7705C58.1839 52.5093 58.1839 53.7072 57.4487 54.446C56.7135 55.1848 55.5214 55.1848 54.7862 54.446L48.5439 48.1733" stroke="white" stroke-width="1.30681" stroke-linecap="round" stroke-linejoin="round"/>
<path fill-rule="evenodd" clip-rule="evenodd" d="M13.6376 38.1126C9.72799 35.6105 6.72303 31.9114 5.06623 27.5614L3.60059 23.7137V38.1126H13.6376Z" fill="#FF6666"/>
</g>
<defs>
<clipPath id="clip0_21_23">
<rect width="59" height="56" fill="white"/>
</clipPath>
</defs>
</svg>
