<svg width="53" height="59" viewBox="0 0 53 59" fill="none" xmlns="http://www.w3.org/2000/svg">
<g clip-path="url(#clip0_21_85)">
<path d="M26.3674 36.4028L19.8252 42.9836" stroke="white" stroke-width="1.39225" stroke-linecap="round" stroke-linejoin="round"/>
<path d="M26.3682 29.1412V36.4028L32.8199 42.893" stroke="white" stroke-width="1.39225" stroke-linecap="round" stroke-linejoin="round"/>
<path d="M30.6553 17.3931V24.533" stroke="white" stroke-width="1.39225" stroke-linecap="round" stroke-linejoin="round"/>
<path d="M21.9619 17.3931V24.533H30.6555" stroke="white" stroke-width="1.39225" stroke-linecap="round" stroke-linejoin="round"/>
<path fill-rule="evenodd" clip-rule="evenodd" d="M30.4032 5.05935C30.4032 7.30134 28.5965 9.1187 26.3676 9.1187C24.1387 9.1187 22.332 7.30134 22.332 5.05935C22.332 2.81736 24.1387 1 26.3676 1C28.5965 1 30.4032 2.81736 30.4032 5.05935Z" stroke="white" stroke-width="1.39225" stroke-linecap="round" stroke-linejoin="round"/>
<path d="M18.6855 24.5327V14.2774C18.6855 12.8192 19.8606 11.6372 21.3102 11.6372H31.4247C32.8743 11.6372 34.0494 12.8192 34.0494 14.2774V23.5414" stroke="white" stroke-width="1.39225" stroke-linecap="round" stroke-linejoin="round"/>
<path d="M12.9697 50.8601V58.0001" stroke="white" stroke-width="1.39225" stroke-linecap="round" stroke-linejoin="round"/>
<path d="M4.27637 50.8601V58.0001H12.9699" stroke="white" stroke-width="1.39225" stroke-linecap="round" stroke-linejoin="round"/>
<path fill-rule="evenodd" clip-rule="evenodd" d="M12.7176 38.5264C12.7176 40.7684 10.9109 42.5857 8.68205 42.5857C6.45319 42.5857 4.64648 40.7684 4.64648 38.5264C4.64648 36.2844 6.45319 34.467 8.68205 34.467C10.9109 34.467 12.7176 36.2844 12.7176 38.5264Z" stroke="white" stroke-width="1.39225" stroke-linecap="round" stroke-linejoin="round"/>
<path d="M1 57.9999V47.7444C1 46.2863 2.1751 45.1042 3.62471 45.1042H13.7388C15.1889 45.1042 16.364 46.2863 16.364 47.7444V57.0089" stroke="white" stroke-width="1.39225" stroke-linecap="round" stroke-linejoin="round"/>
<path d="M48.6064 50.8601V58.0001" stroke="white" stroke-width="1.39225" stroke-linecap="round" stroke-linejoin="round"/>
<path d="M39.9121 50.8601V58.0001H48.6056" stroke="white" stroke-width="1.39225" stroke-linecap="round" stroke-linejoin="round"/>
<path fill-rule="evenodd" clip-rule="evenodd" d="M48.3534 38.5264C48.3534 40.7684 46.5467 42.5857 44.3178 42.5857C42.089 42.5857 40.2822 40.7684 40.2822 38.5264C40.2822 36.2844 42.089 34.467 44.3178 34.467C46.5467 34.467 48.3534 36.2844 48.3534 38.5264Z" stroke="white" stroke-width="1.39225" stroke-linecap="round" stroke-linejoin="round"/>
<path d="M36.6357 57.9999V47.7444C36.6357 46.2863 37.8108 45.1042 39.2604 45.1042H49.3745C50.8245 45.1042 51.9997 46.2863 51.9997 47.7444V57.0089" stroke="white" stroke-width="1.39225" stroke-linecap="round" stroke-linejoin="round"/>
<path fill-rule="evenodd" clip-rule="evenodd" d="M8.68187 53.3475L10.6026 51.7038L9.48788 47.2369H8.68187H7.87587L6.76074 51.7038L8.68187 53.3475Z" fill="#FF6666"/>
<path fill-rule="evenodd" clip-rule="evenodd" d="M26.3675 19.7424L28.2886 18.0987L27.1735 13.6318H26.3675H25.5615L24.4463 18.0987L26.3675 19.7424Z" fill="#FF6666"/>
<path fill-rule="evenodd" clip-rule="evenodd" d="M44.3176 53.217L46.2387 51.5733L45.1236 47.1064H44.3176H43.5116L42.3965 51.5733L44.3176 53.217Z" fill="#FF6666"/>
</g>
<defs>
<clipPath id="clip0_21_85">
<rect width="53" height="59" fill="white"/>
</clipPath>
</defs>
</svg>
