<svg width="53" height="59" viewBox="0 0 53 59" fill="none" xmlns="http://www.w3.org/2000/svg">
<path d="M26.3676 36.4028L19.8254 42.9836" stroke="#101D2C" stroke-width="1.39225" stroke-linecap="round" stroke-linejoin="round"/>
<path d="M26.3677 29.1412V36.4028L32.8194 42.893" stroke="#101D2C" stroke-width="1.39225" stroke-linecap="round" stroke-linejoin="round"/>
<path d="M30.6557 17.3931V24.533" stroke="#101D2C" stroke-width="1.39225" stroke-linecap="round" stroke-linejoin="round"/>
<path d="M21.962 17.3931V24.533H30.6556" stroke="#101D2C" stroke-width="1.39225" stroke-linecap="round" stroke-linejoin="round"/>
<path fill-rule="evenodd" clip-rule="evenodd" d="M30.4032 5.05935C30.4032 7.30134 28.5965 9.1187 26.3676 9.1187C24.1387 9.1187 22.332 7.30134 22.332 5.05935C22.332 2.81736 24.1387 1 26.3676 1C28.5965 1 30.4032 2.81736 30.4032 5.05935Z" stroke="#101D2C" stroke-width="1.39225" stroke-linecap="round" stroke-linejoin="round"/>
<path d="M18.6857 24.5327V14.2774C18.6857 12.8192 19.8608 11.6372 21.3104 11.6372H31.4249C32.8745 11.6372 34.0496 12.8192 34.0496 14.2774V23.5414" stroke="#101D2C" stroke-width="1.39225" stroke-linecap="round" stroke-linejoin="round"/>
<path d="M12.9701 50.8601V58.0001" stroke="#101D2C" stroke-width="1.39225" stroke-linecap="round" stroke-linejoin="round"/>
<path d="M4.27637 50.8601V58.0001H12.9699" stroke="#101D2C" stroke-width="1.39225" stroke-linecap="round" stroke-linejoin="round"/>
<path fill-rule="evenodd" clip-rule="evenodd" d="M12.7175 38.5264C12.7175 40.7684 10.9108 42.5857 8.68193 42.5857C6.45307 42.5857 4.64636 40.7684 4.64636 38.5264C4.64636 36.2844 6.45307 34.467 8.68193 34.467C10.9108 34.467 12.7175 36.2844 12.7175 38.5264Z" stroke="#101D2C" stroke-width="1.39225" stroke-linecap="round" stroke-linejoin="round"/>
<path d="M1 57.9998V47.7444C1 46.2863 2.1751 45.1042 3.62471 45.1042H13.7388C15.1889 45.1042 16.364 46.2863 16.364 47.7444V57.0089" stroke="#101D2C" stroke-width="1.39225" stroke-linecap="round" stroke-linejoin="round"/>
<path d="M48.6062 50.8601V58.0001" stroke="#101D2C" stroke-width="1.39225" stroke-linecap="round" stroke-linejoin="round"/>
<path d="M39.9125 50.8601V58.0001H48.606" stroke="#101D2C" stroke-width="1.39225" stroke-linecap="round" stroke-linejoin="round"/>
<path fill-rule="evenodd" clip-rule="evenodd" d="M48.3535 38.5264C48.3535 40.7684 46.5468 42.5857 44.3179 42.5857C42.0891 42.5857 40.2823 40.7684 40.2823 38.5264C40.2823 36.2844 42.0891 34.467 44.3179 34.467C46.5468 34.467 48.3535 36.2844 48.3535 38.5264Z" stroke="#101D2C" stroke-width="1.39225" stroke-linecap="round" stroke-linejoin="round"/>
<path d="M36.636 57.9998V47.7444C36.636 46.2863 37.8111 45.1042 39.2607 45.1042H49.3748C50.8248 45.1042 52 46.2863 52 47.7444V57.0089" stroke="#101D2C" stroke-width="1.39225" stroke-linecap="round" stroke-linejoin="round"/>
<path fill-rule="evenodd" clip-rule="evenodd" d="M8.68199 53.3475L10.6027 51.7038L9.488 47.2369H8.68199H7.87599L6.76086 51.7038L8.68199 53.3475Z" fill="#FF6666"/>
<path fill-rule="evenodd" clip-rule="evenodd" d="M26.3677 19.7424L28.2888 18.0987L27.1737 13.6318H26.3677H25.5617L24.4465 18.0987L26.3677 19.7424Z" fill="#FF6666"/>
<path fill-rule="evenodd" clip-rule="evenodd" d="M44.318 53.217L46.2391 51.5733L45.124 47.1064H44.318H43.512L42.3969 51.5733L44.318 53.217Z" fill="#FF6666"/>
</svg>
