<svg width="60" height="55" viewBox="0 0 60 55" fill="none" xmlns="http://www.w3.org/2000/svg">
<g clip-path="url(#clip0_21_52)">
<path d="M50.9055 17.8984L34.374 27.4139" stroke="white" stroke-width="1.42853" stroke-linecap="round" stroke-linejoin="round"/>
<path d="M25.5856 27.391L9.09473 17.8981L14.5711 14.7854" stroke="white" stroke-width="1.42853" stroke-linecap="round" stroke-linejoin="round"/>
<path d="M50.9055 27.5467V41.9658L45.1486 45.28L30.0001 54.0001L9.09473 41.9658V27.2355" stroke="white" stroke-width="1.42853" stroke-linecap="round" stroke-linejoin="round"/>
<path d="M30 35.1052V45.9184" stroke="white" stroke-width="1.42853" stroke-linecap="round" stroke-linejoin="round"/>
<path d="M30 29.9321L38.0946 34.5921L59 22.5579L50.9054 17.8979L45.3356 14.6875" stroke="white" stroke-width="1.42853" stroke-linecap="round" stroke-linejoin="round"/>
<path d="M9.0946 17.8984L1 22.5584L21.9054 34.5912L30 29.9326" stroke="white" stroke-width="1.42853" stroke-linecap="round" stroke-linejoin="round"/>
<path d="M15.4692 21.5678C14.8885 19.9483 14.5703 18.2025 14.5703 16.383C14.5703 7.88851 21.4794 1 29.9993 1C38.5208 1 45.4299 7.88851 45.4299 16.383C45.4299 18.204 45.1117 19.9483 44.531 21.5693" stroke="white" stroke-width="1.42853" stroke-linecap="round" stroke-linejoin="round"/>
<path fill-rule="evenodd" clip-rule="evenodd" d="M33.7525 16.3836C33.7525 18.4497 32.0723 20.1248 30 20.1248C27.9262 20.1248 26.2461 18.4497 26.2461 16.3836C26.2461 14.3175 27.9262 12.6423 30 12.6423C32.0723 12.6423 33.7525 14.3175 33.7525 16.3836Z" stroke="white" stroke-width="1.42853" stroke-linecap="round" stroke-linejoin="round"/>
<path fill-rule="evenodd" clip-rule="evenodd" d="M38.1141 16.3836C38.1141 20.8511 34.4808 24.4735 29.9999 24.4735C25.519 24.4735 21.8857 20.8511 21.8857 16.3836C21.8857 11.916 25.519 8.29358 29.9999 8.29358C34.4808 8.29358 38.1141 11.916 38.1141 16.3836Z" stroke="white" stroke-width="1.42853" stroke-linecap="round" stroke-linejoin="round"/>
<path d="M26.7444 8.97315L23.8848 2.25757" stroke="white" stroke-width="1.42853" stroke-linecap="round" stroke-linejoin="round"/>
<path d="M33.1758 8.97315L36.0354 2.25757" stroke="white" stroke-width="1.42853" stroke-linecap="round" stroke-linejoin="round"/>
<path fill-rule="evenodd" clip-rule="evenodd" d="M53.0926 22.5109L50.6206 21.0884L35.6787 29.8776L37.9862 31.2054L53.0926 22.5109Z" fill="#FF6666"/>
<path fill-rule="evenodd" clip-rule="evenodd" d="M6.90723 22.5109L9.3792 21.0884L24.3211 29.8776L22.0135 31.2054L6.90723 22.5109Z" fill="#FF6666"/>
</g>
<defs>
<clipPath id="clip0_21_52">
<rect width="60" height="55" fill="white"/>
</clipPath>
</defs>
</svg>
