<svg width="60" height="55" viewBox="0 0 60 55" fill="none" xmlns="http://www.w3.org/2000/svg">
<path d="M50.9052 17.8984L34.3737 27.4139" stroke="#101D2C" stroke-width="1.42853" stroke-linecap="round" stroke-linejoin="round"/>
<path d="M25.5856 27.391L9.09473 17.8981L14.5711 14.7854" stroke="#101D2C" stroke-width="1.42853" stroke-linecap="round" stroke-linejoin="round"/>
<path d="M50.9053 27.5467V41.9658L45.1484 45.28L29.9999 54.0001L9.09448 41.9658V27.2355" stroke="#101D2C" stroke-width="1.42853" stroke-linecap="round" stroke-linejoin="round"/>
<path d="M30 35.1052V45.9184" stroke="#101D2C" stroke-width="1.42853" stroke-linecap="round" stroke-linejoin="round"/>
<path d="M30 29.9321L38.0946 34.5921L59 22.5579L50.9054 17.8979L45.3356 14.6875" stroke="#101D2C" stroke-width="1.42853" stroke-linecap="round" stroke-linejoin="round"/>
<path d="M9.0946 17.8984L1 22.5584L21.9054 34.5912L30 29.9326" stroke="#101D2C" stroke-width="1.42853" stroke-linecap="round" stroke-linejoin="round"/>
<path d="M15.469 21.5678C14.8883 19.9483 14.5701 18.2025 14.5701 16.383C14.5701 7.88851 21.4792 1 29.9991 1C38.5206 1 45.4297 7.88851 45.4297 16.383C45.4297 18.204 45.1115 19.9483 44.5308 21.5693" stroke="#101D2C" stroke-width="1.42853" stroke-linecap="round" stroke-linejoin="round"/>
<path fill-rule="evenodd" clip-rule="evenodd" d="M33.7529 16.3836C33.7529 18.4497 32.0727 20.1248 30.0004 20.1248C27.9266 20.1248 26.2465 18.4497 26.2465 16.3836C26.2465 14.3175 27.9266 12.6423 30.0004 12.6423C32.0727 12.6423 33.7529 14.3175 33.7529 16.3836Z" stroke="#101D2C" stroke-width="1.42853" stroke-linecap="round" stroke-linejoin="round"/>
<path fill-rule="evenodd" clip-rule="evenodd" d="M38.114 16.3836C38.114 20.8511 34.4807 24.4735 29.9998 24.4735C25.5189 24.4735 21.8856 20.8511 21.8856 16.3836C21.8856 11.916 25.5189 8.29358 29.9998 8.29358C34.4807 8.29358 38.114 11.916 38.114 16.3836Z" stroke="#101D2C" stroke-width="1.42853" stroke-linecap="round" stroke-linejoin="round"/>
<path d="M26.7445 8.97315L23.8849 2.25757" stroke="#101D2C" stroke-width="1.42853" stroke-linecap="round" stroke-linejoin="round"/>
<path d="M33.176 8.97315L36.0356 2.25757" stroke="#101D2C" stroke-width="1.42853" stroke-linecap="round" stroke-linejoin="round"/>
<path fill-rule="evenodd" clip-rule="evenodd" d="M53.093 22.5109L50.621 21.0884L35.6791 29.8776L37.9866 31.2054L53.093 22.5109Z" fill="#FF6666"/>
<path fill-rule="evenodd" clip-rule="evenodd" d="M6.90698 22.5109L9.37895 21.0884L24.3209 29.8776L22.0133 31.2054L6.90698 22.5109Z" fill="#FF6666"/>
</svg>
