<svg width="63" height="56" viewBox="0 0 63 56" fill="none" xmlns="http://www.w3.org/2000/svg">
<path fill-rule="evenodd" clip-rule="evenodd" d="M33.3227 55H58.8516C60.5902 55 61.9998 53.5989 61.9998 51.8708V22.3064C61.9998 21.0358 60.9645 20.0067 59.6862 20.0067H21.2518C19.9735 20.0067 18.9381 21.0358 18.9381 22.3064V51.8708C18.9381 53.5989 20.3477 55 22.0864 55H33.3227Z" stroke="#101D2C" stroke-width="1.42511" stroke-linecap="round" stroke-linejoin="round"/>
<path fill-rule="evenodd" clip-rule="evenodd" d="M24.726 24.6295C24.726 24.4074 24.5449 24.2274 24.3215 24.2274C24.0967 24.2274 23.9156 24.4074 23.9156 24.6295C23.9156 24.8515 24.0967 25.0315 24.3215 25.0315C24.5449 25.0315 24.726 24.8515 24.726 24.6295Z" stroke="#101D2C" stroke-width="1.42511" stroke-linecap="round" stroke-linejoin="round"/>
<path fill-rule="evenodd" clip-rule="evenodd" d="M29.3449 24.6295C29.3449 24.4074 29.1638 24.2274 28.9404 24.2274C28.7156 24.2274 28.5344 24.4074 28.5344 24.6295C28.5344 24.8515 28.7156 25.0315 28.9404 25.0315C29.1638 25.0315 29.3449 24.8515 29.3449 24.6295Z" stroke="#101D2C" stroke-width="1.42511" stroke-linecap="round" stroke-linejoin="round"/>
<path fill-rule="evenodd" clip-rule="evenodd" d="M33.9634 24.6295C33.9634 24.4074 33.7823 24.2274 33.559 24.2274C33.3341 24.2274 33.153 24.4074 33.153 24.6295C33.153 24.8515 33.3341 25.0315 33.559 25.0315C33.7823 25.0315 33.9634 24.8515 33.9634 24.6295Z" stroke="#101D2C" stroke-width="1.42511" stroke-linecap="round" stroke-linejoin="round"/>
<path d="M18.9382 29.1666H62" stroke="#101D2C" stroke-width="1.42511" stroke-linecap="round" stroke-linejoin="round"/>
<path d="M47.0386 45.3606L50.8932 41.5308L47.0386 37.6995" stroke="#101D2C" stroke-width="1.42511" stroke-linecap="round" stroke-linejoin="round"/>
<path d="M33.9001 45.3606L30.047 41.5308L33.9001 37.6995" stroke="#101D2C" stroke-width="1.42511" stroke-linecap="round" stroke-linejoin="round"/>
<path d="M43.3061 35.7443L37.6328 47.2022" stroke="#101D2C" stroke-width="1.42511" stroke-linecap="round" stroke-linejoin="round"/>
<path d="M19.1636 30.2555C13.4692 30.2555 8.85242 25.6666 8.85242 20.0067C8.85242 14.3452 13.4692 9.75635 19.1636 9.75635C24.8579 9.75635 29.4747 14.3452 29.4747 20.0067" stroke="#101D2C" stroke-width="1.42511"/>
<path d="M34.2335 20.0305V19.9555C34.2275 17.7533 35.038 15.6262 36.5759 14.0406L37.326 13.265L34.1188 7.74304L33.0669 8.00106C30.9162 8.53061 28.6584 8.16608 26.7432 7.06049C26.7205 7.04699 26.6994 7.03499 26.6768 7.02298C24.7479 5.9204 23.2885 4.15925 22.6712 2.03508L22.3709 1H15.9566L15.6548 2.03658C15.0405 4.15775 13.5841 5.9189 11.6583 7.01848C11.6477 7.02449 11.6387 7.03049 11.6296 7.03499C11.619 7.04099 11.61 7.04549 11.6009 7.05149C9.67966 8.16008 7.4173 8.53211 5.26059 8.00256L4.20714 7.74304L1 13.265L1.7516 14.0406C3.29405 15.6337 4.09848 17.7699 4.09395 19.9825C4.09395 20.0065 4.09395 20.032 4.09395 20.0575C4.09999 22.2597 3.28801 24.3854 1.7516 25.9725L1 26.7481L4.20714 32.27L5.25909 32.0105C7.40976 31.4825 9.66909 31.8455 11.5843 32.9526C11.6055 32.9661 11.6281 32.9781 11.6492 32.9901C13.5795 34.0927 15.039 35.8523 15.6563 37.978L15.9566 39.0116H18.9374" stroke="#101D2C" stroke-width="1.42511" stroke-linecap="round"/>
<path fill-rule="evenodd" clip-rule="evenodd" d="M11.4882 20.0063C11.4882 22.0014 12.2699 23.8151 13.5362 25.1772C13.5271 24.9957 13.5211 24.8127 13.5211 24.6297C13.5211 18.9622 17.7832 14.2863 23.295 13.5873C22.0997 12.8252 20.6855 12.3782 19.1642 12.3782C14.9307 12.3782 11.4882 15.7999 11.4882 20.0063Z" fill="#FF6666"/>
</svg>
