<svg width="69" height="53" viewBox="0 0 69 53" fill="none" xmlns="http://www.w3.org/2000/svg">
<g clip-path="url(#clip0_21_66)">
<path d="M56.5238 22.2321V48.6265C56.5238 50.6372 54.9108 52.2671 52.9209 52.2671H5.32844C3.33856 52.2671 1.72559 50.6372 1.72559 48.6265V9.97165C1.72559 8.32788 3.04404 6.99561 4.66922 6.99561H53.5802" stroke="white" stroke-width="1.4535" stroke-linecap="round" stroke-linejoin="round"/>
<path fill-rule="evenodd" clip-rule="evenodd" d="M9.09016 12.9769C9.09016 12.6886 8.85973 12.4557 8.57438 12.4557C8.29054 12.4557 8.05859 12.6886 8.05859 12.9769C8.05859 13.2653 8.29054 13.4981 8.57438 13.4981C8.85973 13.4981 9.09016 13.2653 9.09016 12.9769Z" stroke="white" stroke-width="1.4535" stroke-linecap="round" stroke-linejoin="round"/>
<path fill-rule="evenodd" clip-rule="evenodd" d="M14.968 12.9769C14.968 12.6886 14.7376 12.4557 14.4522 12.4557C14.1684 12.4557 13.9365 12.6886 13.9365 12.9769C13.9365 13.2653 14.1684 13.4981 14.4522 13.4981C14.7376 13.4981 14.968 13.2653 14.968 12.9769Z" stroke="white" stroke-width="1.4535" stroke-linecap="round" stroke-linejoin="round"/>
<path fill-rule="evenodd" clip-rule="evenodd" d="M20.8451 12.9769C20.8451 12.6886 20.6147 12.4557 20.3293 12.4557C20.0455 12.4557 19.8135 12.6886 19.8135 12.9769C19.8135 13.2653 20.0455 13.4981 20.3293 13.4981C20.6147 13.4981 20.8451 13.2653 20.8451 12.9769Z" stroke="white" stroke-width="1.4535" stroke-linecap="round" stroke-linejoin="round"/>
<path d="M1.72461 18.8464H35.3483" stroke="white" stroke-width="1.4535" stroke-linecap="round" stroke-linejoin="round"/>
<path fill-rule="evenodd" clip-rule="evenodd" d="M44.6641 19.5141L46.6769 21.548L48.6882 23.5803C52.7686 22.1586 55.7397 18.8125 56.9621 17.2381C57.3283 16.7678 57.284 16.0955 56.8659 15.673L54.6777 13.4617L52.4894 11.2505C52.0713 10.828 51.4059 10.7833 50.9405 11.1534C49.3825 12.3885 46.0711 15.3908 44.6641 19.5141Z" stroke="white" stroke-width="1.4535" stroke-linecap="round" stroke-linejoin="round"/>
<path d="M56.4565 15.2585L66.5387 5.07055C67.0102 4.59407 67.2757 3.94798 67.2757 3.27412C67.2757 1.8709 66.1495 0.73291 64.7609 0.73291C64.094 0.73291 63.4531 1.00122 62.9816 1.47769L52.8994 11.6657" stroke="white" stroke-width="1.4535" stroke-linecap="round" stroke-linejoin="round"/>
<path d="M48.6883 23.5806C48.9416 25.0054 48.6028 26.7448 47.9085 28.0107C47.2157 29.2767 45.8408 30.0493 44.5116 30.5874C43.4145 31.0315 42.2196 31.1533 41.0431 31.2705C39.5674 31.417 38.0918 31.5651 36.6162 31.7115C36.7627 30.222 36.9092 28.7309 37.0541 27.2397C37.1701 26.0509 37.2907 24.8435 37.7301 23.7348C38.2627 22.3917 39.0272 21.0024 40.2801 20.3023C41.5329 19.6007 43.2542 19.2568 44.6642 19.5143" stroke="white" stroke-width="1.4535" stroke-linecap="round" stroke-linejoin="round"/>
<path d="M32.0987 31.8612H9.08984V22.8344" stroke="white" stroke-width="1.4535" stroke-linecap="round" stroke-linejoin="round"/>
<mask id="mask0_21_66" style="mask-type:luminance" maskUnits="userSpaceOnUse" x="1" y="0" width="67" height="53">
<path fill-rule="evenodd" clip-rule="evenodd" d="M1 53H68V0H1V53Z" fill="white"/>
</mask>
<g mask="url(#mask0_21_66)">
<path fill-rule="evenodd" clip-rule="evenodd" d="M9.09082 47.2314H19.2051V35.634H9.09082V47.2314Z" stroke="white" stroke-width="1.4535" stroke-linecap="round" stroke-linejoin="round"/>
<path d="M23.2549 35.6348H32.8107" stroke="white" stroke-width="1.4535" stroke-linecap="round" stroke-linejoin="round"/>
<path d="M23.2549 41.4331H32.8107" stroke="white" stroke-width="1.4535" stroke-linecap="round" stroke-linejoin="round"/>
<path d="M23.2549 47.2317H32.8107" stroke="white" stroke-width="1.4535" stroke-linecap="round" stroke-linejoin="round"/>
<path fill-rule="evenodd" clip-rule="evenodd" d="M41.1356 23.0386C40.8655 23.3531 40.5465 23.8743 40.2063 24.7348C39.9041 25.4981 39.808 26.4726 39.7073 27.5042L39.5898 28.7085L40.7816 28.5898C41.804 28.488 42.7684 28.3924 43.5222 28.0871C44.3737 27.7417 44.8895 27.4194 45.2008 27.1465C43.2186 26.6145 41.662 25.0416 41.1356 23.0386Z" fill="#FF6666"/>
</g>
</g>
<defs>
<clipPath id="clip0_21_66">
<rect width="69" height="53" fill="white"/>
</clipPath>
</defs>
</svg>
