<svg width="63" height="56" viewBox="0 0 63 56" fill="none" xmlns="http://www.w3.org/2000/svg">
<g clip-path="url(#clip0_21_11)">
<path fill-rule="evenodd" clip-rule="evenodd" d="M33.3231 55H58.852C60.5906 55 62.0002 53.5989 62.0002 51.8708V22.3064C62.0002 21.0358 60.9649 20.0067 59.6866 20.0067H21.2522C19.9739 20.0067 18.9385 21.0358 18.9385 22.3064V51.8708C18.9385 53.5989 20.3481 55 22.0868 55H33.3231Z" stroke="white" stroke-width="1.42511" stroke-linecap="round" stroke-linejoin="round"/>
<path fill-rule="evenodd" clip-rule="evenodd" d="M24.7264 24.6295C24.7264 24.4074 24.5453 24.2274 24.3219 24.2274C24.0971 24.2274 23.916 24.4074 23.916 24.6295C23.916 24.8515 24.0971 25.0315 24.3219 25.0315C24.5453 25.0315 24.7264 24.8515 24.7264 24.6295Z" stroke="white" stroke-width="1.42511" stroke-linecap="round" stroke-linejoin="round"/>
<path fill-rule="evenodd" clip-rule="evenodd" d="M29.3447 24.6295C29.3447 24.4074 29.1636 24.2274 28.9402 24.2274C28.7154 24.2274 28.5342 24.4074 28.5342 24.6295C28.5342 24.8515 28.7154 25.0315 28.9402 25.0315C29.1636 25.0315 29.3447 24.8515 29.3447 24.6295Z" stroke="white" stroke-width="1.42511" stroke-linecap="round" stroke-linejoin="round"/>
<path fill-rule="evenodd" clip-rule="evenodd" d="M33.9637 24.6295C33.9637 24.4074 33.7826 24.2274 33.5593 24.2274C33.3344 24.2274 33.1533 24.4074 33.1533 24.6295C33.1533 24.8515 33.3344 25.0315 33.5593 25.0315C33.7826 25.0315 33.9637 24.8515 33.9637 24.6295Z" stroke="white" stroke-width="1.42511" stroke-linecap="round" stroke-linejoin="round"/>
<path d="M18.9385 29.1666H62.0003" stroke="white" stroke-width="1.42511" stroke-linecap="round" stroke-linejoin="round"/>
<path d="M47.0391 45.3606L50.8937 41.5308L47.0391 37.6995" stroke="white" stroke-width="1.42511" stroke-linecap="round" stroke-linejoin="round"/>
<path d="M33.9 45.3606L30.0469 41.5308L33.9 37.6995" stroke="white" stroke-width="1.42511" stroke-linecap="round" stroke-linejoin="round"/>
<path d="M43.3061 35.7443L37.6328 47.2022" stroke="white" stroke-width="1.42511" stroke-linecap="round" stroke-linejoin="round"/>
<path d="M19.1637 30.2555C13.4693 30.2555 8.85254 25.6666 8.85254 20.0067C8.85254 14.3452 13.4693 9.75635 19.1637 9.75635C24.858 9.75635 29.4748 14.3452 29.4748 20.0067" stroke="white" stroke-width="1.42511"/>
<path d="M34.2335 20.0305V19.9555C34.2275 17.7533 35.038 15.6262 36.5759 14.0406L37.326 13.265L34.1188 7.74304L33.0669 8.00106C30.9162 8.53061 28.6584 8.16608 26.7432 7.06049C26.7205 7.04699 26.6994 7.03499 26.6768 7.02298C24.7479 5.9204 23.2885 4.15925 22.6712 2.03508L22.3709 1H15.9566L15.6548 2.03658C15.0405 4.15775 13.5841 5.9189 11.6583 7.01848C11.6477 7.02449 11.6387 7.03049 11.6296 7.03499C11.619 7.04099 11.61 7.04549 11.6009 7.05149C9.67966 8.16008 7.4173 8.53211 5.26059 8.00256L4.20714 7.74304L1 13.265L1.7516 14.0406C3.29405 15.6337 4.09848 17.7699 4.09395 19.9825C4.09395 20.0065 4.09395 20.032 4.09395 20.0575C4.09999 22.2597 3.28801 24.3854 1.7516 25.9725L1 26.7481L4.20714 32.27L5.25909 32.0105C7.40976 31.4825 9.66909 31.8455 11.5843 32.9526C11.6055 32.9661 11.6281 32.9781 11.6492 32.9901C13.5795 34.0927 15.039 35.8523 15.6563 37.978L15.9566 39.0116H18.9374" stroke="white" stroke-width="1.42511" stroke-linecap="round"/>
<path fill-rule="evenodd" clip-rule="evenodd" d="M11.4883 20.0063C11.4883 22.0014 12.27 23.8151 13.5363 25.1772C13.5272 24.9957 13.5212 24.8127 13.5212 24.6297C13.5212 18.9622 17.7833 14.2863 23.2951 13.5873C22.0998 12.8252 20.6856 12.3782 19.1643 12.3782C14.9308 12.3782 11.4883 15.7999 11.4883 20.0063Z" fill="#FF6666"/>
</g>
<defs>
<clipPath id="clip0_21_11">
<rect width="63" height="56" fill="white"/>
</clipPath>
</defs>
</svg>
