<svg width="69" height="53" viewBox="0 0 69 53" fill="none" xmlns="http://www.w3.org/2000/svg">
<path d="M56.5233 22.2321V48.6265C56.5233 50.6372 54.9103 52.2671 52.9204 52.2671H5.32795C3.33807 52.2671 1.7251 50.6372 1.7251 48.6265V9.97166C1.7251 8.32789 3.04355 6.99561 4.66873 6.99561H53.5797" stroke="#101D2C" stroke-width="1.4535" stroke-linecap="round" stroke-linejoin="round"/>
<path fill-rule="evenodd" clip-rule="evenodd" d="M9.09018 12.9769C9.09018 12.6886 8.85975 12.4557 8.5744 12.4557C8.29056 12.4557 8.05861 12.6886 8.05861 12.9769C8.05861 13.2653 8.29056 13.4981 8.5744 13.4981C8.85975 13.4981 9.09018 13.2653 9.09018 12.9769Z" stroke="#101D2C" stroke-width="1.4535" stroke-linecap="round" stroke-linejoin="round"/>
<path fill-rule="evenodd" clip-rule="evenodd" d="M14.9676 12.9769C14.9676 12.6886 14.7372 12.4557 14.4518 12.4557C14.168 12.4557 13.9361 12.6886 13.9361 12.9769C13.9361 13.2653 14.168 13.4981 14.4518 13.4981C14.7372 13.4981 14.9676 13.2653 14.9676 12.9769Z" stroke="#101D2C" stroke-width="1.4535" stroke-linecap="round" stroke-linejoin="round"/>
<path fill-rule="evenodd" clip-rule="evenodd" d="M20.8452 12.9769C20.8452 12.6886 20.6148 12.4557 20.3294 12.4557C20.0456 12.4557 19.8136 12.6886 19.8136 12.9769C19.8136 13.2653 20.0456 13.4981 20.3294 13.4981C20.6148 13.4981 20.8452 13.2653 20.8452 12.9769Z" stroke="#101D2C" stroke-width="1.4535" stroke-linecap="round" stroke-linejoin="round"/>
<path d="M1.72485 18.8464H35.3485" stroke="#101D2C" stroke-width="1.4535" stroke-linecap="round" stroke-linejoin="round"/>
<path fill-rule="evenodd" clip-rule="evenodd" d="M44.6644 19.5141L46.6772 21.548L48.6885 23.5803C52.7689 22.1586 55.74 18.8125 56.9624 17.2381C57.3286 16.7678 57.2843 16.0955 56.8662 15.673L54.678 13.4617L52.4897 11.2505C52.0716 10.828 51.4062 10.7833 50.9408 11.1534C49.3828 12.3885 46.0714 15.3908 44.6644 19.5141Z" stroke="#101D2C" stroke-width="1.4535" stroke-linecap="round" stroke-linejoin="round"/>
<path d="M56.4564 15.2585L66.5386 5.07055C67.0101 4.59407 67.2756 3.94798 67.2756 3.27412C67.2756 1.8709 66.1494 0.73291 64.7608 0.73291C64.0939 0.73291 63.453 1.00122 62.9815 1.47769L52.8993 11.6657" stroke="#101D2C" stroke-width="1.4535" stroke-linecap="round" stroke-linejoin="round"/>
<path d="M48.6887 23.5806C48.942 25.0054 48.6032 26.7448 47.9089 28.0107C47.2161 29.2767 45.8412 30.0493 44.512 30.5874C43.4149 31.0315 42.22 31.1533 41.0435 31.2705C39.5678 31.417 38.0922 31.5651 36.6166 31.7115C36.7631 30.222 36.9096 28.7309 37.0545 27.2397C37.1705 26.0509 37.2911 24.8435 37.7305 23.7348C38.2631 22.3917 39.0276 21.0024 40.2805 20.3023C41.5333 19.6007 43.2546 19.2568 44.6646 19.5143" stroke="#101D2C" stroke-width="1.4535" stroke-linecap="round" stroke-linejoin="round"/>
<path d="M32.0988 31.8612H9.08997V22.8344" stroke="#101D2C" stroke-width="1.4535" stroke-linecap="round" stroke-linejoin="round"/>
<mask id="mask0_0_4820" style="mask-type:luminance" maskUnits="userSpaceOnUse" x="1" y="0" width="67" height="53">
<path fill-rule="evenodd" clip-rule="evenodd" d="M1 53H68V0H1V53Z" fill="white"/>
</mask>
<g mask="url(#mask0_0_4820)">
<path fill-rule="evenodd" clip-rule="evenodd" d="M9.09082 47.2314H19.2051V35.634H9.09082V47.2314Z" stroke="#101D2C" stroke-width="1.4535" stroke-linecap="round" stroke-linejoin="round"/>
<path d="M23.2551 35.6348H32.8109" stroke="#101D2C" stroke-width="1.4535" stroke-linecap="round" stroke-linejoin="round"/>
<path d="M23.2551 41.4331H32.8109" stroke="#101D2C" stroke-width="1.4535" stroke-linecap="round" stroke-linejoin="round"/>
<path d="M23.2551 47.2317H32.8109" stroke="#101D2C" stroke-width="1.4535" stroke-linecap="round" stroke-linejoin="round"/>
<path fill-rule="evenodd" clip-rule="evenodd" d="M41.1352 23.0386C40.8651 23.3531 40.5461 23.8743 40.2059 24.7348C39.9037 25.4981 39.8076 26.4726 39.7069 27.5042L39.5894 28.7085L40.7812 28.5898C41.8036 28.488 42.768 28.3924 43.5218 28.0871C44.3733 27.7417 44.8891 27.4194 45.2004 27.1465C43.2182 26.6145 41.6616 25.0416 41.1352 23.0386Z" fill="#FF6666"/>
</g>
</svg>
