<svg width="43" height="57" viewBox="0 0 43 57" fill="none" xmlns="http://www.w3.org/2000/svg">
<path fill-rule="evenodd" clip-rule="evenodd" d="M40.6115 41.499H31.0148C30.3181 41.499 29.7529 40.9393 29.7529 40.2494V35.0511C29.7529 34.3612 30.3181 33.8015 31.0148 33.8015H40.6115C41.3086 33.8015 41.8733 34.3612 41.8733 35.0511V40.2494C41.8733 40.9393 41.3086 41.499 40.6115 41.499Z" stroke="white" stroke-width="1.30665" stroke-linecap="round" stroke-linejoin="round"/>
<path fill-rule="evenodd" clip-rule="evenodd" d="M32.392 38.8857V36.4148H39.2346V38.8857L38.9303 38.7759C36.9172 38.049 34.7094 38.049 32.6959 38.7759L32.392 38.8857Z" fill="white"/>
<path d="M33.3979 33.8016V32.0934C33.3979 31.4501 33.9244 30.9287 34.574 30.9287H37.0524C37.702 30.9287 38.2284 31.4501 38.2284 32.0934V33.8016" stroke="white" stroke-width="1.30665" stroke-linecap="round" stroke-linejoin="round"/>
<path fill-rule="evenodd" clip-rule="evenodd" d="M12.0546 6.07196C12.0546 8.87298 9.76186 11.1439 6.93297 11.1439C4.10452 11.1439 1.81177 8.87298 1.81177 6.07196C1.81177 3.27095 4.10452 1 6.93297 1C9.76186 1 12.0546 3.27095 12.0546 6.07196Z" stroke="white" stroke-width="1.30665" stroke-linecap="round" stroke-linejoin="round"/>
<path d="M10.5972 33.8684V51.4798" stroke="white" stroke-width="1.30665" stroke-linecap="round" stroke-linejoin="round"/>
<path d="M3.26922 51.1789V33.8684" stroke="white" stroke-width="1.30665" stroke-linecap="round" stroke-linejoin="round"/>
<path d="M6.93323 18.9382V21.0537C6.93323 23.1221 8.62651 24.799 10.7148 24.799H19.0413" stroke="white" stroke-width="1.30665" stroke-linecap="round" stroke-linejoin="round"/>
<path fill-rule="evenodd" clip-rule="evenodd" d="M13.7837 56H3.26904V51.179H8.91538C11.604 51.179 13.7837 53.3375 13.7837 56Z" stroke="white" stroke-width="1.30665" stroke-linecap="round" stroke-linejoin="round"/>
<path d="M12.8666 22.0438V19.6069C12.8666 16.3617 10.2102 13.731 6.9331 13.731C3.65648 13.731 1 16.3617 1 19.6069V24.8719C1 28.01 1.77935 31.0993 3.269 33.8686H6.9331H10.5972C11.6259 31.9569 12.3155 29.8929 12.6445 27.7656" stroke="white" stroke-width="1.30665" stroke-linecap="round" stroke-linejoin="round"/>
<path fill-rule="evenodd" clip-rule="evenodd" d="M30.9449 6.07196C30.9449 8.87298 33.2377 11.1439 36.0666 11.1439C38.895 11.1439 41.1878 8.87298 41.1878 6.07196C41.1878 3.27095 38.895 1 36.0666 1C33.2377 1 30.9449 3.27095 30.9449 6.07196Z" stroke="white" stroke-width="1.30665" stroke-linecap="round" stroke-linejoin="round"/>
<path d="M32.4024 44.1121V51.4794" stroke="white" stroke-width="1.30665" stroke-linecap="round" stroke-linejoin="round"/>
<path d="M39.7304 51.1788V44.1121" stroke="white" stroke-width="1.30665" stroke-linecap="round" stroke-linejoin="round"/>
<path fill-rule="evenodd" clip-rule="evenodd" d="M29.2158 56H39.7305V51.179H34.0841C31.3955 51.179 29.2158 53.3375 29.2158 56Z" stroke="white" stroke-width="1.30665" stroke-linecap="round" stroke-linejoin="round"/>
<path d="M30.9435 30.3554C30.4078 28.5827 30.1329 26.736 30.1329 24.8723V19.6069C30.1329 16.3617 32.7894 13.731 36.0665 13.731C39.3435 13.731 42 16.3617 42 19.6069V24.8723C42 26.7364 41.7247 28.5836 41.189 30.3567" stroke="white" stroke-width="1.30665" stroke-linecap="round" stroke-linejoin="round"/>
<path d="M36.0663 18.9382V30.9285" stroke="white" stroke-width="1.30665" stroke-linecap="round" stroke-linejoin="round"/>
<path d="M30.133 24.8721H23.3818" stroke="white" stroke-width="1.30665" stroke-linecap="round" stroke-linejoin="round"/>
</svg>
