<svg width="59" height="57" viewBox="0 0 59 57" fill="none" xmlns="http://www.w3.org/2000/svg">
<path d="M28.1539 11.6917V8.46236L20.643 1H1V29.2538" stroke="white" stroke-width="1.31326" stroke-linecap="round" stroke-linejoin="round"/>
<path fill-rule="evenodd" clip-rule="evenodd" d="M21.9072 15.034H7.24679C6.76273 15.034 6.36987 14.6417 6.36987 14.1585C6.36987 13.6747 6.76273 13.283 7.24679 13.283H21.9072C22.3912 13.283 22.7841 13.6747 22.7841 14.1585C22.7841 14.6417 22.3912 15.034 21.9072 15.034Z" fill="white"/>
<path fill-rule="evenodd" clip-rule="evenodd" d="M21.7624 19.0357H7.10251C6.61845 19.0357 6.22559 18.6435 6.22559 18.1602C6.22559 17.6765 6.61845 17.2847 7.10251 17.2847H21.7624C22.2469 17.2847 22.6394 17.6765 22.6394 18.1602C22.6394 18.6435 22.2469 19.0357 21.7624 19.0357Z" fill="white"/>
<path fill-rule="evenodd" clip-rule="evenodd" d="M21.9795 11.0323H7.31912C6.83462 11.0323 6.4422 10.64 6.4422 10.1568C6.4422 9.67304 6.83462 9.28125 7.31912 9.28125H21.9795C22.464 9.28125 22.8564 9.67304 22.8564 10.1568C22.8564 10.64 22.464 11.0323 21.9795 11.0323Z" fill="white"/>
<path d="M45.7805 22.0854C46.0971 23.9634 46.386 26.1154 46.3725 27.6467C46.2909 29.4069 45.8678 30.7608 44.7659 32.1143C44.0346 33.0126 43.7272 34.1827 43.8614 35.3323L43.9237 35.8641C43.9714 36.2721 44.1951 36.6394 44.5366 36.8692C44.6581 36.9506 44.7914 37.0132 44.9321 37.0539L51.4104 38.9319C52.2268 39.1109 53.0796 39.5561 53.9219 40.2478C55.2412 41.336 56.1497 42.8559 56.4847 44.5259L58 55.9999" stroke="white" stroke-width="1.31326" stroke-linecap="round" stroke-linejoin="round"/>
<path d="M38.5707 9.32837C42.3538 9.32837 46.3175 11.4291 47.9016 14.9636C48.5988 16.5193 48.8825 18.2257 49.0798 19.9185C49.3573 22.3051 49.4801 24.5761 50.6253 26.729C51.4606 28.2997 52.7409 29.4046 54.7683 29.6479C54.7683 29.6479 52.2919 33.8867 46.9046 32.9639" stroke="white" stroke-width="1.31326" stroke-linecap="round" stroke-linejoin="round"/>
<path d="M38.5708 9.32837C34.7877 9.32837 30.8241 11.4291 29.2399 14.9636C28.5427 16.5193 28.2591 18.2257 28.0618 19.9185C27.7842 22.3051 27.6614 24.5761 26.5162 26.729C25.6805 28.2997 24.4006 29.4046 22.3732 29.6479C22.3732 29.6479 24.8496 33.8867 30.237 32.9639" stroke="white" stroke-width="1.31326" stroke-linecap="round" stroke-linejoin="round"/>
<path d="M32.6047 36.8691L38.5709 41.3163L44.5366 36.8691" stroke="white" stroke-width="1.31326" stroke-linecap="round" stroke-linejoin="round"/>
<path d="M45.0777 51.59H50.6102" stroke="white" stroke-width="1.31326" stroke-linecap="round" stroke-linejoin="round"/>
<path d="M19.1413 55.9999L20.6566 44.526C20.9916 42.856 21.9005 41.3361 23.2194 40.2478C24.0617 39.5562 24.9145 39.111 25.7309 38.9319L32.2096 37.054C32.3499 37.0128 32.4837 36.9507 32.6047 36.8688C32.9462 36.6394 33.1703 36.2722 33.2176 35.8637L33.2799 35.3323C33.4145 34.1828 33.1067 33.0122 32.3758 32.1144C31.2735 30.7609 30.8508 29.4069 30.7688 27.6467C30.7526 25.8322 31.1617 23.147 31.5375 21.0778C31.8786 19.199 33.1321 17.6134 34.882 16.8434C36.2952 16.2214 37.9701 16.5843 38.9483 17.7771C38.9553 17.7855 38.9623 17.7942 38.9694 17.8025C39.6555 18.6487 40.1646 19.6363 40.9236 20.4181C42.1574 21.6898 44.034 22.3057 45.783 22.0133" stroke="white" stroke-width="1.31326" stroke-linecap="round" stroke-linejoin="round"/>
<path d="M37.3025 13.4688C38.7731 13.4828 40.2204 14.2068 41.1123 15.3743C41.8138 16.2927 42.1843 17.4567 43.0169 18.2586C43.8588 19.0693 45.1378 19.3981 46.2673 19.0939" stroke="white" stroke-width="1.31326" stroke-linecap="round" stroke-linejoin="round"/>
<path fill-rule="evenodd" clip-rule="evenodd" d="M3.11151 35.1156C3.11151 39.7514 6.87569 43.5095 11.519 43.5095C16.1618 43.5095 19.926 39.7514 19.926 35.1156C19.926 30.4798 16.1618 26.7217 11.519 26.7217C6.87569 26.7217 3.11151 30.4798 3.11151 35.1156Z" stroke="white" stroke-width="1.31326" stroke-linecap="round" stroke-linejoin="round"/>
<path d="M7.91382 35.5536L10.7871 38.1118L15.4382 32.4329" stroke="white" stroke-width="1.31326" stroke-linecap="round" stroke-linejoin="round"/>
</svg>
